<?xml version="1.0" encoding="UTF-8"?>
<svg version="1.1" xmlns="http://www.w3.org/2000/svg" width="500" height="500">
<path d="M0 0 C165 0 330 0 500 0 C500 165 500 330 500 500 C335 500 170 500 0 500 C0 335 0 170 0 0 Z " fill="#CCCBC5" transform="translate(0,0)"/>
<path d="M0 0 C0.70125 0.59941406 1.4025 1.19882813 2.125 1.81640625 C3.300625 2.79287109 3.300625 2.79287109 4.5 3.7890625 C8.681191 7.32420142 8.681191 7.32420142 10.125 8.81640625 C10.125 9.47640625 10.125 10.13640625 10.125 10.81640625 C10.71023438 11.0690625 11.29546875 11.32171875 11.8984375 11.58203125 C32.86105321 23.20341119 47.01230675 61.3536178 53.1875 82.62890625 C64.46579435 126.76136239 56.63094028 171.04458477 33.60913086 209.91870117 C28.28503872 218.64473548 22.09031693 226.3523329 15.125 233.81640625 C14.33754395 234.66162842 14.33754395 234.66162842 13.53417969 235.52392578 C2.41907012 247.31893097 -9.74359508 256.79939517 -23.875 264.81640625 C-25.00550781 265.46222656 -26.13601563 266.10804688 -27.30078125 266.7734375 C-61.38969434 285.39455224 -106.21574538 291.67624853 -143.875 280.81640625 C-144.74463379 280.56971191 -145.61426758 280.32301758 -146.51025391 280.06884766 C-169.13573189 273.47194348 -190.19666337 262.51069934 -207.875 246.81640625 C-208.39690918 246.35476074 -208.91881836 245.89311523 -209.45654297 245.41748047 C-240.47915772 217.83474497 -261.1795329 179.64606236 -263.875 137.81640625 C-264.59502021 121.11879468 -265.0376248 104.11247907 -260.875 87.81640625 C-260.68164062 87.04006836 -260.48828125 86.26373047 -260.2890625 85.46386719 C-252.1350117 53.66558575 -234.54816152 22.743269 -208.875 1.81640625 C-207.89144531 0.99527344 -206.90789062 0.17414063 -205.89453125 -0.671875 C-186.20733128 -16.8395593 -163.93208177 -28.15629918 -139.02294922 -33.69580078 C-137.07929676 -34.13719856 -135.14969217 -34.63937026 -133.22265625 -35.1484375 C-86.83627327 -46.07769386 -35.84724252 -29.8104673 0 0 Z " fill="#212324" transform="translate(373.875,129.18359375)"/>
<path d="M0 0 C1.60855157 1.50655258 3.20331417 3.0263922 4.79541016 4.55029297 C7.2933211 7.0023111 7.2933211 7.0023111 10.33447266 8.91357422 C8.85725844 12.36559061 6.89653265 14.56319358 4.20947266 17.16357422 C3.48501953 17.86998047 2.76056641 18.57638672 2.01416016 19.30419922 C1.45986328 19.83529297 0.90556641 20.36638672 0.33447266 20.91357422 C-0.59365234 20.10919922 -1.52177734 19.30482422 -2.47802734 18.47607422 C-7.47404228 14.20512706 -12.53662342 10.02383529 -17.66552734 5.91357422 C-18.57455811 5.17977539 -18.57455811 5.17977539 -19.50195312 4.43115234 C-61.97319699 -29.6650304 -111.1928767 -43.23035815 -164.66552734 -47.08642578 C-164.66552734 -46.09642578 -164.66552734 -45.10642578 -164.66552734 -44.08642578 C-163.89853516 -44.10962891 -163.13154297 -44.13283203 -162.34130859 -44.15673828 C-146.25649814 -44.41827991 -130.33059212 -42.73304742 -114.66552734 -39.08642578 C-113.45509766 -38.82216797 -112.24466797 -38.55791016 -110.99755859 -38.28564453 C-84.59031067 -32.17509889 -58.99367609 -21.52045705 -36.66552734 -6.08642578 C-35.91319824 -5.56709473 -35.16086914 -5.04776367 -34.38574219 -4.51269531 C-22.96029225 3.4620685 -12.59547046 12.14690371 -2.66552734 21.91357422 C-4.18360015 25.48836412 -6.28127445 27.77169145 -9.0234375 30.49853516 C-9.92422028 31.39916687 -10.82500305 32.29979858 -11.75308228 33.22772217 C-12.73681142 34.20123902 -13.72064984 35.17464547 -14.70458984 36.14794922 C-15.71107862 37.15070583 -16.71712524 38.15390644 -17.7227478 39.15753174 C-20.36514882 41.79231235 -23.01350163 44.42103033 -25.66314697 47.04852295 C-28.36808787 49.7329711 -31.06734556 52.42312044 -33.76708984 55.11279297 C-39.06102908 60.3853104 -44.36127017 65.65143479 -49.66552734 70.91357422 C-53.31680978 68.78299697 -56.27760811 66.57124332 -59.35302734 63.66357422 C-64.19412985 59.24962782 -69.16793894 55.46857901 -74.66552734 51.91357422 C-75.75349609 51.20330078 -76.84146484 50.49302734 -77.96240234 49.76123047 C-87.70327983 43.57411493 -97.93559626 39.10233088 -108.66552734 34.91357422 C-109.73158203 34.49076172 -110.79763672 34.06794922 -111.89599609 33.63232422 C-149.14806602 19.44105948 -192.66265261 21.80416211 -228.91552734 37.78857422 C-263.08264611 53.35946042 -291.3063612 77.5831637 -308.73828125 111.14111328 C-309.56582 112.7229804 -310.43154844 114.28473371 -311.30224609 115.84326172 C-318.59131015 129.35003133 -323.05691699 144.83543634 -325.66552734 159.91357422 C-325.85759766 160.97447266 -326.04966797 162.03537109 -326.24755859 163.12841797 C-327.64895856 171.44607966 -328.09850025 179.40816787 -328.66552734 187.91357422 C-339.88552734 187.91357422 -351.10552734 187.91357422 -362.66552734 187.91357422 C-363.47362844 160.6401622 -358.35719529 134.79076312 -347.46630859 109.76318359 C-346.92660902 108.51660921 -346.3981608 107.26511059 -345.88037109 106.00927734 C-338.00414785 86.96555883 -325.85160986 68.85253664 -311.66552734 53.91357422 C-310.77679932 52.97143066 -310.77679932 52.97143066 -309.87011719 52.01025391 C-301.09864321 42.79127824 -292.01332373 34.33122537 -281.66552734 26.91357422 C-281.07449219 26.48882812 -280.48345703 26.06408203 -279.87451172 25.62646484 C-237.5177611 -4.44637313 -184.62037681 -16.31111395 -133.31884766 -8.56958008 C-115.73596114 -5.53648169 -98.48737333 -0.11846965 -82.29052734 7.35107422 C-81.09427734 7.86669922 -79.89802734 8.38232422 -78.66552734 8.91357422 C-78.00552734 8.58357422 -77.34552734 8.25357422 -76.66552734 7.91357422 C-114.75868143 -8.72578577 -153.95687766 -17.30078629 -195.66552734 -10.08642578 C-196.40786621 -9.9681543 -197.15020508 -9.84988281 -197.91503906 -9.72802734 C-232.02745491 -4.20767345 -265.33646164 10.40384829 -291.66552734 32.91357422 C-292.82149369 33.88526593 -293.97776694 34.85659261 -295.13427734 35.82763672 C-305.02715856 44.17483684 -313.66219785 52.68922506 -321.66552734 62.91357422 C-322.09913574 63.4654541 -322.53274414 64.01733398 -322.97949219 64.5859375 C-330.67341481 74.46068348 -336.85299982 84.84331633 -342.66552734 95.91357422 C-343.30982907 97.10901045 -343.95434409 98.30433177 -344.59912109 99.49951172 C-359.11128341 127.23099338 -364.03508461 156.93516224 -365.66552734 187.91357422 C-381.83552734 187.91357422 -398.00552734 187.91357422 -414.66552734 187.91357422 C-414.66552734 163.48088835 -414.66552734 163.48088835 -413.54052734 156.28857422 C-413.40928467 155.40290771 -413.27804199 154.51724121 -413.14282227 153.60473633 C-403.21576201 90.11211405 -371.21249761 30.43038008 -319.66552734 -9.08642578 C-318.78251953 -9.78638672 -317.89951172 -10.48634766 -316.98974609 -11.20751953 C-294.44676903 -28.6993731 -267.70991504 -44.02962543 -239.93896484 -51.19970703 C-237.40197349 -51.886935 -234.9980305 -52.66032659 -232.52490234 -53.53173828 C-155.02050409 -79.67261154 -59.2268945 -54.45543882 0 0 Z " fill="#212324" transform="translate(435.66552734375,65.08642578125)"/>
<path d="M0 0 C1.12244866 0.95521411 2.24392501 1.91157084 3.36499023 2.8684082 C3.98961655 3.40085648 4.61424286 3.93330475 5.25779724 4.48188782 C37.78929123 32.82902312 61.42641536 85.67751592 65.19153976 128.16123581 C65.92320805 139.11022445 65.76795576 150.09471784 65.6451416 161.0604248 C65.61815749 164.3287727 65.62884512 167.59658247 65.63886261 170.86499214 C65.67768274 187.57257667 65.52564722 203.7860309 61 220 C60.53037842 221.80936035 60.53037842 221.80936035 60.05126953 223.65527344 C59.18661496 226.8385004 58.24544346 229.98047019 57.25 233.125 C56.90493408 234.22481201 56.55986816 235.32462402 56.2043457 236.45776367 C53.13634453 245.99468538 49.44741405 255.0317886 45 264 C44.59410645 264.83337891 44.18821289 265.66675781 43.77001953 266.52539062 C32.73187852 289.04203506 17.94215916 308.57348248 1 327 C-3.06109472 325.64526125 -5.44232942 323.91503038 -8.42578125 320.8671875 C-9.61977539 319.65869141 -9.61977539 319.65869141 -10.83789062 318.42578125 C-11.65451172 317.58402344 -12.47113281 316.74226563 -13.3125 315.875 C-14.14845703 315.02550781 -14.98441406 314.17601562 -15.84570312 313.30078125 C-17.9040695 311.20712859 -19.95509803 309.10679176 -22 307 C-20.76240801 303.44438459 -19.54051743 301.21263529 -16.765625 298.67578125 C-13.03825551 295.10355821 -9.87050819 291.29399367 -6.75 287.1875 C-5.91964233 286.09804077 -5.91964233 286.09804077 -5.07250977 284.98657227 C2.67246131 274.63966261 9.34304 263.61440517 15 252 C12.84373236 254.01916615 11.31069838 255.94463699 9.87109375 258.51953125 C9.28654419 259.54747803 9.28654419 259.54747803 8.69018555 260.59619141 C8.27679932 261.32757324 7.86341309 262.05895508 7.4375 262.8125 C-0.95516502 277.31017926 -11.20920099 294.09260415 -25 304 C-30.76209966 299.09775606 -36.18391529 293.94257462 -41.5 288.5625 C-42.22703125 287.83095703 -42.9540625 287.09941406 -43.703125 286.34570312 C-45.47109499 284.56610176 -47.23666378 282.78419082 -49 281 C-47.39937119 277.62510589 -45.5896388 275.33487203 -43 272.625 C-24.59313172 252.47494516 -10.55458089 225.72768762 -5 199 C-4.86174805 198.34016113 -4.72349609 197.68032227 -4.58105469 197.00048828 C4.18376746 153.38412164 -4.92837926 108.30364095 -29.16503906 71.21728516 C-32.39536186 66.51774082 -35.91424719 62.1158657 -39.8203125 57.96484375 C-40.52124023 57.21835571 -40.52124023 57.21835571 -41.23632812 56.45678711 C-42.54916842 55.07955117 -43.88718581 53.72644314 -45.2265625 52.375 C-47 50 -47 50 -46.8818512 48.14385986 C-45.67723936 45.21533974 -43.91147051 43.55252116 -41.66381836 41.32324219 C-40.28249977 39.94226349 -40.28249977 39.94226349 -38.87327576 38.53338623 C-37.86229096 37.53772081 -36.8511431 36.54222093 -35.83984375 35.546875 C-34.80928859 34.52191674 -33.77939506 33.49629286 -32.75013733 32.47003174 C-30.04249408 29.77382983 -27.32596228 27.08675928 -24.60748291 24.40148926 C-21.83381027 21.65853271 -19.06863571 18.90703876 -16.30273438 16.15625 C-10.87677256 10.7624398 -5.44139257 5.37824766 0 0 Z " fill="#212324" transform="translate(435,90)"/>
<path d="M0 0 C84.81 0 169.62 0 257 0 C257 0.33 257 0.66 257 1 C255.79730469 1.08636719 254.59460938 1.17273438 253.35546875 1.26171875 C187.73224977 6.46316033 125.2839544 35.66106563 81.65625 85.6875 C79.39466189 88.42688842 77.18961105 91.20280055 75 94 C74.20980469 94.98484375 73.41960937 95.9696875 72.60546875 96.984375 C51.47267624 123.56579276 35.06775647 154.94069882 27 188 C26.8242041 188.71381836 26.6484082 189.42763672 26.46728516 190.16308594 C25.19396803 195.41939414 24.0626131 200.69742079 23 206 C22.85820312 206.69077637 22.71640625 207.38155273 22.5703125 208.09326172 C19.65543672 222.58858148 18.89074274 237.26606718 18 252 C12.06 252 6.12 252 0 252 C0 168.84 0 85.68 0 0 Z " fill="#1F2122" transform="translate(0,0)"/>
<path d="M0 0 C16.17 0 32.34 0 49 0 C49.66 7.92 50.32 15.84 51 24 C57.81445075 69.75416929 77.43308336 108.39650809 109 142 C109.58136719 142.63550781 110.16273438 143.27101563 110.76171875 143.92578125 C123.74657385 157.63020011 140.68353254 167.81734748 157 177 C157.62583984 177.35739258 158.25167969 177.71478516 158.89648438 178.08300781 C186.34983 193.56075889 217.85039153 199.40855174 249 200 C249 215.18 249 230.36 249 246 C199.16553477 247.05390108 199.16553477 247.05390108 175 239 C173.50073975 238.51901855 173.50073975 238.51901855 171.97119141 238.02832031 C138.66057566 227.2168351 108.28349766 209.08380553 82.58203125 185.359375 C80.44830729 183.40964842 78.27861589 181.54114559 76.0625 179.6875 C55.43830778 161.66229135 39.65964146 138.06915747 27 114 C26.63165039 113.30277832 26.26330078 112.60555664 25.88378906 111.88720703 C7.87319863 77.26407286 0 38.74335342 0 0 Z " fill="#222324" transform="translate(21,254)"/>
<path d="M0 0 C5.94 0 11.88 0 18 0 C18.08636719 1.44503906 18.17273438 2.89007813 18.26171875 4.37890625 C19.81494058 27.8097545 22.63968521 51.61323973 30 74 C30.35868164 75.13477783 30.35868164 75.13477783 30.72460938 76.29248047 C42.49217583 113.32703891 62.25940545 145.92361257 89 174 C89.57024902 174.59893066 90.14049805 175.19786133 90.72802734 175.81494141 C99.25528538 184.704671 108.05187866 192.73550962 118 200 C119.00184326 200.73645752 119.00184326 200.73645752 120.02392578 201.48779297 C147.72562491 221.74839546 178.48030976 237.06387396 212 245 C212 245.33 212 245.66 212 246 C142.04 246 72.08 246 0 246 C0 164.82 0 83.64 0 0 Z " fill="#1F2122" transform="translate(0,254)"/>
<path d="M0 0 C69.96 0 139.92 0 212 0 C212 66.33 212 132.66 212 201 C210.39229916 197.78459833 209.37197927 195.14122183 208.40625 191.73046875 C198.06636347 156.12723328 181.53166858 124.83844523 157 97 C155.89011719 95.72382813 155.89011719 95.72382813 154.7578125 94.421875 C153.17882331 92.60825689 151.5938444 90.8005546 150 89 C151.57585914 85.15552892 154.01829808 82.7809424 156.97265625 79.90234375 C157.45576767 79.42680557 157.93887909 78.9512674 158.43663025 78.46131897 C159.97384499 76.94845098 161.517325 75.44223421 163.0625 73.9375 C165.10079601 71.95236868 167.13240817 69.96074182 169.16015625 67.96484375 C170.06386963 67.0843335 170.96758301 66.20382324 171.89868164 65.29663086 C174.1917133 63.10334498 174.1917133 63.10334498 175 60 C170.14256071 64.16704183 165.46980492 68.41844996 161 73 C156.78759814 71.34366723 153.9333262 68.21966414 150.75 65.125 C110.06377937 26.6131384 55.10918523 6.20777914 0 1 C0 0.67 0 0.34 0 0 Z " fill="#1F2122" transform="translate(288,0)"/>
<path d="M0 0 C0.33 0 0.66 0 1 0 C1 64.02 1 128.04 1 194 C-55.76 194 -112.52 194 -171 194 C-171 193.67 -171 193.34 -171 193 C-170.18402344 192.8040625 -169.36804688 192.608125 -168.52734375 192.40625 C-128.01387723 182.17869371 -91.13805682 162.81108594 -60 135 C-59.05382812 134.1646875 -58.10765625 133.329375 -57.1328125 132.46875 C-55.08128166 130.65368845 -53.03655533 128.83182226 -51 127 C-45.96836982 131.29785078 -40.97281557 135.63425542 -36 140 C-38.62417955 136.63776995 -41.24483236 133.69611664 -44.5 130.9375 C-50.69194683 125.6743452 -56.29747491 119.78076095 -62 114 C-60.70565652 111.11404754 -59.39952843 109.2391822 -57.0625 107.125 C-51.40210173 101.62969668 -46.7695429 95.26125918 -42 89 C-41.30777344 88.1028125 -40.61554688 87.205625 -39.90234375 86.28125 C-25.61962758 67.27673239 -14.22982867 45.65139454 -7 23 C-6.47922843 21.49997855 -5.95840094 19.99997652 -5.4375 18.5 C-3.4222892 12.39645924 -1.73402061 6.18790097 0 0 Z " fill="#1F2122" transform="translate(499,306)"/>
<path d="M0 0 C11.22 0 22.44 0 34 0 C34.268125 2.743125 34.53625 5.48625 34.8125 8.3125 C38.30537523 41.80335204 47.91989022 71.19451711 68.125 98.5 C68.60364502 99.14686768 69.08229004 99.79373535 69.57543945 100.46020508 C72.59969612 104.43704847 75.85419388 107.98860637 79.45556641 111.45166016 C81 113 81 113 83.25 115.875 C87.14563805 120.64053781 92.16119645 124.25068806 97 128 C97.97324219 128.7734375 98.94648438 129.546875 99.94921875 130.34375 C128.44054323 151.93127261 161.66018499 161.92092168 197 163 C197 174.55 197 186.1 197 198 C146.92954239 198 97.38785136 178.92555803 61.4609375 143.49609375 C60.64882812 142.67238281 59.83671875 141.84867188 59 141 C58.1234375 140.16984375 57.246875 139.3396875 56.34375 138.484375 C33.89601183 116.90001138 19.78760619 89.88527458 9 61 C8.74589355 60.33597168 8.49178711 59.67194336 8.22998047 58.98779297 C1.2060864 40.32737113 -0.67654631 19.78897951 0 0 Z " fill="#202223" transform="translate(73,254)"/>
<path d="M0 0 C2.48907011 1.06193918 3.59037515 2.32195332 5.2734375 4.42578125 C6.05460937 5.38677734 6.05460937 5.38677734 6.8515625 6.3671875 C7.23828125 6.86089844 7.625 7.35460937 8.0234375 7.86328125 C7.0334375 9.18328125 6.0434375 10.50328125 5.0234375 11.86328125 C7.0034375 11.20328125 8.9834375 10.54328125 11.0234375 9.86328125 C14.3234375 13.16328125 17.6234375 16.46328125 21.0234375 19.86328125 C19.94402607 23.10151555 19.29966104 23.74040432 16.7734375 25.86328125 C16.04640625 26.476875 15.319375 27.09046875 14.5703125 27.72265625 C13.72984375 28.4290625 12.889375 29.13546875 12.0234375 29.86328125 C11.07984375 30.6934375 10.13625 31.52359375 9.1640625 32.37890625 C-15.46787707 53.95044278 -45.38648797 70.23211334 -76.9765625 78.86328125 C-78.08386719 79.20617187 -79.19117188 79.5490625 -80.33203125 79.90234375 C-100.1298862 85.76340363 -120.43340957 87.41477529 -140.9765625 86.86328125 C-140.9765625 76.63328125 -140.9765625 66.40328125 -140.9765625 55.86328125 C-138.2746875 55.76015625 -135.5728125 55.65703125 -132.7890625 55.55078125 C-105.76734225 54.22799023 -81.58772817 47.99901393 -56.9765625 36.86328125 C-56.20795898 36.51894043 -55.43935547 36.17459961 -54.64746094 35.81982422 C-36.43212103 27.55273294 -19.56972601 15.61789639 -4.8515625 2.11328125 C-1.9765625 -0.13671875 -1.9765625 -0.13671875 0 0 Z " fill="#242627" transform="translate(411.9765625,398.13671875)"/>
<path d="M0 0 C10.15223462 4.47621254 18.28074319 15.16137324 26 23 C4.81573432 49.19481349 -28.69795109 63.30014291 -60 73 C-60.85537354 73.27537598 -61.71074707 73.55075195 -62.59204102 73.83447266 C-68.29192157 75.6299988 -73.89416732 76.81803251 -79.8125 77.625 C-80.6996167 77.74979736 -81.5867334 77.87459473 -82.50073242 78.00317383 C-92.31662107 79.30201869 -102.1080754 79.66353998 -112 80 C-112 68.45 -112 56.9 -112 45 C-103.585 44.505 -103.585 44.505 -95 44 C-89.27991127 43.25174568 -83.64459225 42.17796378 -78 41 C-76.96488281 40.78472656 -75.92976563 40.56945312 -74.86328125 40.34765625 C-60.06632519 36.93607975 -46.32197423 31.1935782 -33 24 C-31.94039063 23.43410156 -30.88078125 22.86820312 -29.7890625 22.28515625 C-18.89201624 16.20740735 -9.20096636 8.3948394 0 0 Z " fill="#202223" transform="translate(383,372)"/>
<path d="M0 0 C2.47899971 1.39412049 4.19973416 3.07827556 6.16015625 5.13671875 C6.8665625 5.87019531 7.57296875 6.60367187 8.30078125 7.359375 C9.09742188 8.20822266 9.09742188 8.20822266 9.91015625 9.07421875 C8.28807565 13.34501324 5.07402107 16.0613363 1.78515625 19.07421875 C1.16406982 19.64454834 0.5429834 20.21487793 -0.09692383 20.80249023 C-27.89206095 45.90095487 -62.82454212 64.82418949 -99.08984375 74.07421875 C-100.40175116 74.43361803 -101.71292106 74.79571756 -103.0234375 75.16015625 C-112.63650655 77.80815777 -121.43419874 79.22739408 -131.3984375 79.171875 C-132.36515884 79.17046005 -133.33188019 79.1690451 -134.32789612 79.16758728 C-137.39441107 79.16202096 -140.46085113 79.14947474 -143.52734375 79.13671875 C-145.61523332 79.1316994 -147.70312403 79.12713725 -149.79101562 79.12304688 C-154.89065355 79.11206257 -159.99023598 79.0948213 -165.08984375 79.07421875 C-165.08984375 75.11421875 -165.08984375 71.15421875 -165.08984375 67.07421875 C-163.64254883 66.97717651 -163.64254883 66.97717651 -162.16601562 66.87817383 C-104.71143714 62.94044328 -47.69144486 45.83588675 -6.19946289 3.59277344 C-2.64090381 0.09378911 -2.64090381 0.09378911 0 0 Z " fill="#212324" transform="translate(436.08984375,420.92578125)"/>
<path d="M0 0 C12.87 0 25.74 0 39 0 C39 6.23366797 38.80560711 11.80651468 37.8125 17.875 C37.61611938 19.09123047 37.61611938 19.09123047 37.41577148 20.33203125 C32.61579565 48.53969908 32.61579565 48.53969908 27 58 C25.3203125 58.9453125 25.3203125 58.9453125 23 59 C20.55296665 58.17365342 18.28897293 57.29081102 15.9375 56.25 C9.73026295 53.62242922 3.57146894 51.55747913 -3 50 C-2.85815167 46.97893247 -2.71164333 43.95820903 -2.5625 40.9375 C-2.52318359 40.08994141 -2.48386719 39.24238281 -2.44335938 38.36914062 C-2.26206945 34.75728749 -2.03525897 31.23579437 -1.5 27.65625 C-0.7685066 22.30720449 -0.6329112 16.95402278 -0.4375 11.5625 C-0.293125 7.746875 -0.14875 3.93125 0 0 Z " fill="#DCDBD4" transform="translate(312,256)"/>
<path d="M0 0 C12.54 0 25.08 0 38 0 C38.28875 4.475625 38.5775 8.95125 38.875 13.5625 C39.49346991 22.85040812 40.19516951 32.04908485 41.6328125 41.25 C41.9829265 43.87213041 42.06797719 46.35860073 42 49 C40.80503906 49.31453125 39.61007813 49.6290625 38.37890625 49.953125 C30.25770121 52.12782315 22.61835631 54.39130491 15 58 C14.01 58 13.02 58 12 58 C9.96074472 52.68077748 7.95858472 47.34946779 6 42 C5.68289062 41.13503906 5.36578125 40.27007812 5.0390625 39.37890625 C3.23192665 33.92835135 2.26072383 28.33851408 1.3125 22.6875 C1.18077393 21.92912842 1.04904785 21.17075684 0.91333008 20.3894043 C-0.18287439 13.38919755 0 7.329439 0 0 Z " fill="#DEDDD6" transform="translate(192,257)"/>
<path d="M0 0 C3.01572658 8.15729321 5.47853524 16.29674408 7.25 24.8125 C7.49411621 25.9277002 7.49411621 25.9277002 7.74316406 27.06542969 C9.46304195 35.77436549 9.49457326 43.90231872 10 53 C-2.87 53 -15.74 53 -29 53 C-29.4375 41 -29.4375 41 -29.56811523 37.265625 C-29.8191209 30.5197082 -29.8191209 30.5197082 -30.53515625 23.8125 C-31.09938863 19.18484624 -31.08584138 14.6545103 -31 10 C-30.19256348 9.7326001 -29.38512695 9.4652002 -28.55322266 9.18969727 C-25.55982019 8.19757475 -22.56686916 7.20410533 -19.57421875 6.2097168 C-18.27850006 5.77948756 -16.98260245 5.34979683 -15.68652344 4.9206543 C-13.82440063 4.30398652 -11.96297138 3.68522569 -10.1015625 3.06640625 C-8.98088379 2.69459229 -7.86020508 2.32277832 -6.70556641 1.93969727 C-1.1208106 0 -1.1208106 0 0 0 Z " fill="#DDDCD5" transform="translate(341,194)"/>
<path d="M0 0 C0.62455078 0.23187012 1.24910156 0.46374023 1.89257812 0.70263672 C4.76013055 1.76443768 7.6300285 2.81975602 10.5 3.875 C11.97339844 4.42220703 11.97339844 4.42220703 13.4765625 4.98046875 C18.9426453 6.98469911 24.32045389 8.71534076 30 10 C30.02747059 12.14575863 30.04660463 14.29162441 30.0625 16.4375 C30.07410156 17.63246094 30.08570313 18.82742187 30.09765625 20.05859375 C30.00911261 23.63221493 29.68258744 27.05574127 29.25610352 30.59741211 C28.7966398 34.90778617 28.63142349 39.23347522 28.4375 43.5625 C28.293125 46.676875 28.14875 49.79125 28 53 C15.46 53 2.92 53 -10 53 C-10 36.07978723 -10 36.07978723 -8.75 30.0625 C-8.61722656 29.41555176 -8.48445312 28.76860352 -8.34765625 28.10205078 C-7.91946599 26.06274557 -7.46415543 24.03140223 -7 22 C-6.83951172 21.28537598 -6.67902344 20.57075195 -6.51367188 19.83447266 C-4.93496119 12.89278889 -3.41884987 6.31321709 0 0 Z " fill="#DEDDD6" transform="translate(202,194)"/>
<path d="M0 0 C8.91 0 17.82 0 27 0 C27 26.08873281 16.86162756 50.22001383 0 70 C-4.77609498 68.35821735 -8.79382904 65.73453298 -13 63 C-12.35016181 59.0853121 -11.21498087 55.42956039 -9.98144531 51.6706543 C-4.29621188 34.33698593 -1.37605646 18.23274809 0 0 Z " fill="#DDDCD5" transform="translate(360,257)"/>
<path d="M0 0 C8.58 0 17.16 0 26 0 C26.24234375 1.99160156 26.4846875 3.98320312 26.734375 6.03515625 C28.99715272 24.13509466 32.12236102 40.7632064 38.828125 57.83203125 C40 61 40 61 40 63 C37.48046875 64.76171875 37.48046875 64.76171875 34.1875 66.6875 C33.10855469 67.33074219 32.02960938 67.97398437 30.91796875 68.63671875 C28 70 28 70 25 69 C14.59780313 56.32039908 7.58566789 41.64103777 3 26 C2.6390625 24.77796875 2.278125 23.5559375 1.90625 22.296875 C-0.16994413 14.74382394 0 7.92362076 0 0 Z " fill="#DDDDD6" transform="translate(156,257)"/>
<path d="M0 0 C4.2829452 0.5479083 6.85135641 2.02432804 10.3125 4.5625 C11.19550781 5.20316406 12.07851562 5.84382812 12.98828125 6.50390625 C13.65214844 6.99761719 14.31601563 7.49132812 15 8 C14.37827222 12.2013726 13.42844304 16.12847915 12.1875 20.1875 C7.81669543 35.31843073 5.41433584 50.32444443 4 66 C-4.91 66 -13.82 66 -23 66 C-21.95515096 41.18483541 -13.68819828 20.53229743 0 0 Z " fill="#DDDCD5" transform="translate(178,181)"/>
<path d="M0 0 C2.47997959 1.03378511 3.1599355 2.05453438 4.55908203 4.33032227 C5.01202637 5.06154297 5.4649707 5.79276367 5.93164062 6.54614258 C6.39908691 7.33859375 6.8665332 8.13104492 7.34814453 8.94750977 C8.07831787 10.1748584 8.07831787 10.1748584 8.82324219 11.42700195 C15.09906884 22.21010844 18.98613737 33.01762437 21.84814453 45.13500977 C22.06390137 46.0421875 22.2796582 46.94936523 22.50195312 47.8840332 C22.69611816 48.76736328 22.8902832 49.65069336 23.09033203 50.56079102 C23.26161621 51.33463135 23.43290039 52.10847168 23.609375 52.90576172 C24.14243966 57.17993853 23.97314453 61.51521997 23.97314453 65.82250977 C15.06314453 65.82250977 6.15314453 65.82250977 -3.02685547 65.82250977 C-3.41873047 61.80063477 -3.81060547 57.77875977 -4.21435547 53.63500977 C-5.88005268 37.84776338 -9.38767157 22.96960461 -14.02685547 7.82250977 C-12.12105617 6.45309109 -10.20178974 5.10239814 -8.27685547 3.76000977 C-7.20951172 3.0059082 -6.14216797 2.25180664 -5.04248047 1.47485352 C-2.02685547 -0.17749023 -2.02685547 -0.17749023 0 0 Z " fill="#DDDCD5" transform="translate(363.02685546875,181.177490234375)"/>
<path d="M0 0 C8.91 0 17.82 0 27 0 C27 14.9405358 27 14.9405358 26.34375 21.70703125 C26.27716187 22.44330246 26.21057373 23.17957367 26.14196777 23.93815613 C25.93344536 26.23014662 25.71691638 28.52129043 25.5 30.8125 C25.35493045 32.39122667 25.21039592 33.9700026 25.06640625 35.54882812 C24.71806136 39.36660804 24.35883235 43.18313449 24 47 C16.08 46.34 8.16 45.68 0 45 C0 30.15 0 15.3 0 0 Z " fill="#DEDDD6" transform="translate(276,257)"/>
<path d="M0 0 C8.58 0 17.16 0 26 0 C26 14.85 26 29.7 26 45 C14.615 45.99 14.615 45.99 3 47 C0.46191952 31.03124366 -0.27266962 16.17839746 0 0 Z " fill="#DEDDD6" transform="translate(240,257)"/>
<path d="M0 0 C0.66 0.33 1.32 0.66 2 1 C1.23816406 2.36705078 1.23816406 2.36705078 0.4609375 3.76171875 C-7.42170032 18.41051156 -13.03927735 35.41241213 -14.625 52.0625 C-14.74875 53.361875 -14.8725 54.66125 -15 56 C-24.8085198 54.4430921 -35.0806244 51.4596878 -44 47 C-38.60320613 29.46687542 -24.32021891 13.28599675 -8.64453125 4.015625 C-3.02771314 1.08977949 -3.02771314 1.08977949 0 0 Z " fill="#DCDBD4" transform="translate(250,139)"/>
<path d="M0 0 C20.30304757 6.14434334 34.25283274 24.50966045 44.26171875 42.234375 C45 44 45 44 45 47 C35.76398952 50.62173507 26.70654718 53.83553494 17 56 C16.88519287 55.38294189 16.77038574 54.76588379 16.65209961 54.13012695 C14.50163761 42.76219863 12.1482265 31.55527477 8.5 20.5625 C8.22792725 19.73081299 7.95585449 18.89912598 7.67553711 18.04223633 C5.9267784 12.96842364 3.71812027 8.4388125 0.97070312 3.82788086 C0 2 0 2 0 0 Z " fill="#DDDCD5" transform="translate(291,139)"/>
<path d="M0 0 C3.9794733 0.13814223 7.95848415 0.28679674 11.9375 0.4375 C13.64196289 0.49647461 13.64196289 0.49647461 15.38085938 0.55664062 C16.46044922 0.59853516 17.54003906 0.64042969 18.65234375 0.68359375 C20.15269165 0.73858032 20.15269165 0.73858032 21.68334961 0.79467773 C24 1 24 1 25 2 C25.08861992 4.8116338 25.11522355 7.59858255 25.09765625 10.41015625 C25.0962413 11.25219101 25.09482635 12.09422577 25.09336853 12.96177673 C25.08775263 15.66205335 25.07519748 18.36224828 25.0625 21.0625 C25.05748705 22.88867068 25.05292379 24.71484266 25.04882812 26.54101562 C25.03862716 31.02740085 25.01905499 35.51360855 25 40 C16.09 40 7.18 40 -2 40 C-2.15437268 26.41520409 -2.20847634 13.40860635 0 0 Z " fill="#DBDAD3" transform="translate(242,207)"/>
<path d="M0 0 C1.00546875 0.00902344 2.0109375 0.01804688 3.046875 0.02734375 C3.77390625 0.03894531 4.5009375 0.05054688 5.25 0.0625 C7.96843134 13.46990892 8.35993792 26.43019735 8.25 40.0625 C-0.66 40.0625 -9.57 40.0625 -18.75 40.0625 C-18.75 27.1925 -18.75 14.3225 -18.75 1.0625 C-5.25 -0.0625 -5.25 -0.0625 0 0 Z " fill="#DDDCD5" transform="translate(294.75,206.9375)"/>
<path d="M0 0 C14.60677363 11.6854189 19.94362373 35.36138929 22.4609375 53.28125 C22.69320009 55.51599276 22.85763396 57.75773485 23 60 C20.73779711 61.13110144 19.07601193 61.309138 16.5625 61.5625 C15.78003906 61.64628906 14.99757813 61.73007813 14.19140625 61.81640625 C9.46835049 62.08811203 4.73086459 62 0 62 C0 41.54 0 21.08 0 0 Z " fill="#DCDBD4" transform="translate(276,137)"/>
<path d="M0 0 C0.66 0 1.32 0 2 0 C2 20.13 2 40.26 2 61 C-9.35384615 61 -9.35384615 61 -13.5 60.5625 C-14.3146875 60.48128906 -15.129375 60.40007812 -15.96875 60.31640625 C-18 60 -18 60 -20 59 C-20.34531925 52.10183683 -19.09600142 46.10170244 -17.375 39.4375 C-17.10357178 38.37700439 -16.83214355 37.31650879 -16.55249023 36.22387695 C-13.29252887 23.85334496 -9.31463367 9.31463367 0 0 Z " fill="#DCDCD5" transform="translate(264,138)"/>
<path d="M0 0 C8.59964799 1.7060592 17.30006831 3.64555587 25 8 C26 11 26 11 24.8828125 13.3125 C14.65816674 28.94484729 2.62411128 42.71361369 -15 50 C-15.66 49.67 -16.32 49.34 -17 49 C-16.25556641 47.68515625 -16.25556641 47.68515625 -15.49609375 46.34375 C-7.61148867 31.83396784 -3.42660479 16.08508172 0 0 Z " fill="#DBDAD3" transform="translate(307,315)"/>
<path d="M0 0 C0.18006592 0.8206897 0.18006592 0.8206897 0.36376953 1.65795898 C2.51430861 11.34550027 4.74557433 20.94862924 8.0625 30.3125 C8.29533691 30.9737085 8.52817383 31.63491699 8.76806641 32.31616211 C10.29736583 36.48808669 12.14624928 40.3998114 14.22827148 44.32495117 C15 46 15 46 15 48 C0.62880497 45.38705545 -11.76159988 32.16782532 -20 20.75 C-22.70927558 16.65627798 -24.93876512 12.45226735 -27 8 C-18.96961392 3.50298379 -9.34320417 -0.49267367 0 0 Z " fill="#DBDBD4" transform="translate(236,316)"/>
<path d="M0 0 C0 18.15 0 36.3 0 55 C-10.62898145 49.68550927 -14.10338141 34.89970864 -17.6875 24.375 C-20.13519544 16.98318468 -22.15104703 9.82698239 -22 2 C-20.02237145 1.65765935 -18.04278161 1.32664439 -16.0625 1 C-14.40927734 0.7215625 -14.40927734 0.7215625 -12.72265625 0.4375 C-8.50826849 -0.05779006 -4.2433921 0 0 0 Z " fill="#D6D5CF" transform="translate(267,311)"/>
<path d="M0 0 C17 1 17 1 21 2 C21.22810923 7.95096714 20.54997 12.8642195 18.875 18.5625 C18.65054199 19.34117432 18.42608398 20.11984863 18.19482422 20.92211914 C14.75886491 32.5205481 10.74822491 44.50701742 3 54 C1.515 54.495 1.515 54.495 0 55 C0 36.85 0 18.7 0 0 Z " fill="#DDDCD5" transform="translate(276,311)"/>
<path d="M0 0 C0 0.66 0 1.32 0 2 C-0.62753174 2.25056152 -1.25506348 2.50112305 -1.90161133 2.75927734 C-30.38172565 14.19905366 -57.16131171 28.13999396 -80 49 C-80.82628906 49.71929687 -81.65257813 50.43859375 -82.50390625 51.1796875 C-93.99974423 61.25469157 -104.55509213 71.968163 -113.68212891 84.23779297 C-114.99121119 85.98824793 -116.3267087 87.71553096 -117.66796875 89.44140625 C-130.20312028 105.77838803 -139.81207603 123.67932427 -147.94189453 142.54931641 C-149.59599218 146.38038059 -151.29897687 150.18959266 -153 154 C-153.66 154 -154.32 154 -155 154 C-154.3767726 148.7482704 -152.73469899 144.32575678 -150.6875 139.5 C-150.16833008 138.27398071 -150.16833008 138.27398071 -149.63867188 137.02319336 C-143.24696713 122.33584236 -135.41630113 107.97357045 -126 95 C-125.56751953 94.40058594 -125.13503906 93.80117187 -124.68945312 93.18359375 C-110.05467965 72.98800786 -93.73457072 54.18475271 -73.64404297 39.24267578 C-72.05035379 38.0380607 -70.49496641 36.78328702 -68.94140625 35.52734375 C-59.5729752 27.99679598 -49.41769902 21.96459299 -39 16 C-38.32678711 15.61038086 -37.65357422 15.22076172 -36.95996094 14.81933594 C-29.32026725 10.42820403 -21.47870181 6.81165296 -13.3125 3.5 C-12.45011719 3.14905273 -11.58773437 2.79810547 -10.69921875 2.43652344 C-9.48105469 1.95747559 -9.48105469 1.95747559 -8.23828125 1.46875 C-7.156073 1.04239258 -7.156073 1.04239258 -6.05200195 0.60742188 C-4 0 -4 0 0 0 Z " fill="#CDCCC6" transform="translate(188,15)"/>
<path d="M0 0 C0.67530762 0.13390137 1.35061523 0.26780273 2.04638672 0.40576172 C18.9868436 3.90585612 36.9807669 9.30465452 52 18 C51.67 18.66 51.34 19.32 51 20 C45.60801257 18.29726713 40.4091662 16.35939391 35.1875 14.1875 C20.64676417 8.26211757 5.57856303 4.03849144 -10 2 C-10.70850098 1.9057373 -11.41700195 1.81147461 -12.14697266 1.71435547 C-38.45696593 -1.35798342 -67.10633414 -0.09888773 -92.31762695 8.10595703 C-99.74508663 10.49051955 -99.74508663 10.49051955 -104 9 C-95.42933751 3.28622501 -83.16701424 1.67656806 -73.1875 -0.25 C-72.3536377 -0.41290527 -71.51977539 -0.57581055 -70.66064453 -0.74365234 C-47.6913166 -4.97756764 -22.86720263 -4.60148001 0 0 Z " fill="#C5C4BE" transform="translate(308,55)"/>
<path d="M0 0 C0.99 0.33 1.98 0.66 3 1 C0.37701396 11.6707841 0.37701396 11.6707841 -0.9140625 16.22265625 C-7.365376 39.06450202 -9.82817449 61.35043056 -11 85 C5.17 85 21.34 85 38 85 C38 85.33 38 85.66 38 86 C21.17 86 4.34 86 -13 86 C-13 90.95 -13 95.9 -13 101 C-13.33 101 -13.66 101 -14 101 C-14 96.05 -14 91.1 -14 86 C-19.94 86 -25.88 86 -32 86 C-32 85.34 -32 84.68 -32 84 C-26.06 84 -20.12 84 -14 84 C-14.020625 81.97875 -14.04125 79.9575 -14.0625 77.875 C-14.18356619 66.01051386 -12.98742743 54.35370794 -10.875 42.6875 C-10.66198242 41.49777588 -10.44896484 40.30805176 -10.22949219 39.08227539 C-7.75165484 25.83355597 -4.26261564 12.78784691 0 0 Z " fill="#D5D4CD" transform="translate(32,168)"/>
<path d="M0 0 C13.03005022 4.78755633 23.30692973 13.3359509 33 23 C33.92039062 23.91652344 33.92039062 23.91652344 34.859375 24.8515625 C35.23578125 25.23054688 35.6121875 25.60953125 36 26 C34.72648692 29.82053924 33.37362475 30.23021375 29.9375 32.1875 C29.01839844 32.71730469 28.09929687 33.24710938 27.15234375 33.79296875 C26.44207031 34.19128906 25.73179687 34.58960938 25 35 C24.3709375 33.88882813 23.741875 32.77765625 23.09375 31.6328125 C16.86317671 20.75286817 10.40373174 10.96112944 1.25 2.27734375 C0 1 0 1 0 0 Z " fill="#D8D7D1" transform="translate(320,146)"/>
<path d="M0 0 C0.66 0.33 1.32 0.66 2 1 C1.030625 1.886875 0.06125 2.77375 -0.9375 3.6875 C-9.57266996 12.35755954 -15.49497576 23.18466299 -21 34 C-23.86867231 32.61735163 -26.56024032 31.07851447 -29.25 29.375 C-29.95640625 28.92898437 -30.6628125 28.48296875 -31.390625 28.0234375 C-31.92171875 27.68570313 -32.4528125 27.34796875 -33 27 C-27.48956689 14.90328732 -11.68068043 5.44083812 0 0 Z " fill="#D9D8D1" transform="translate(219,147)"/>
<path d="M0 0 C4.043349 1.347783 4.51615837 3.154571 6.625 6.8125 C25.38938224 38.38563167 55.3963517 62.74130845 90 75 C90 75.66 90 76.32 90 77 C83.28034274 76.56025205 78.38281928 74.64823581 72.4375 71.5625 C71.12857788 70.89359741 71.12857788 70.89359741 69.79321289 70.21118164 C57.49922824 63.80265108 46.49080258 56.06023859 36 47 C35.19820312 46.32066406 34.39640625 45.64132812 33.5703125 44.94140625 C28.57946197 40.63112625 24.20594268 36.07080102 20 31 C19.30132812 30.18917969 18.60265625 29.37835938 17.8828125 28.54296875 C13.58984122 23.47013244 9.68341832 18.25235736 6.0625 12.6875 C5.68496582 12.11306152 5.30743164 11.53862305 4.91845703 10.94677734 C2.67414117 7.41502447 1.16052598 4.01627053 0 0 Z " fill="#CECDC7" transform="translate(127,330)"/>
<path d="M0 0 C3.00952372 4.01269829 3.36954614 4.49712049 3.40625 9.0859375 C3.42582764 10.08794189 3.44540527 11.08994629 3.46557617 12.12231445 C3.48261597 13.7323938 3.48261597 13.7323938 3.5 15.375 C4.17658885 40.45594904 8.70863545 62.70986212 19.36328125 85.47265625 C21 89 21 89 22 92 C21.01 92.33 20.02 92.66 19 93 C11.34742662 76.62664506 5.0372844 60.93896101 2 43 C1.79375 41.81277344 1.5875 40.62554687 1.375 39.40234375 C0.08693989 31.32513348 0 24.4478744 0 16 C-11.22 16 -22.44 16 -34 16 C-34 19.96 -34 23.92 -34 28 C-34.33 28 -34.66 28 -35 28 C-35 19.09 -35 10.18 -35 1 C-34.67 1 -34.34 1 -34 1 C-34 5.62 -34 10.24 -34 15 C-22.78 15 -11.56 15 0 15 C0 10.05 0 5.1 0 0 Z " fill="#CAC9C3" transform="translate(107,238)"/>
<path d="M0 0 C0 3.95946586 -1.34708557 4.99260567 -3.8125 8.0625 C-26.20811102 37.05167415 -36.53936206 70.76922761 -39 107 C-39.33 107 -39.66 107 -40 107 C-40.35521456 94.27805619 -39.85430481 82.41942447 -37 70 C-36.56494141 68.08767578 -36.56494141 68.08767578 -36.12109375 66.13671875 C-30.86275056 44.94933595 -18.90293128 12.60195419 0 0 Z " fill="#CBCAC4" transform="translate(148,146)"/>
<path d="M0 0 C1.4296859 0.00503411 2.85937355 0.00959357 4.2890625 0.01367188 C7.73441245 0.02450535 11.17969427 0.04166016 14.625 0.0625 C14.625 0.3925 14.625 0.7225 14.625 1.0625 C9.015 1.0625 3.405 1.0625 -2.375 1.0625 C-2.375 1.7225 -2.375 2.3825 -2.375 3.0625 C-3.55751343 3.12195801 -3.55751343 3.12195801 -4.76391602 3.18261719 C-21.8693019 4.08113706 -38.57568561 5.52955524 -55.375 9.0625 C-56.18308105 9.23040039 -56.99116211 9.39830078 -57.82373047 9.57128906 C-65.88282195 11.27548759 -73.6950689 13.2811533 -81.37109375 16.328125 C-83.375 17.0625 -83.375 17.0625 -85.375 17.0625 C-85.375 16.4025 -85.375 15.7425 -85.375 15.0625 C-86.035 14.7325 -86.695 14.4025 -87.375 14.0625 C-71.69905533 8.78478224 -55.70332125 4.95979178 -39.375 2.3125 C-38.67141357 2.19696777 -37.96782715 2.08143555 -37.24291992 1.96240234 C-24.8808331 0.08422016 -12.47070181 -0.0777951 0 0 Z " fill="#C6C5BF" transform="translate(273.375,-0.0625)"/>
<path d="M0 0 C1.11188136 1.74895933 2.13806454 3.5526122 3.125 5.375 C6.56115967 11.44007184 10.4879474 16.70403524 15 22 C15.60714844 22.71800781 16.21429688 23.43601562 16.83984375 24.17578125 C18.21666749 25.7923343 19.60666087 27.39766 21 29 C15.92877797 27.57663553 12.05487364 25.36232911 7.75 22.4375 C6.77244751 21.77802368 6.77244751 21.77802368 5.77514648 21.10522461 C0.16363474 17.24648953 -5.51368778 13.16189806 -10 8 C-10 7.01 -10 6.02 -10 5 C-8.3203125 3.61328125 -8.3203125 3.61328125 -6.125 2.3125 C-5.40570313 1.87550781 -4.68640625 1.43851562 -3.9453125 0.98828125 C-2 0 -2 0 0 0 Z " fill="#D5D5CE" transform="translate(201,328)"/>
<path d="M0 0 C1.27450447 0.59638333 2.54446877 1.20247416 3.8125 1.8125 C4.52019531 2.14894531 5.22789062 2.48539062 5.95703125 2.83203125 C8.01129035 4.00645471 9.41616278 5.25628016 11 7 C3.33197891 14.46955466 -4.98454794 20.2956388 -14 26 C-14.93199219 26.61101562 -15.86398437 27.22203125 -16.82421875 27.8515625 C-17.54222656 28.23054688 -18.26023437 28.60953125 -19 29 C-19.66 28.67 -20.32 28.34 -21 28 C-20.38253906 27.36835938 -19.76507813 26.73671875 -19.12890625 26.0859375 C-12.35892804 18.9346972 -7.12196957 11.38943292 -2 3 C-1.34 2.01 -0.68 1.02 0 0 Z " fill="#D8D7D0" transform="translate(342,328)"/>
<path d="M0 0 C0.33 0 0.66 0 1 0 C1 9.9 1 19.8 1 30 C21.68939842 29.44457991 42.5109165 27.82125401 62.375 21.63671875 C65 21 65 21 68 22 C68 22.66 68 23.32 68 24 C45.57435616 29.61808056 24.15887281 33.26450489 1 33 C1 36.96 1 40.92 1 45 C0.67 45 0.34 45 0 45 C0 30.15 0 15.3 0 0 Z " fill="#B0AFAA" transform="translate(270,455)"/>
<path d="M0 0 C0.33 0 0.66 0 1 0 C1 9.24 1 18.48 1 28 C4.3 28 7.6 28 11 28 C11 28.33 11 28.66 11 29 C4.73 29 -1.54 29 -8 29 C-8 29.66 -8 30.32 -8 31 C-23.83088984 32.33468861 -40.31198621 27.50518489 -55 22 C-54.34 21.34 -53.68 20.68 -53 20 C-50.8203125 20.13671875 -50.8203125 20.13671875 -48.125 20.6875 C-47.13757813 20.88730469 -46.15015625 21.08710938 -45.1328125 21.29296875 C-42.07512555 21.98304523 -39.03763176 22.72671254 -36 23.5 C-23.9004633 26.55965296 -12.46075222 27.46975522 0 28 C0 18.76 0 9.52 0 0 Z " fill="#CECDC7" transform="translate(270,386)"/>
<path d="M0 0 C-1 3 -1 3 -4.26171875 4.6484375 C-5.73008395 5.24132971 -7.20609807 5.81547713 -8.6875 6.375 C-9.48551025 6.67881592 -10.28352051 6.98263184 -11.10571289 7.2956543 C-26.91269693 13.0761723 -43.27998264 15.70641898 -60 17 C-60 16.34 -60 15.68 -60 15 C-62.64 15 -65.28 15 -68 15 C-68 14.67 -68 14.34 -68 14 C-67.12601562 13.93268677 -67.12601562 13.93268677 -66.234375 13.86401367 C-47.11968527 12.35565126 -30.21799834 9.36145563 -12.05004883 3.04858398 C-10.36045044 2.46185913 -10.36045044 2.46185913 -8.63671875 1.86328125 C-7.62311279 1.50532471 -6.60950684 1.14736816 -5.56518555 0.77856445 C-3 0 -3 0 0 0 Z " fill="#C3C2BC" transform="translate(347,437)"/>
<path d="M0 0 C0.66 0.33 1.32 0.66 2 1 C1.32674897 4.02274214 0.337745 6.72992518 -0.890625 9.5703125 C-8.38231035 27.1756132 -13.2493077 44.08060419 -16 63 C-17.5625 62 -17.5625 62 -19 60 C-18.85821871 57.17978521 -18.55070454 54.74589031 -18 52 C-17.85143555 51.2373584 -17.70287109 50.4747168 -17.54980469 49.68896484 C-13.95283684 32.28233641 -8.52101507 15.63746722 0 0 Z " fill="#C9C8C2" transform="translate(91,163)"/>
<path d="M0 0 C0 0.33 0 0.66 0 1 C-4.455 1.495 -4.455 1.495 -9 2 C-9 2.33 -9 2.66 -9 3 C-9.55647217 3.0093457 -10.11294434 3.01869141 -10.6862793 3.02832031 C-28.99843828 3.41025267 -46.3434863 6.17461737 -64 11 C-64.33 10.01 -64.66 9.02 -65 8 C-43.1279471 1.31687273 -22.87248716 -0.50385619 0 0 Z " fill="#CFCEC8" transform="translate(284,89)"/>
<path d="M0 0 C1.06734375 0.25394531 2.1346875 0.50789063 3.234375 0.76953125 C18.30068887 4.27821863 33.54583039 6.97208505 49 8 C49 8.99 49 9.98 49 11 C32.02341735 12.04292999 15.09544118 8.16372516 -1 3 C-0.67 2.01 -0.34 1.02 0 0 Z " fill="#C9C9C3" transform="translate(216,424)"/>
<path d="M0 0 C17.76422332 -0.56287146 38.67539731 8.49671436 54 17 C53.67 17.66 53.34 18.32 53 19 C47.60801257 17.29726713 42.4091662 15.35939391 37.1875 13.1875 C29.52677418 10.03669366 21.67757918 7.69277781 13.7265625 5.39453125 C9.10720533 4.05593481 4.55033203 2.55561665 0 1 C0 0.67 0 0.34 0 0 Z " fill="#CBCAC4" transform="translate(306,56)"/>
<path d="M0 0 C0.66 0.33 1.32 0.66 2 1 C2 1.66 2 2.32 2 3 C-8.40934068 7.09122563 -18.82774941 11.07929848 -29.5 14.4375 C-30.28157471 14.68387207 -31.06314941 14.93024414 -31.8684082 15.18408203 C-37.99307142 17.07489962 -43.34994896 18.12777829 -49.8125 18.0625 C-50.97394531 18.05347656 -52.13539063 18.04445313 -53.33203125 18.03515625 C-54.21246094 18.02355469 -55.09289062 18.01195312 -56 18 C-56 17.67 -56 17.34 -56 17 C-55.16339844 16.82984375 -54.32679688 16.6596875 -53.46484375 16.484375 C-36.57807326 12.96863541 -19.21487407 8.86410548 -3.5 1.5625 C-1.7675 0.7890625 -1.7675 0.7890625 0 0 Z " fill="#C6C5BF" transform="translate(371,482)"/>
<path d="M0 0 C0.66 0 1.32 0 2 0 C1.67950644 5.87571532 0.42048959 11.04151335 -1.375 16.625 C-4.71938099 27.17563939 -5.83228132 38.03100624 -7 49 C-8.485 49.495 -8.485 49.495 -10 50 C-9.84806878 40.48358096 -8.70098574 31.48709322 -6.6875 22.1875 C-6.48680908 21.24640381 -6.28611816 20.30530762 -6.0793457 19.33569336 C-4.57627762 12.67409097 -2.46769043 6.364125 0 0 Z " fill="#C6C6C0" transform="translate(99,191)"/>
<path d="M0 0 C-0.33 0.99 -0.66 1.98 -1 3 C-1.8765625 3.12375 -2.753125 3.2475 -3.65625 3.375 C-15.7079008 5.33461802 -26.91776425 9.13395684 -38.43017578 13.13330078 C-41.59543797 14.20081748 -44.77614205 15.1273428 -48 16 C-48 15.01 -48 14.02 -48 13 C-14.50207403 -0.42653159 -14.50207403 -0.42653159 0 0 Z " fill="#CDCCC6" transform="translate(243,73)"/>
<path d="M0 0 C-0.50695416 4.09250269 -2.49599385 5.64698104 -5.5625 8.25 C-6.47257812 9.04535156 -7.38265625 9.84070313 -8.3203125 10.66015625 C-9.20460937 11.43230469 -10.08890625 12.20445313 -11 13 C-19.03112415 20.31351419 -25.97930422 28.96895632 -32 38 C-32.99 38 -33.98 38 -35 38 C-32.10472042 29.61419024 -10.11979278 0 0 0 Z " fill="#D0D0C9" transform="translate(156,112)"/>
<path d="M0 0 C0 0.66 0 1.32 0 2 C-10.60558922 7.36693805 -21.20857218 12.36385749 -32.5 16.125 C-33.8152063 16.56694702 -33.8152063 16.56694702 -35.15698242 17.01782227 C-39.18874892 18.31238283 -42.70958725 19.40442415 -47 19 C-46.505 17.515 -46.505 17.515 -46 16 C-43.12044937 14.92243231 -40.32502546 14.02324139 -37.375 13.1875 C-27.03573322 10.09536462 -16.90745425 6.63413053 -7.3125 1.625 C-4 0 -4 0 0 0 Z " fill="#C6C6C0" transform="translate(358,411)"/>
<path d="M0 0 C0.66 0 1.32 0 2 0 C2.58333333 1.89583333 3.16666667 3.79166667 3.75 5.6875 C4.12125 6.88503906 4.4925 8.08257812 4.875 9.31640625 C5.56263162 11.56792229 6.23355384 13.82473701 6.875 16.08984375 C9.12150271 23.88240001 12.09352128 31.2296983 15.35839844 38.64111328 C15.6990332 39.42212402 16.03966797 40.20313477 16.390625 41.0078125 C16.8551709 42.05412842 16.8551709 42.05412842 17.32910156 43.12158203 C18 45 18 45 18 48 C15 47 15 47 14.00439453 45.36450195 C13.71677246 44.66284912 13.42915039 43.96119629 13.1328125 43.23828125 C12.80684082 42.45565918 12.48086914 41.67303711 12.14501953 40.86669922 C11.80841309 40.02381348 11.47180664 39.18092773 11.125 38.3125 C10.5988208 37.02496826 10.5988208 37.02496826 10.06201172 35.71142578 C-0.60513056 9.37952375 -0.60513056 9.37952375 0 0 Z " fill="#C9C9C3" transform="translate(92,287)"/>
<path d="M0 0 C18.40892196 -0.8828242 35.79158279 1.12872334 53 8 C53 8.99 53 9.98 53 11 C52.36835938 10.81824219 51.73671875 10.63648437 51.0859375 10.44921875 C38.17666369 6.82197323 25.49313352 4.53677688 12.17504883 3.08984375 C10.67687622 2.9196875 10.67687622 2.9196875 9.1484375 2.74609375 C7.80531494 2.60192017 7.80531494 2.60192017 6.43505859 2.45483398 C3.97108225 1.99459858 2.16946772 1.23243693 0 0 Z " fill="#CECDC7" transform="translate(271,90)"/>
<path d="M0 0 C0.66 0 1.32 0 2 0 C3.33984375 1.3984375 3.33984375 1.3984375 4.9375 3.375 C12.76626015 12.52194974 21.98077073 19.68081717 31.71484375 26.65234375 C32.28444824 27.06081543 32.85405273 27.46928711 33.44091797 27.89013672 C34.7671221 28.83422128 36.10325417 29.76433449 37.44140625 30.69140625 C38.21291016 31.33916016 38.21291016 31.33916016 39 32 C39 32.66 39 33.32 39 34 C29.30298669 32.19692723 20.82119376 22.6187163 13.53955078 16.31689453 C11.98368795 14.98604707 10.40439606 13.68767635 8.8203125 12.390625 C6.55451541 10.47003246 4.55887377 8.61583786 2.625 6.375 C2.12226563 5.80523437 1.61953125 5.23546875 1.1015625 4.6484375 C0 3 0 3 0 0 Z " fill="#CCCBC5" transform="translate(135,372)"/>
<path d="M0 0 C0.33 0 0.66 0 1 0 C1.33 3.3 1.66 6.6 2 10 C2.33 10 2.66 10 3 10 C3 11.65 3 13.3 3 15 C19.17 15 35.34 15 52 15 C52 15.33 52 15.66 52 16 C35.17 16 18.34 16 1 16 C1 20.95 1 25.9 1 31 C0.67 31 0.34 31 0 31 C0 26.05 0 21.1 0 16 C-5.94 16 -11.88 16 -18 16 C-18 15.34 -18 14.68 -18 14 C-12.06 14 -6.12 14 0 14 C0 9.38 0 4.76 0 0 Z " fill="#7D7D7B" transform="translate(18,238)"/>
<path d="M0 0 C0.99 0.495 0.99 0.495 2 1 C4.35970765 10.12863428 4.30731722 19.63818687 4.25 29 C4.25773437 30.26328125 4.26546875 31.5265625 4.2734375 32.828125 C4.25650007 41.05971568 3.49785991 48.9067797 2 57 C1.34 57 0.68 57 0 57 C0.0721875 56.1234375 0.144375 55.246875 0.21875 54.34375 C1.54371373 36.23591235 1.37713571 18.09949787 0 0 Z " fill="#D6D5CE" transform="translate(430,225)"/>
<path d="M0 0 C16.75663715 -0.43027973 33.67094922 -0.28072205 50 4 C50 4.66 50 5.32 50 6 C45.38054052 6.17767152 41.23162322 5.92530821 36.6875 5.0625 C29.24334342 3.77929956 21.78219761 3.31945771 14.25 2.875 C12.85933956 2.78832719 11.46871413 2.70109075 10.078125 2.61328125 C6.71905015 2.40333907 3.35973636 2.19902438 0 2 C0 1.34 0 0.68 0 0 Z " fill="#D3D2CC" transform="translate(271,1)"/>
<path d="M0 0 C0.66 0 1.32 0 2 0 C2.0501123 0.81041748 2.10022461 1.62083496 2.15185547 2.45581055 C2.34476977 5.52953465 2.54302386 8.60285999 2.74462891 11.67602539 C2.8714918 13.63337248 2.9924704 15.59109817 3.11328125 17.54882812 C3.59759547 24.8694239 4.35377708 32.04015845 5.58984375 39.2734375 C6.08742077 42.58113996 6.15510977 45.66513984 6 49 C5.34 49 4.68 49 4 49 C0.64999237 32.51947711 -0.55730624 16.80492674 0 0 Z " fill="#CFCEC8" transform="translate(19,254)"/>
<path d="M0 0 C0 0.33 0 0.66 0 1 C-5.61 1 -11.22 1 -17 1 C-17 1.66 -17 2.32 -17 3 C-21.50104773 3.36009903 -26.00300086 3.6993252 -30.50708008 4.01928711 C-32.03908459 4.13106844 -33.57068453 4.2485461 -35.10180664 4.37182617 C-37.30273233 4.54804291 -39.50429975 4.70372688 -41.70703125 4.85546875 C-42.73374687 4.94431587 -42.73374687 4.94431587 -43.78120422 5.03495789 C-48.55999359 5.33542868 -48.55999359 5.33542868 -50.95581055 3.5090332 C-51.30039307 3.01105225 -51.64497559 2.51307129 -52 2 C-34.62965566 -0.16887243 -17.47144726 -0.22070626 0 0 Z " fill="#B4B3AE" transform="translate(288,0)"/>
<path d="M0 0 C3.375 4.5 3.375 4.5 3.29296875 8.765625 C3.2784668 10.09980469 3.2784668 10.09980469 3.26367188 11.4609375 C3.23853516 12.38132813 3.21339844 13.30171875 3.1875 14.25 C3.16719727 15.65378906 3.16719727 15.65378906 3.14648438 17.0859375 C3.11119954 19.39121327 3.06190281 21.6953106 3 24 C2.67 24 2.34 24 2 24 C1.505 26.475 1.505 26.475 1 29 C0.67 29 0.34 29 0 29 C0 24.71 0 20.42 0 16 C-11.22 16 -22.44 16 -34 16 C-34 19.96 -34 23.92 -34 28 C-34.33 28 -34.66 28 -35 28 C-35 19.09 -35 10.18 -35 1 C-34.67 1 -34.34 1 -34 1 C-34 5.62 -34 10.24 -34 15 C-22.78 15 -11.56 15 0 15 C0 10.05 0 5.1 0 0 Z " fill="#92928E" transform="translate(107,238)"/>
<path d="M0 0 C0.99 0.33 1.98 0.66 3 1 C5.39227481 13.3244872 5.21003783 25.49790204 5 38 C4.01 37.67 3.02 37.34 2 37 C1.96241577 36.06486572 1.96241577 36.06486572 1.92407227 35.11083984 C1.44796229 23.39270443 0.95228669 11.69083871 0 0 Z " fill="#BEBDB8" transform="translate(411,222)"/>
<path d="M0 0 C12.20545439 -0.22510059 23.92421981 0.11105114 36 2 C36.495 3.485 36.495 3.485 37 5 C30.6121147 5.12525265 30.6121147 5.12525265 27.6340332 4.51586914 C24.74032771 3.9491438 21.98917464 3.78935499 19.04296875 3.68359375 C17.93115234 3.64169922 16.81933594 3.59980469 15.67382812 3.55664062 C14.52333984 3.51732422 13.37285156 3.47800781 12.1875 3.4375 C11.01767578 3.39431641 9.84785156 3.35113281 8.64257812 3.30664062 C5.76182969 3.20081721 2.88099877 3.09873175 0 3 C0 2.01 0 1.02 0 0 Z " fill="#C3C2BD" transform="translate(263,107)"/>
<path d="M0 0 C1.63582031 0.39832031 1.63582031 0.39832031 3.3046875 0.8046875 C14.16689318 3.37392819 24.8868721 5.00165754 36 6 C36 6.99 36 7.98 36 9 C28.27169309 9.31308706 21.19222084 8.13335981 13.625 6.625 C12.45066406 6.40328125 11.27632812 6.1815625 10.06640625 5.953125 C1.38932503 4.25955002 1.38932503 4.25955002 -2 2 C-1.34 2 -0.68 2 0 2 C0 1.34 0 0.68 0 0 Z " fill="#C7C6C0" transform="translate(220,445)"/>
<path d="M0 0 C0.99 0.33 1.98 0.66 3 1 C1.38210745 7.58188106 -0.29635351 14.14382802 -2.0625 20.6875 C-3.5165949 26.10274996 -4.84498554 31.5136813 -6 37 C-6.99 36.67 -7.98 36.34 -9 36 C-8.36677364 28.79705016 -6.50153976 22.12054434 -4.5 15.1875 C-4.01853516 13.49077148 -4.01853516 13.49077148 -3.52734375 11.75976562 C-1.22955995 3.68867985 -1.22955995 3.68867985 0 0 Z " fill="#C7C7C1" transform="translate(32,168)"/>
<path d="M0 0 C3.72967925 0.83500282 7.26920124 2.11716322 10.875 3.375 C17.31411579 5.59785735 23.64569853 7.06872212 30.3671875 8.2265625 C31.23601562 8.48179687 32.10484375 8.73703125 33 9 C33.495 10.485 33.495 10.485 34 12 C21.91571855 10.97590835 11.03606333 8.03085409 0 3 C0 2.01 0 1.02 0 0 Z " fill="#C9C9C2" transform="translate(213,384)"/>
<path d="M0 0 C-0.33 0.99 -0.66 1.98 -1 3 C-12.19669952 7.20624675 -25.06938395 9.4678673 -37 9 C-36.67 8.01 -36.34 7.02 -36 6 C-35.24380371 5.88930176 -34.48760742 5.77860352 -33.70849609 5.66455078 C-30.26314587 5.15696507 -26.81908998 4.64106449 -23.375 4.125 C-22.18519531 3.95097656 -20.99539063 3.77695312 -19.76953125 3.59765625 C-18.61582031 3.42363281 -17.46210938 3.24960937 -16.2734375 3.0703125 C-14.68668213 2.83465576 -14.68668213 2.83465576 -13.06787109 2.59423828 C-9.95020627 2.06228371 -9.95020627 2.06228371 -6.85791016 0.93310547 C-4 0 -4 0 0 0 Z " fill="#C4C4BE" transform="translate(317,389)"/>
<path d="M0 0 C0.66 0 1.32 0 2 0 C1.38377365 12.32452706 -4.6097929 23.61792549 -11 34 C-11.99 34.495 -11.99 34.495 -13 35 C-12.4405073 30.17069459 -10.90483031 26.30000279 -8.75 22 C-5.26869755 14.8293276 -2.52712529 7.5580844 0 0 Z " fill="#C7C6C0" transform="translate(408,292)"/>
<path d="M0 0 C0.66 0 1.32 0 2 0 C1.55831226 4.30645551 -1.18623418 6.4673071 -4.25 9.1875 C-5.04168579 9.90063354 -5.04168579 9.90063354 -5.84936523 10.62817383 C-21.0165757 24 -21.0165757 24 -27 24 C-27 23.34 -27 22.68 -27 22 C-24.94613935 20.44745149 -22.88421984 18.99704834 -20.75 17.5625 C-13.2103247 12.35821662 -6.47549907 6.47549907 0 0 Z " fill="#CECDC7" transform="translate(373,352)"/>
<path d="M0 0 C0.99 0 1.98 0 3 0 C1.45462103 3.64507865 -0.77091785 6.03364548 -3.5 8.875 C-8.09568393 13.81135236 -12.00763988 18.98999025 -15.77539062 24.57958984 C-16.80509771 26.08496767 -17.8972206 27.54730022 -19 29 C-19.66 29 -20.32 29 -21 29 C-16.83987607 17.98902977 -8.26393429 8.26393429 0 0 Z " fill="#CCCCC6" transform="translate(168,149)"/>
<path d="M0 0 C0.99 0 1.98 0 3 0 C4.34692383 1.38598633 4.34692383 1.38598633 5.70703125 3.33203125 C6.20879883 4.04335205 6.71056641 4.75467285 7.22753906 5.48754883 C7.75057617 6.25478271 8.27361328 7.0220166 8.8125 7.8125 C9.34713867 8.58553467 9.88177734 9.35856934 10.43261719 10.1550293 C21 25.61811764 21 25.61811764 21 32 C20.34 32 19.68 32 19 32 C18.38253906 30.83984375 17.76507813 29.6796875 17.12890625 28.484375 C12.48602487 19.88111765 7.74303958 11.8183192 1.6171875 4.1875 C0 2 0 2 0 0 Z " fill="#CAC9C3" transform="translate(381,160)"/>
<path d="M0 0 C-1 3 -1 3 -2.85083008 3.97973633 C-3.64900146 4.26099365 -4.44717285 4.54225098 -5.26953125 4.83203125 C-6.15358643 5.15300781 -7.0376416 5.47398438 -7.94848633 5.8046875 C-8.89361084 6.13726562 -9.83873535 6.46984375 -10.8125 6.8125 C-18.85193202 9.74410344 -26.48014861 12.88977067 -34 17 C-34.33 16.01 -34.66 15.02 -35 14 C-31.35851293 12.22012892 -27.7110727 10.45279478 -24.0625 8.6875 C-23.04091797 8.18798828 -22.01933594 7.68847656 -20.96679688 7.17382812 C-6.09654387 0 -6.09654387 0 0 0 Z " fill="#C5C4BF" transform="translate(231,113)"/>
<path d="M0 0 C3.02857987 0.59460791 6.00204129 1.27173059 9 2 C10.14098145 2.27231445 11.28196289 2.54462891 12.45751953 2.82519531 C16.3275079 3.7516638 20.1952482 4.68719736 24.0625 5.625 C25.41860128 5.95320148 26.77472094 6.28132706 28.13085938 6.609375 C31.42075381 7.40550604 34.71046125 8.20240082 38 9 C38 9.33 38 9.66 38 10 C28.83510368 11.12771185 21.06202599 9.20423861 12.3125 6.625 C11.23677734 6.30845459 10.16105469 5.99190918 9.05273438 5.66577148 C1.28511138 3.28511138 1.28511138 3.28511138 -1 1 C-0.67 0.67 -0.34 0.34 0 0 Z " fill="#CAC9C3" transform="translate(187,490)"/>
<path d="M0 0 C7.19459857 -0.21120322 14.02087575 0.39247501 21.125 1.5 C22.08148438 1.64308594 23.03796875 1.78617188 24.0234375 1.93359375 C26.35002216 2.28258145 28.67539156 2.63812333 31 3 C30.67 3.99 30.34 4.98 30 6 C28.39511719 5.80083984 28.39511719 5.80083984 26.7578125 5.59765625 C12.86207545 3.96322714 -1.02005581 3.40265382 -15 3 C-15 2.67 -15 2.34 -15 2 C-10.05 1.67 -5.1 1.34 0 1 C0 0.67 0 0.34 0 0 Z " fill="#B6B6B1" transform="translate(277,52)"/>
<path d="M0 0 C4.84161267 0.58884478 8.46933633 2.67328994 12.625 5.0625 C13.32560547 5.46227051 14.02621094 5.86204102 14.74804688 6.27392578 C27.16861957 13.47569883 27.16861957 13.47569883 32 18 C32 18.99 32 19.98 32 21 C27.882359 19.58781265 25.00645828 17.59342725 21.625 14.875 C14.85921375 9.6699001 7.61345386 5.81712783 0 2 C0 1.34 0 0.68 0 0 Z " fill="#CACAC3" transform="translate(331,121)"/>
<path d="M0 0 C11.15255987 -0.32748137 21.94157511 0.67959106 33 2 C32.67 2.99 32.34 3.98 32 5 C21.44 4.34 10.88 3.68 0 3 C0 2.01 0 1.02 0 0 Z " fill="#C1C0BB" transform="translate(271,18)"/>
<path d="M0 0 C0.33 0 0.66 0 1 0 C1.02735618 1.70824133 1.04655506 3.41661405 1.0625 5.125 C1.07410156 6.07632813 1.08570312 7.02765625 1.09765625 8.0078125 C1 11 1 11 0.51367188 13.82226562 C0.02298125 16.85783084 -0.20085417 19.76555372 -0.31640625 22.8359375 C-0.35830078 23.89941406 -0.40019531 24.96289062 -0.44335938 26.05859375 C-0.48267578 27.15300781 -0.52199219 28.24742187 -0.5625 29.375 C-0.60568359 30.49261719 -0.64886719 31.61023438 -0.69335938 32.76171875 C-0.79897411 35.50770199 -0.9010797 38.25376881 -1 41 C-1.66 41 -2.32 41 -3 41 C-3.05012431 37.07141081 -3.08605502 33.14295016 -3.10986328 29.21411133 C-3.12464917 27.23447104 -3.15008592 25.25491937 -3.17578125 23.27539062 C-3.21420011 15.68766484 -2.9846237 8.36611251 -1 1 C-0.67 0.67 -0.34 0.34 0 0 Z " fill="#D4D4CD" transform="translate(73,222)"/>
<path d="M0 0 C0.33 0 0.66 0 1 0 C1.50607518 10.82438583 0.44642319 19.60811329 -3 30 C-3.7134818 32.65791573 -4.35772499 35.32385414 -5 38 C-5.99 37.34 -6.98 36.68 -8 36 C-7.75765625 35.07703125 -7.5153125 34.1540625 -7.265625 33.203125 C-4.42648663 22.21217486 -2.14678224 11.14499717 0 0 Z " fill="#C3C2BC" transform="translate(499,290)"/>
<path d="M0 0 C1.12749469 3.42127632 0.87141972 5.94693926 0.2578125 9.47265625 C0.07863281 10.53806641 -0.10054688 11.60347656 -0.28515625 12.70117188 C-0.47980469 13.81041016 -0.67445312 14.91964844 -0.875 16.0625 C-2.25191427 24.03435881 -3.40420454 31.92848631 -4 40 C-4.33 40 -4.66 40 -5 40 C-5.27833585 30.03145313 -5.39566537 20.28378397 -3.625 10.4375 C-3.49891357 9.73052979 -3.37282715 9.02355957 -3.24291992 8.29516602 C-2.58642714 4.9627382 -1.91046481 2.86569722 0 0 Z " fill="#D6D5CF" transform="translate(113,213)"/>
<path d="M0 0 C-0.48737756 4.1952696 -2.71063641 5.87845698 -5.8125 8.5625 C-6.68519531 9.32691406 -7.55789062 10.09132813 -8.45703125 10.87890625 C-12.46254746 14.21991286 -16.64492327 17.12960852 -21 20 C-19.36879787 15.836932 -16.32183098 13.06232095 -13.1875 10 C-12.66607422 9.47921875 -12.14464844 8.9584375 -11.60742188 8.421875 C-3.08984375 0 -3.08984375 0 0 0 Z " fill="#C8C7C1" transform="translate(156,112)"/>
<path d="M0 0 C1.20849609 0.00322266 2.41699219 0.00644531 3.66210938 0.00976562 C4.92474609 0.01814453 6.18738281 0.02652344 7.48828125 0.03515625 C9.39963867 0.04192383 9.39963867 0.04192383 11.34960938 0.04882812 C14.50004689 0.06062752 17.65039074 0.07709028 20.80078125 0.09765625 C20.80078125 0.42765625 20.80078125 0.75765625 20.80078125 1.09765625 C16.34578125 1.59265625 16.34578125 1.59265625 11.80078125 2.09765625 C11.80078125 2.42765625 11.80078125 2.75765625 11.80078125 3.09765625 C4.21078125 3.09765625 -3.37921875 3.09765625 -11.19921875 3.09765625 C-7.78810334 -0.31345916 -4.59960143 -0.02159437 0 0 Z " fill="#B4B4AF" transform="translate(263.19921875,88.90234375)"/>
<path d="M0 0 C0.33 0 0.66 0 1 0 C1 9.24 1 18.48 1 28 C4.3 28 7.6 28 11 28 C11 28.33 11 28.66 11 29 C4.73 29 -1.54 29 -8 29 C-8 29.66 -8 30.32 -8 31 C-11.63 31 -15.26 31 -19 31 C-19 30.67 -19 30.34 -19 30 C-16.69 30 -14.38 30 -12 30 C-12 29.34 -12 28.68 -12 28 C-8.04 28 -4.08 28 0 28 C0 18.76 0 9.52 0 0 Z " fill="#90918D" transform="translate(270,386)"/>
<path d="M0 0 C10.23 0 20.46 0 31 0 C31 0.66 31 1.32 31 2 C20.51052868 2.82544266 10.49411854 3.08101063 0 2 C0 1.34 0 0.68 0 0 Z " fill="#DFDED7" transform="translate(256,452)"/>
<path d="M0 0 C0.83714909 3.29070841 1.66906896 6.58271647 2.5 9.875 C2.73847656 10.81214844 2.97695313 11.74929688 3.22265625 12.71484375 C3.44824219 13.61074219 3.67382812 14.50664062 3.90625 15.4296875 C4.11572266 16.25710449 4.32519531 17.08452148 4.54101562 17.93701172 C5 20 5 20 5 22 C4.34 22 3.68 22 3 22 C2.67 22.66 2.34 23.32 2 24 C1.16301505 20.54253984 0.33103324 17.08389511 -0.5 13.625 C-0.73847656 12.64015625 -0.97695313 11.6553125 -1.22265625 10.640625 C-1.44824219 9.69960938 -1.67382812 8.75859375 -1.90625 7.7890625 C-2.11572266 6.91975098 -2.32519531 6.05043945 -2.54101562 5.15478516 C-3 3 -3 3 -3 1 C-1 0 -1 0 0 0 Z " fill="#C0C0BA" transform="translate(26,302)"/>
<path d="M0 0 C0.66 0.33 1.32 0.66 2 1 C0.52761526 4.53529812 -1.41000759 6.47404006 -4.3125 8.9375 C-6.95859979 11.21348616 -9.53128738 13.47131548 -11.9375 16 C-14 18 -14 18 -16 18 C-14.6415798 14.95667235 -13.11536976 12.87690849 -10.7421875 10.546875 C-10.11699219 9.928125 -9.49179688 9.309375 -8.84765625 8.671875 C-8.19667969 8.03765625 -7.54570312 7.4034375 -6.875 6.75 C-6.21628906 6.1003125 -5.55757812 5.450625 -4.87890625 4.78125 C-3.25703357 3.18288273 -1.6306719 1.58938103 0 0 Z " fill="#C4C3BD" transform="translate(163,129)"/>
<path d="M0 0 C1.28003906 -0.00193359 1.28003906 -0.00193359 2.5859375 -0.00390625 C3.91238281 0.00189453 3.91238281 0.00189453 5.265625 0.0078125 C6.13445312 0.00394531 7.00328125 0.00007813 7.8984375 -0.00390625 C13.19458748 0.00404593 18.27506017 0.36500882 23.515625 1.1328125 C23.515625 1.4628125 23.515625 1.7928125 23.515625 2.1328125 C7.180625 2.6278125 7.180625 2.6278125 -9.484375 3.1328125 C-8.484375 1.1328125 -8.484375 1.1328125 -6.70214844 0.51611328 C-4.42265799 0.12214587 -2.31249734 0.00340502 0 0 Z " fill="#D3D2CC" transform="translate(261.484375,51.8671875)"/>
<path d="M0 0 C0.66 0 1.32 0 2 0 C3.19921875 1.22265625 3.19921875 1.22265625 4.6875 3.0625 C10.22153466 9.59737071 16.42321752 15.50661864 22.50708008 21.52294922 C23.67493521 22.67839052 24.83833521 23.83833521 26 25 C23 25 23 25 21.20996094 23.51879883 C20.55801758 22.83841553 19.90607422 22.15803223 19.234375 21.45703125 C18.50863281 20.71259766 17.78289062 19.96816406 17.03515625 19.20117188 C16.28105469 18.41291016 15.52695312 17.62464844 14.75 16.8125 C9.77742191 11.63598546 5.00413257 6.96304517 -1 3 C-0.67 2.01 -0.34 1.02 0 0 Z " fill="#C8C7C1" transform="translate(384,369)"/>
<path d="M0 0 C0.99 0 1.98 0 3 0 C6.33530434 8.43752585 6.32177688 16.06175331 6 25 C5.67 25 5.34 25 5 25 C3.35 16.75 1.7 8.5 0 0 Z " fill="#C1C0BB" transform="translate(494,191)"/>
<path d="M0 0 C0 0.66 0 1.32 0 2 C0.66 2.33 1.32 2.66 2 3 C-0.06152389 3.64894237 -2.12426258 4.2940264 -4.1875 4.9375 C-5.33605469 5.29714844 -6.48460937 5.65679688 -7.66796875 6.02734375 C-10.44353006 6.83756036 -13.15687548 7.49134307 -16 8 C-16 7.34 -16 6.68 -16 6 C-16.66 5.67 -17.32 5.34 -18 5 C-15.37605694 4.16320723 -12.75095616 3.33043058 -10.125 2.5 C-9.00544922 2.14228516 -9.00544922 2.14228516 -7.86328125 1.77734375 C-2.2265625 0 -2.2265625 0 0 0 Z " fill="#B8B7B2" transform="translate(204,9)"/>
<path d="M0 0 C2.45906037 0.47565766 4.91720993 0.95536052 7.375 1.4375 C8.07367188 1.57220703 8.77234375 1.70691406 9.4921875 1.84570312 C14.7734375 2.88671875 14.7734375 2.88671875 17 4 C16.67 4.99 16.34 5.98 16 7 C9.4 5.68 2.8 4.36 -4 3 C-2.68 2.67 -1.36 2.34 0 2 C0 1.34 0 0.68 0 0 Z " fill="#C2C2BC" transform="translate(321,5)"/>
<path d="M0 0 C0 0.99 0 1.98 0 3 C-8.13777913 5.73977333 -15.44062871 6.36741339 -24 6 C-24 5.67 -24 5.34 -24 5 C-23.0821875 4.80664062 -22.164375 4.61328125 -21.21875 4.4140625 C-13.20806932 2.72726792 -13.20806932 2.72726792 -5.25 0.8125 C-2 0 -2 0 0 0 Z " fill="#C0C0BA" transform="translate(339,494)"/>
<path d="M0 0 C1 3 1 3 0.28735352 4.90112305 C-0.28607788 5.94586792 -0.28607788 5.94586792 -0.87109375 7.01171875 C-1.48500977 8.14770508 -1.48500977 8.14770508 -2.11132812 9.30664062 C-2.54896484 10.09232422 -2.98660156 10.87800781 -3.4375 11.6875 C-4.0881543 12.88342773 -4.0881543 12.88342773 -4.75195312 14.10351562 C-5.82574763 16.07410554 -6.90864182 18.03909927 -8 20 C-8.99 20 -9.98 20 -11 20 C-9.4095488 15.6366679 -7.25824078 11.75213615 -4.9375 7.75 C-4.57333984 7.11320312 -4.20917969 6.47640625 -3.83398438 5.8203125 C-1.14074248 1.14074248 -1.14074248 1.14074248 0 0 Z " fill="#D0CFC9" transform="translate(418,320)"/>
<path d="M0 0 C0.66 0 1.32 0 2 0 C3.00777029 2.74737377 4.00641446 5.49749952 5 8.25 C5.28617188 9.02730469 5.57234375 9.80460937 5.8671875 10.60546875 C6.27324219 11.73662109 6.27324219 11.73662109 6.6875 12.890625 C6.93886719 13.58188477 7.19023438 14.27314453 7.44921875 14.98535156 C8 17 8 17 8 21 C7.34 21 6.68 21 6 21 C4.99222971 18.25262623 3.99358554 15.50250048 3 12.75 C2.71382812 11.97269531 2.42765625 11.19539063 2.1328125 10.39453125 C1.72675781 9.26337891 1.72675781 9.26337891 1.3125 8.109375 C0.93544922 7.07248535 0.93544922 7.07248535 0.55078125 6.01464844 C0 4 0 4 0 0 Z " fill="#CECDC7" transform="translate(29,324)"/>
<path d="M0 0 C-4.017951 4.017951 -10.87255157 3.04787055 -16.28076172 3.06591797 C-19.52081047 3.06092779 -22.76013766 3.03538685 -26 3 C-26 2.34 -26 1.68 -26 1 C-17.31320899 0.28038418 -8.71700174 -0.14368684 0 0 Z " fill="#D2D1CB" transform="translate(297,485)"/>
<path d="M0 0 C4.95 0.33 9.9 0.66 15 1 C15 1.99 15 2.98 15 4 C12.77090129 4.02714735 10.54170633 4.04646254 8.3125 4.0625 C7.07113281 4.07410156 5.82976562 4.08570313 4.55078125 4.09765625 C1.53764546 4.01478673 -1.08275339 3.70839449 -4 3 C-2.68 2.67 -1.36 2.34 0 2 C0 1.34 0 0.68 0 0 Z " fill="#B9B9B3" transform="translate(250,431)"/>
<path d="M0 0 C0.33 0.99 0.66 1.98 1 3 C-0.19276255 5.25888611 -1.4112365 7.31545121 -2.8125 9.4375 C-6.15155563 14.57801214 -6.15155563 14.57801214 -9 20 C-9.66 20 -10.32 20 -11 20 C-10.42228148 15.34269991 -8.39706248 11.73321811 -6.0625 7.75 C-5.70220703 7.11320313 -5.34191406 6.47640625 -4.97070312 5.8203125 C-2.26182685 1.13091343 -2.26182685 1.13091343 0 0 Z " fill="#CECDC7" transform="translate(103,144)"/>
<path d="M0 0 C7.92 0 15.84 0 24 0 C23.67 0.99 23.34 1.98 23 3 C11.615 2.505 11.615 2.505 0 2 C0 1.34 0 0.68 0 0 Z " fill="#C9C8C2" transform="translate(271,1)"/>
<path d="M0 0 C2.38621343 3.57932015 2.49413449 5.87505123 2 10 C1.12713437 14.03637285 0.09807233 18.01948779 -1 22 C-1.33 21.34 -1.66 20.68 -2 20 C-2.66 20 -3.32 20 -4 20 C-2.68 13.4 -1.36 6.8 0 0 Z " fill="#C3C2BC" transform="translate(429,279)"/>
<path d="M0 0 C-1.13816623 3.4144987 -1.45643012 3.54699469 -4.4921875 5.078125 C-5.19730469 5.43390625 -5.90242188 5.7896875 -6.62890625 6.15625 C-7.37011719 6.5171875 -8.11132812 6.878125 -8.875 7.25 C-9.60847656 7.62640625 -10.34195312 8.0028125 -11.09765625 8.390625 C-11.80535156 8.74125 -12.51304687 9.091875 -13.2421875 9.453125 C-13.8904248 9.77442383 -14.53866211 10.09572266 -15.20654297 10.42675781 C-17 11 -17 11 -20 10 C-4.76595745 0 -4.76595745 0 0 0 Z " fill="#D5D4CD" transform="translate(392,473)"/>
<path d="M0 0 C6.88940671 0.43632909 13.35751464 1.08389845 20 3 C20 3.66 20 4.32 20 5 C13.15182898 4.51358785 6.66957927 3.64006048 0 2 C0 1.34 0 0.68 0 0 Z " fill="#CBCAC4" transform="translate(303,21)"/>
<path d="M0 0 C-2.90527612 2.90527612 -6.21099025 2.71264319 -10.125 3.125 C-10.87910156 3.21136719 -11.63320313 3.29773438 -12.41015625 3.38671875 C-14.27257127 3.59889261 -16.13618931 3.80045763 -18 4 C-18.66 3.01 -19.32 2.02 -20 1 C-17.41765641 0.63667026 -14.83460218 0.28405133 -12.25 -0.0625 C-11.52039063 -0.16626953 -10.79078125 -0.27003906 -10.0390625 -0.37695312 C-6.3892704 -0.85806208 -3.52327086 -1.04532842 0 0 Z " fill="#B6B6B0" transform="translate(313,483)"/>
<path d="M0 0 C6.27 1.32 12.54 2.64 19 4 C19 4.33 19 4.66 19 5 C11.64657821 5.20177072 5.05112439 5.21211746 -2 3 C-1.34 2.67 -0.68 2.34 0 2 C0 1.34 0 0.68 0 0 Z " fill="#BDBCB7" transform="translate(206,495)"/>
<path d="M0 0 C0 3.93169105 -1.39419615 5.16427228 -4 8 C-4.66 8 -5.32 8 -6 8 C-6 8.66 -6 9.32 -6 10 C-6.66 10 -7.32 10 -8 10 C-8 10.66 -8 11.32 -8 12 C-10.5 13.625 -10.5 13.625 -13 15 C-13 10.89413353 -11.80438641 10.00958542 -9 7 C-6.06824499 4.57284998 -3.0570396 2.26665115 0 0 Z " fill="#D6D5CE" transform="translate(418,387)"/>
<path d="M0 0 C0.66 0 1.32 0 2 0 C2.6700834 2.12392506 3.33596797 4.24917524 4 6.375 C4.37125 7.55835938 4.7425 8.74171875 5.125 9.9609375 C6 13 6 13 6 15 C5.01 15.33 4.02 15.66 3 16 C2.49193553 14.27318563 1.99389533 12.54342021 1.5 10.8125 C1.08234375 9.36810547 1.08234375 9.36810547 0.65625 7.89453125 C0.03322392 5.14654124 -0.12302812 2.80401584 0 0 Z " fill="#BDBCB7" transform="translate(92,287)"/>
<path d="M0 0 C0 0.66 0 1.32 0 2 C0.66 2.33 1.32 2.66 2 3 C-3.61 4.32 -9.22 5.64 -15 7 C-15.33 6.01 -15.66 5.02 -16 4 C-13.70922959 3.33011414 -11.41748541 2.66396838 -9.125 2 C-8.47402344 1.80921875 -7.82304687 1.6184375 -7.15234375 1.421875 C-2.2265625 0 -2.2265625 0 0 0 Z " fill="#BDBDB7" transform="translate(235,93)"/>
<path d="M0 0 C-0.33 0.66 -0.66 1.32 -1 2 C-6.89259861 3.65155878 -12.90281525 4.27098599 -19 4 C-17.27242385 1.79254158 -16.17482416 1.04690404 -13.4375 0.3125 C-8.94903435 -0.09554233 -4.50330462 -0.0800983 0 0 Z " fill="#D0CFC8" transform="translate(240,3)"/>
<path d="M0 0 C0.99 0 1.98 0 3 0 C4.70060743 2.13824216 6.20205658 4.22089861 7.6875 6.5 C8.10322266 7.12003906 8.51894531 7.74007812 8.94726562 8.37890625 C9.97403506 9.91315943 10.98822225 11.45581929 12 13 C11.01 13.33 10.02 13.66 9 14 C7.49412261 12.04594482 5.99521356 10.08718716 4.5 8.125 C4.07074219 7.56941406 3.64148438 7.01382813 3.19921875 6.44140625 C0 2.2265625 0 2.2265625 0 0 Z " fill="#D0D0C9" transform="translate(381,160)"/>
<path d="M0 0 C-3.20490963 2.59037598 -6.55350453 4.37943156 -10.25 6.1875 C-11.32765625 6.71730469 -12.4053125 7.24710938 -13.515625 7.79296875 C-14.33546875 8.19128906 -15.1553125 8.58960938 -16 9 C-16.33 8.01 -16.66 7.02 -17 6 C-14.73495035 4.80015203 -12.46410112 3.61505231 -10.1875 2.4375 C-9.54490234 2.09525391 -8.90230469 1.75300781 -8.24023438 1.40039062 C-3.33984375 -1.11328125 -3.33984375 -1.11328125 0 0 Z " fill="#CACAC3" transform="translate(213,121)"/>
<path d="M0 0 C3.35867712 0.75970078 6.52123658 1.87093255 9.75 3.0625 C11.22726563 3.60583984 11.22726563 3.60583984 12.734375 4.16015625 C13.48203125 4.43730469 14.2296875 4.71445312 15 5 C15 5.66 15 6.32 15 7 C9.33895411 6.50341703 5.12325529 5.45489316 0 3 C0 2.01 0 1.02 0 0 Z " fill="#C9C9C3" transform="translate(213,384)"/>
<path d="M0 0 C0.33 0.66 0.66 1.32 1 2 C1.66 2 2.32 2 3 2 C2.34 6.95 1.68 11.9 1 17 C0.01 16.01 -0.98 15.02 -2 14 C-1.81707476 11.2103901 -1.5177795 8.72218725 -1 6 C-0.814375 4.845 -0.62875 3.69 -0.4375 2.5 C-0.293125 1.675 -0.14875 0.85 0 0 Z " fill="#BAB9B4" transform="translate(74,209)"/>
<path d="M0 0 C4.29 0.66 8.58 1.32 13 2 C13 2.66 13 3.32 13 4 C11.06280622 4.05406122 9.12518079 4.09282025 7.1875 4.125 C6.10855469 4.14820313 5.02960938 4.17140625 3.91796875 4.1953125 C1 4 1 4 -2 2 C-1.34 2 -0.68 2 0 2 C0 1.34 0 0.68 0 0 Z " fill="#CBCAC4" transform="translate(237,429)"/>
<path d="M0 0 C-0.56132934 3.5371438 -1.69557747 4.99261679 -4.4375 7.25 C-5.05496094 7.77078125 -5.67242187 8.2915625 -6.30859375 8.828125 C-8 10 -8 10 -10 10 C-8.50006099 6.10015857 -4.53875449 0 0 0 Z " fill="#C3C2BD" transform="translate(375,352)"/>
<path d="M0 0 C4.9723422 1.49170266 9.41845739 3.60457417 14 6 C14 6.66 14 7.32 14 8 C10.2397015 7.41892368 7.46964968 6.34800504 4.1875 4.4375 C3.39730469 3.98246094 2.60710937 3.52742188 1.79296875 3.05859375 C1.20128906 2.70925781 0.60960937 2.35992187 0 2 C0 1.34 0 0.68 0 0 Z " fill="#D5D5CE" transform="translate(153,475)"/>
<path d="M0 0 C3.89332736 1.63148956 6.64719075 4.17627942 9.75 7 C10.25660156 7.45117188 10.76320313 7.90234375 11.28515625 8.3671875 C12.56545817 9.53360812 13.78791729 10.76283971 15 12 C15 12.66 15 13.32 15 14 C10.94772191 12.38873705 8.23778153 9.49978002 5.25 6.4375 C4.74339844 5.93025391 4.23679687 5.42300781 3.71484375 4.90039062 C0 1.14048812 0 1.14048812 0 0 Z " fill="#B6B5B0" transform="translate(448,432)"/>
<path d="M0 0 C0.66 0 1.32 0 2 0 C3.14077657 3.42232972 3.09815117 6.08673217 3.0625 9.6875 C3.05347656 10.86699219 3.04445313 12.04648437 3.03515625 13.26171875 C3.02355469 14.16535156 3.01195313 15.06898438 3 16 C2.34 15.67 1.68 15.34 1 15 C0.68758629 12.45058627 0.48696579 9.99638487 0.375 7.4375 C0.33632812 6.72658203 0.29765625 6.01566406 0.2578125 5.28320312 C0.16328217 3.52257575 0.08054183 1.76132272 0 0 Z " fill="#D2D2CB" transform="translate(70,263)"/>
<path d="M0 0 C0.33 0.99 0.66 1.98 1 3 C-4.94 3.495 -4.94 3.495 -11 4 C-11 3.34 -11 2.68 -11 2 C-11.66 1.67 -12.32 1.34 -13 1 C-8.59085217 -0.10228696 -4.51617599 -0.07654536 0 0 Z " fill="#BBBBB6" transform="translate(253,53)"/>
<path d="M0 0 C-0.33 0.99 -0.66 1.98 -1 3 C-5.43795241 4.4053516 -9.32130569 5.29241839 -14 5 C-13 3 -13 3 -11.07421875 2.1484375 C-10.28660156 1.89320313 -9.49898438 1.63796875 -8.6875 1.375 C-7.90761719 1.11460937 -7.12773437 0.85421875 -6.32421875 0.5859375 C-4 0 -4 0 0 0 Z " fill="#C6C5BF" transform="translate(317,389)"/>
<path d="M0 0 C0.33 0.66 0.66 1.32 1 2 C-0.21484375 4.6015625 -0.21484375 4.6015625 -1.9375 7.625 C-2.50339844 8.62789062 -3.06929688 9.63078125 -3.65234375 10.6640625 C-4.09707031 11.43492187 -4.54179688 12.20578125 -5 13 C-5.66 13 -6.32 13 -7 13 C-5.69045524 8.76916309 -4.16145284 4.872603 -2 1 C-1.34 0.67 -0.68 0.34 0 0 Z " fill="#D5D4CE" transform="translate(129,173)"/>
<path d="M0 0 C5.19209404 -0.21192221 9.126739 0.4087311 14 2 C14 2.66 14 3.32 14 4 C12.41590006 3.88512252 10.83271037 3.75765492 9.25 3.625 C8.36828125 3.55539063 7.4865625 3.48578125 6.578125 3.4140625 C4.00933618 3.00149945 2.24158985 2.28839043 0 1 C0 0.67 0 0.34 0 0 Z " fill="#D3D2CC" transform="translate(306,56)"/>
<path d="M0 0 C0.66 0.33 1.32 0.66 2 1 C-0.40768703 3.79163712 -2.76146616 4.89717557 -6.1875 6.1875 C-7.08855469 6.53167969 -7.98960937 6.87585938 -8.91796875 7.23046875 C-9.60503906 7.48441406 -10.29210937 7.73835938 -11 8 C-11.33 7.34 -11.66 6.68 -12 6 C-10.04669132 4.96958487 -8.08718472 3.9509107 -6.125 2.9375 C-5.03445312 2.36902344 -3.94390625 1.80054687 -2.8203125 1.21484375 C-1.42425781 0.61349609 -1.42425781 0.61349609 0 0 Z " fill="#D5D4CE" transform="translate(187,70)"/>
<path d="M0 0 C0 0.66 0 1.32 0 2 C-4.95 2.66 -9.9 3.32 -15 4 C-10.38161454 -0.61838546 -6.34978513 -0.12450559 0 0 Z " fill="#D6D5CE" transform="translate(242,55)"/>
<path d="M0 0 C2.6015625 0.2421875 2.6015625 0.2421875 5.625 0.875 C6.62789062 1.07867187 7.63078125 1.28234375 8.6640625 1.4921875 C9.43492187 1.65976562 10.20578125 1.82734375 11 2 C10.01 2.495 10.01 2.495 9 3 C9 3.66 9 4.32 9 5 C5.0507432 4.44894091 1.65079826 3.61064629 -2 2 C-1.34 1.34 -0.68 0.68 0 0 Z " fill="#C8C7C1" transform="translate(217,406)"/>
<path d="M0 0 C1.90318884 2.85478326 2.4619099 4.41941308 3.125 7.6875 C3.29257812 8.49574219 3.46015625 9.30398437 3.6328125 10.13671875 C3.75398438 10.75160156 3.87515625 11.36648437 4 12 C3.01 12 2.02 12 1 12 C0.63762737 10.37681021 0.28534843 8.7513642 -0.0625 7.125 C-0.25972656 6.22007812 -0.45695312 5.31515625 -0.66015625 4.3828125 C-1 2 -1 2 0 0 Z " fill="#C1C0BB" transform="translate(425,200)"/>
<path d="M0 0 C0.33 0 0.66 0 1 0 C1 3.96 1 7.92 1 12 C0.01 12.33 -0.98 12.66 -2 13 C-1.85966889 11.02043559 -1.7125877 9.04134859 -1.5625 7.0625 C-1.48128906 5.96035156 -1.40007812 4.85820312 -1.31640625 3.72265625 C-1 1 -1 1 0 0 Z " fill="#CECDC7" transform="translate(91,228)"/>
<path d="M0 0 C0.33 0 0.66 0 1 0 C0.85831863 1.43791516 0.71148957 2.8753237 0.5625 4.3125 C0.48128906 5.11300781 0.40007812 5.91351563 0.31640625 6.73828125 C0 9 0 9 -1 12 C-1.66 12 -2.32 12 -3 12 C-2.88601335 10.37419034 -2.75844341 8.74932843 -2.625 7.125 C-2.55539063 6.22007812 -2.48578125 5.31515625 -2.4140625 4.3828125 C-2 2 -2 2 0 0 Z " fill="#CFCEC8" transform="translate(78,199)"/>
<path d="M0 0 C0.66 0 1.32 0 2 0 C1.53199289 4.05606165 1.12046792 7.46588679 -1 11 C-1.66 11 -2.32 11 -3 11 C-2.69078116 9.54096742 -2.37751201 8.08279278 -2.0625 6.625 C-1.88847656 5.81289063 -1.71445312 5.00078125 -1.53515625 4.1640625 C-1 2 -1 2 0 0 Z " fill="#D0CFC9" transform="translate(425,299)"/>
<path d="M0 0 C-1.55603771 3.81936528 -3.95604931 6.26044438 -7 9 C-7.66 9 -8.32 9 -9 9 C-7.45665977 5.21180126 -4.44676575 0 0 0 Z " fill="#CAC9C3" transform="translate(156,138)"/>
<path d="M0 0 C0 0.66 0 1.32 0 2 C-3.82320557 3.42258812 -6.91281305 4.24042276 -11 4 C-7.35237315 0.18657193 -5.28949249 -0.11498897 0 0 Z " fill="#D2D1CB" transform="translate(325,445)"/>
<path d="M0 0 C2.64 0.66 5.28 1.32 8 2 C8 2.99 8 3.98 8 5 C3.545 4.01 3.545 4.01 -1 3 C-0.67 2.01 -0.34 1.02 0 0 Z " fill="#BFBEB8" transform="translate(216,424)"/>
<path d="M0 0 C0.33 0 0.66 0 1 0 C1 5.28 1 10.56 1 16 C0.01 15.67 -0.98 15.34 -2 15 C-1.38487182 9.99109914 -0.7282448 4.99367864 0 0 Z " fill="#BDBDB7" transform="translate(499,290)"/>
<path d="M0 0 C3 2 3 2 3.51171875 4.1640625 C3.56972656 4.97617187 3.62773438 5.78828125 3.6875 6.625 C3.75324219 7.44226563 3.81898437 8.25953125 3.88671875 9.1015625 C3.92410156 9.72804688 3.96148437 10.35453125 4 11 C3.34 11 2.68 11 2 11 C0.19769832 7.17010894 -0.19622241 4.21878192 0 0 Z " fill="#CACAC4" transform="translate(112,290)"/>
<path d="M0 0 C0.66 0.33 1.32 0.66 2 1 C2 1.66 2 2.32 2 3 C-0.97 4.32 -3.94 5.64 -7 7 C-7.33 6.01 -7.66 5.02 -8 4 C-6.71349294 3.30289269 -5.42059335 2.61757124 -4.125 1.9375 C-3.40570313 1.55464844 -2.68640625 1.17179687 -1.9453125 0.77734375 C-1.30335938 0.52082031 -0.66140625 0.26429687 0 0 Z " fill="#C6C6C0" transform="translate(162,24)"/>
<path d="M0 0 C3.55780196 0.60990891 6.6828589 1.5783681 10 3 C9.01 4.485 9.01 4.485 8 6 C3.545 4.02 3.545 4.02 -1 2 C-0.67 1.34 -0.34 0.68 0 0 Z " fill="#C6C6C0" transform="translate(167,482)"/>
<path d="M0 0 C-1 3 -1 3 -2.84765625 3.94921875 C-3.57855469 4.19285156 -4.30945313 4.43648438 -5.0625 4.6875 C-6.16271484 5.06455078 -6.16271484 5.06455078 -7.28515625 5.44921875 C-7.85105469 5.63097656 -8.41695313 5.81273437 -9 6 C-9.33 5.01 -9.66 4.02 -10 3 C-3.375 0 -3.375 0 0 0 Z " fill="#C7C6C0" transform="translate(370,464)"/>
<path d="M0 0 C0.66 0.66 1.32 1.32 2 2 C-0.85276137 4.93200474 -3.65079784 7.64315404 -7 10 C-6.45912682 6.21388773 -4.88277668 4.44599233 -2 2 C-1.34 2 -0.68 2 0 2 C0 1.34 0 0.68 0 0 Z " fill="#D3D3CC" transform="translate(447,430)"/>
<path d="M0 0 C0.80824219 0.11085938 1.61648437 0.22171875 2.44921875 0.3359375 C3.37154297 0.47902344 3.37154297 0.47902344 4.3125 0.625 C3.3225 1.12 3.3225 1.12 2.3125 1.625 C2.3125 2.285 2.3125 2.945 2.3125 3.625 C-0.9875 2.965 -4.2875 2.305 -7.6875 1.625 C-4.33422361 -0.61051759 -3.78006343 -0.54783528 0 0 Z " fill="#BDBDB7" transform="translate(232.6875,390.375)"/>
<path d="M0 0 C2 2 2 2 2.1953125 4.3828125 C2.17210937 5.28773438 2.14890625 6.19265625 2.125 7.125 C2.10695313 8.03507813 2.08890625 8.94515625 2.0703125 9.8828125 C2.03550781 10.93082031 2.03550781 10.93082031 2 12 C1.01 12 0.02 12 -1 12 C-1.14285714 3.42857143 -1.14285714 3.42857143 0 0 Z " fill="#BBBAB5" transform="translate(20,220)"/>
<path d="M0 0 C0.33 0.66 0.66 1.32 1 2 C0.00390625 4.1640625 0.00390625 4.1640625 -1.4375 6.625 C-1.91058594 7.44226563 -2.38367187 8.25953125 -2.87109375 9.1015625 C-3.24363281 9.72804687 -3.61617187 10.35453125 -4 11 C-4.66 11 -5.32 11 -6 11 C-3.76687117 3.98159509 -3.76687117 3.98159509 -2 1 C-1.34 0.67 -0.68 0.34 0 0 Z " fill="#D9D8D2" transform="translate(50,132)"/>
<path d="M0 0 C0 3.58912412 -0.66436554 4.10857029 -3 6.6875 C-3.556875 7.31011719 -4.11375 7.93273437 -4.6875 8.57421875 C-5.120625 9.04472656 -5.55375 9.51523438 -6 10 C-6.66 9.34 -7.32 8.68 -8 8 C-3.375 2.25 -3.375 2.25 0 0 Z " fill="#D2D1CB" transform="translate(123,118)"/>
<path d="M0 0 C-0.33 0.99 -0.66 1.98 -1 3 C-3.64 3.33 -6.28 3.66 -9 4 C-9 3.34 -9 2.68 -9 2 C-9.66 1.67 -10.32 1.34 -11 1 C-7.27569643 0.30710631 -3.78916254 -0.11144596 0 0 Z " fill="#C5C4BF" transform="translate(243,73)"/>
<path d="M0 0 C3.77545388 1.09068668 6.47043472 1.9083091 9 5 C6 6 6 6 2.8125 4.5625 C1.884375 4.046875 0.95625 3.53125 0 3 C0 2.01 0 1.02 0 0 Z " fill="#C2C1BC" transform="translate(174,427)"/>
<path d="M0 0 C0.66 0 1.32 0 2 0 C3.7265625 1.75 3.7265625 1.75 5.625 4 C6.25664062 4.7425 6.88828125 5.485 7.5390625 6.25 C8.02117187 6.8275 8.50328125 7.405 9 8 C8.01 8.33 7.02 8.66 6 9 C4.99105628 8.07213211 3.99309093 7.13231567 3 6.1875 C2.1646875 5.40439453 2.1646875 5.40439453 1.3125 4.60546875 C0 3 0 3 0 0 Z " fill="#D2D2CB" transform="translate(135,372)"/>
<path d="M0 0 C0.66 0 1.32 0 2 0 C3.7265625 1.75 3.7265625 1.75 5.625 4 C6.25664062 4.7425 6.88828125 5.485 7.5390625 6.25 C8.02117187 6.8275 8.50328125 7.405 9 8 C5.60406522 8 4.93380119 7.47834052 2.3125 5.5 C1.68988281 5.0359375 1.06726563 4.571875 0.42578125 4.09375 C-0.04472656 3.7328125 -0.51523437 3.371875 -1 3 C-0.67 2.01 -0.34 1.02 0 0 Z " fill="#B8B8B3" transform="translate(384,369)"/>
<path d="M0 0 C2.86299506 2.86299506 2.99421225 4.65852284 3.0625 8.6875 C3.041875 9.780625 3.02125 10.87375 3 12 C2.34 12 1.68 12 1 12 C-0.3271261 8.0186217 -0.06915913 4.14954773 0 0 Z " fill="#D4D3CD" transform="translate(22,291)"/>
<path d="M0 0 C2.64 0.33 5.28 0.66 8 1 C8.33 1.99 8.66 2.98 9 4 C2.07 3.505 2.07 3.505 -5 3 C-5 2.67 -5 2.34 -5 2 C-3.35 1.67 -1.7 1.34 0 1 C0 0.67 0 0.34 0 0 Z " fill="#A9A9A4" transform="translate(289,90)"/>
<path d="M0 0 C0.33 0.66 0.66 1.32 1 2 C-1.97 2.66 -4.94 3.32 -8 4 C-8 3.34 -8 2.68 -8 2 C-8.66 1.67 -9.32 1.34 -10 1 C-3.375 -1.125 -3.375 -1.125 0 0 Z " fill="#BEBEB8" transform="translate(223,78)"/>
<path d="M0 0 C3 1 3 1 4.6875 3.875 C6 7 6 7 6 10 C5.34 10 4.68 10 4 10 C3.32845067 8.71086513 2.66291141 7.41859796 2 6.125 C1.62875 5.40570313 1.2575 4.68640625 0.875 3.9453125 C0 2 0 2 0 0 Z " fill="#D5D5CE" transform="translate(91,341)"/>
<path d="M0 0 C3 1 3 1 4.16796875 2.84765625 C4.50441406 3.57855469 4.84085938 4.30945313 5.1875 5.0625 C5.53167969 5.79597656 5.87585938 6.52945312 6.23046875 7.28515625 C6.48441406 7.85105469 6.73835937 8.41695313 7 9 C5.109375 8.68359375 5.109375 8.68359375 3 8 C0 2.96428571 0 2.96428571 0 0 Z " fill="#D2D1CA" transform="translate(127,330)"/>
<path d="M0 0 C1 3 1 3 0.22265625 5.04296875 C-0.16019531 5.75066406 -0.54304688 6.45835937 -0.9375 7.1875 C-1.31777344 7.90292969 -1.69804687 8.61835938 -2.08984375 9.35546875 C-2.54037109 10.16951172 -2.54037109 10.16951172 -3 11 C-3.66 10.67 -4.32 10.34 -5 10 C-3.84414715 6.08788267 -2.64465038 3.1254959 0 0 Z " fill="#D8D7D1" transform="translate(418,320)"/>
<path d="M0 0 C0.99 0.33 1.98 0.66 3 1 C2.45276317 4.37462715 1.9451 6.08235 0 9 C-0.66 9 -1.32 9 -2 9 C-1.34 6.03 -0.68 3.06 0 0 Z " fill="#C0BFBA" transform="translate(79,191)"/>
<path d="M0 0 C0.66 0.33 1.32 0.66 2 1 C1.30058404 4.14737182 0.23921302 7.02588876 -1 10 C-2.1875 8.375 -2.1875 8.375 -3 6 C-1.625 2.75 -1.625 2.75 0 0 Z " fill="#C2C2BC" transform="translate(91,163)"/>
<path d="M0 0 C0 0.66 0 1.32 0 2 C-3.61973402 3.31626692 -6.09567131 4 -10 4 C-10 3.34 -10 2.68 -10 2 C-6.49223216 0.39644899 -3.85645121 -0.22036864 0 0 Z " fill="#D3D2CB" transform="translate(349,492)"/>
<path d="M0 0 C0.66 0.33 1.32 0.66 2 1 C2 1.66 2 2.32 2 3 C-1.96 4.98 -1.96 4.98 -6 7 C-6.33 6.01 -6.66 5.02 -7 4 C-1.7265625 0.77734375 -1.7265625 0.77734375 0 0 Z " fill="#C8C8C2" transform="translate(398,468)"/>
<path d="M0 0 C0.66 0 1.32 0 2 0 C3.60355101 3.50776784 4.22036864 6.14354879 4 10 C3.34 10 2.68 10 2 10 C0.68373308 6.38026598 0 3.90432869 0 0 Z " fill="#D5D4CE" transform="translate(96,302)"/>
<path d="M0 0 C2.18975773 3.28463659 2.99806563 6.20696275 4 10 C3.01 10 2.02 10 1 10 C-0.83691257 6.21812119 -1.15837626 4.05431692 0 0 Z " fill="#C3C2BC" transform="translate(488,166)"/>
<path d="M0 0 C0.33 0.66 0.66 1.32 1 2 C0.21654285 3.17219543 -0.57702836 4.33763668 -1.375 5.5 C-1.81585938 6.1496875 -2.25671875 6.799375 -2.7109375 7.46875 C-3.13632813 7.9740625 -3.56171875 8.479375 -4 9 C-4.66 9 -5.32 9 -6 9 C-4.68775452 5.06326356 -3.08089673 2.77280706 0 0 Z " fill="#D5D4CE" transform="translate(153,169)"/>
<path d="M0 0 C0.66 0 1.32 0 2 0 C1.5020163 3.73487777 1.12508244 5.81237635 -1 9 C-1.66 9 -2.32 9 -3 9 C-2.01 6.03 -1.02 3.06 0 0 Z " fill="#CFCEC8" transform="translate(87,171)"/>
<path d="M0 0 C0.33 0.66 0.66 1.32 1 2 C0.22265625 3.9453125 0.22265625 3.9453125 -0.9375 6.125 C-1.31777344 6.84945312 -1.69804688 7.57390625 -2.08984375 8.3203125 C-2.39019531 8.87460938 -2.69054687 9.42890625 -3 10 C-3.66 10 -4.32 10 -5 10 C-4.4454626 6.67277559 -3.75986957 3.8986087 -2 1 C-1.34 0.67 -0.68 0.34 0 0 Z " fill="#D6D5CF" transform="translate(97,154)"/>
<path d="M0 0 C2.95662966 0.22743305 4.55033688 0.61235938 6.8125 2.5625 C7.204375 3.036875 7.59625 3.51125 8 4 C3.82412255 5.39195915 1.86525224 3.82323219 -2 2 C-1.34 1.34 -0.68 0.68 0 0 Z " fill="#C8C7C1" transform="translate(352,70)"/>
<path d="M0 0 C1.64666203 0.1135629 3.29236082 0.24117381 4.9375 0.375 C5.85402344 0.44460937 6.77054687 0.51421875 7.71484375 0.5859375 C8.84599609 0.79089844 8.84599609 0.79089844 10 1 C10.33 1.66 10.66 2.32 11 3 C9.741875 3.020625 8.48375 3.04125 7.1875 3.0625 C6.47980469 3.07410156 5.77210938 3.08570313 5.04296875 3.09765625 C3 3 3 3 0 2 C0 1.34 0 0.68 0 0 Z " fill="#D7D6CF" transform="translate(303,21)"/>
<path d="M0 0 C3.96 0 7.92 0 12 0 C8.99382731 3.00617269 6.17618402 2.59585316 2 3 C1.34 2.01 0.68 1.02 0 0 Z " fill="#C4C3BD" transform="translate(293,484)"/>
<path d="M0 0 C5.75 1.75 5.75 1.75 8 4 C7.34 4.66 6.68 5.32 6 6 C4.02 5.01 2.04 4.02 0 3 C0 2.01 0 1.02 0 0 Z " fill="#C6C5BF" transform="translate(146,471)"/>
<path d="M0 0 C0.33 0.66 0.66 1.32 1 2 C-1.64 2.33 -4.28 2.66 -7 3 C-7 2.34 -7 1.68 -7 1 C-7.66 0.67 -8.32 0.34 -9 0 C-2.25 -1.125 -2.25 -1.125 0 0 Z " fill="#B6B6B0" transform="translate(304,393)"/>
<path d="M0 0 C0.33 0.99 0.66 1.98 1 3 C-0.9375 6.1875 -0.9375 6.1875 -3 9 C-3.89674777 6.48910624 -4.13172674 5.35464891 -3.1875 2.8125 C-2 1 -2 1 0 0 Z " fill="#CDCCC6" transform="translate(399,318)"/>
<path d="M0 0 C0.33 0 0.66 0 1 0 C1.33 3.96 1.66 7.92 2 12 C1.01 12.33 0.02 12.66 -1 13 C-0.67 8.71 -0.34 4.42 0 0 Z " fill="#B3B3AE" transform="translate(73,272)"/>
<path d="M0 0 C0.66 0.33 1.32 0.66 2 1 C-0.52788007 3.79872437 -2.20411134 5.45773019 -6 6 C-6 5.01 -6 4.02 -6 3 C-4.03533587 1.93224776 -2.03144641 0.93446535 0 0 Z " fill="#C6C5BF" transform="translate(206,102)"/>
<path d="M0 0 C0 0.66 0 1.32 0 2 C-2.97 2.66 -5.94 3.32 -9 4 C-7 0 -7 0 -5.0625 -0.8125 C-3 -1 -3 -1 0 0 Z " fill="#BAB9B4" transform="translate(338,477)"/>
<path d="M0 0 C0.66 0 1.32 0 2 0 C1.67 2.97 1.34 5.94 1 9 C0.01 8.67 -0.98 8.34 -2 8 C-1.125 2.25 -1.125 2.25 0 0 Z " fill="#BFBEB9" transform="translate(408,292)"/>
<path d="M0 0 C3.34373475 0.55728913 6.03312999 1.35173889 9 3 C9 3.66 9 4.32 9 5 C5.65626525 4.44271087 2.96687001 3.64826111 0 2 C0 1.34 0 0.68 0 0 Z " fill="#D5D4CD" transform="translate(331,121)"/>
<path d="M0 0 C0.66 0 1.32 0 2 0 C1.65120368 3.25543229 0.97866739 4.01873107 -1.5625 6.25 C-2.366875 6.8275 -3.17125 7.405 -4 8 C-4.66 7.67 -5.32 7.34 -6 7 C-5.04882866 5.8274869 -4.08882991 4.66212985 -3.125 3.5 C-2.59132812 2.8503125 -2.05765625 2.200625 -1.5078125 1.53125 C-0.76144531 0.77328125 -0.76144531 0.77328125 0 0 Z " fill="#CBCAC4" transform="translate(154,112)"/>
<path d="M0 0 C-1 3 -1 3 -3.9375 4.75 C-5.4534375 5.36875 -5.4534375 5.36875 -7 6 C-7.66 5.67 -8.32 5.34 -9 5 C-6.45523312 2.20075644 -3.92372883 0 0 0 Z " fill="#D8D7D1" transform="translate(200,106)"/>
<path d="M0 0 C-0.33 0.66 -0.66 1.32 -1 2 C-3.64860427 2.59355614 -6.29197322 2.74209269 -9 3 C-9.33 2.01 -9.66 1.02 -10 0 C-6.33694766 -0.74926071 -3.57644848 -1.2380014 0 0 Z " fill="#C0BFB9" transform="translate(254,91)"/>
<path d="M0 0 C0 0.66 0 1.32 0 2 C-4.455 3.485 -4.455 3.485 -9 5 C-6.42453433 -0.15093135 -5.59847872 0 0 0 Z " fill="#D2D1CB" transform="translate(188,15)"/>
<path d="M0 0 C0 0.66 0 1.32 0 2 C-3.78187881 3.83691257 -5.94568308 4.15837626 -10 3 C-6.59538535 1.23899242 -3.90650339 0 0 0 Z " fill="#CCCBC5" transform="translate(357,489)"/>
<path d="M0 0 C0 0.99 0 1.98 0 3 C-2.375 4.75 -2.375 4.75 -5 6 C-5.66 5.67 -6.32 5.34 -7 5 C-2.25 0 -2.25 0 0 0 Z " fill="#D4D3CD" transform="translate(417,457)"/>
<path d="M0 0 C0.99928333 2.698065 1.03624754 3.88010429 0.1875 6.6875 C-1 9 -1 9 -3 10 C-2.69201674 8.51988629 -2.378482 7.04092675 -2.0625 5.5625 C-1.88847656 4.73878906 -1.71445313 3.91507813 -1.53515625 3.06640625 C-1 1 -1 1 0 0 Z " fill="#D5D4CD" transform="translate(113,213)"/>
<path d="M0 0 C0.33 0.66 0.66 1.32 1 2 C1.66 2 2.32 2 3 2 C2.67 4.31 2.34 6.62 2 9 C1.01 8.67 0.02 8.34 -1 8 C-0.67 5.36 -0.34 2.72 0 0 Z " fill="#B6B6B0" transform="translate(24,196)"/>
<path d="M0 0 C0.99 0.33 1.98 0.66 3 1 C2.01 2.98 1.02 4.96 0 7 C-0.99 7 -1.98 7 -3 7 C-1.125 1.125 -1.125 1.125 0 0 Z " fill="#C8C8C2" transform="translate(52,126)"/>
<path d="M0 0 C0.33 1.32 0.66 2.64 1 4 C-0.1446875 4.680625 -0.1446875 4.680625 -1.3125 5.375 C-3.23632814 6.53824492 -5.12941224 7.7529415 -7 9 C-5.44499019 5.18315774 -2.96404505 2.80804268 0 0 Z " fill="#BDBDB7" transform="translate(142,123)"/>
<path d="M0 0 C2.31 0.33 4.62 0.66 7 1 C6.01 1.495 6.01 1.495 5 2 C5 2.66 5 3.32 5 4 C2.03 3.67 -0.94 3.34 -4 3 C-2.68 2.67 -1.36 2.34 0 2 C0 1.34 0 0.68 0 0 Z " fill="#BABAB4" transform="translate(321,5)"/>
<path d="M0 0 C3.625 0.375 3.625 0.375 7 1 C7 1.66 7 2.32 7 3 C4.03 2.67 1.06 2.34 -2 2 C-1.34 1.34 -0.68 0.68 0 0 Z " fill="#CBCAC4" transform="translate(213,444)"/>
<path d="M0 0 C-0.33 0.99 -0.66 1.98 -1 3 C-4.0625 4.1875 -4.0625 4.1875 -7 5 C-7 4.01 -7 3.02 -7 2 C-4.35261084 0.5393715 -3.10551666 0 0 0 Z " fill="#CBCAC4" transform="translate(354,434)"/>
<path d="M0 0 C2.4375 0.75 2.4375 0.75 5 2 C5.8125 4.125 5.8125 4.125 6 6 C2.535 4.02 2.535 4.02 -1 2 C-0.67 1.34 -0.34 0.68 0 0 Z " fill="#D0CFC9" transform="translate(161,419)"/>
<path d="M0 0 C2.475 0.99 2.475 0.99 5 2 C5 3.32 5 4.64 5 6 C2.5 4.6875 2.5 4.6875 0 3 C0 2.01 0 1.02 0 0 Z " fill="#C3C2BC" transform="translate(155,415)"/>
<path d="M0 0 C0.33 0 0.66 0 1 0 C1.33 2.97 1.66 5.94 2 9 C1.01 9.33 0.02 9.66 -1 10 C-1.33 7.69 -1.66 5.38 -2 3 C-1.34 3 -0.68 3 0 3 C0 2.01 0 1.02 0 0 Z " fill="#B6B6B0" transform="translate(112,282)"/>
<path d="M0 0 C1.6415049 3.2830098 0.51888624 6.42545033 0 10 C-1.5625 8.8125 -1.5625 8.8125 -3 7 C-2.75546876 3.65807308 -2.39456443 2.39456443 0 0 Z " fill="#B7B7B2" transform="translate(93,222)"/>
<path d="M0 0 C0.66 0 1.32 0 2 0 C1.67 2.97 1.34 5.94 1 9 C0.01 8.34 -0.98 7.68 -2 7 C-1.34 4.69 -0.68 2.38 0 0 Z " fill="#C5C4BF" transform="translate(99,191)"/>
<path d="M0 0 C0 0.66 0 1.32 0 2 C-1.98 2.33 -3.96 2.66 -6 3 C-6 2.34 -6 1.68 -6 1 C-6.66 0.67 -7.32 0.34 -8 0 C-4.94736336 -0.98120464 -3.05263664 -0.98120464 0 0 Z " fill="#B8B7B2" transform="translate(228,58)"/>
<path d="M0 0 C5.75 1.875 5.75 1.875 8 3 C8 3.66 8 4.32 8 5 C4.62537285 4.45276317 2.91765 3.9451 0 2 C0 1.34 0 0.68 0 0 Z " fill="#D7D6D0" transform="translate(370,41)"/>
<path d="M0 0 C5.75 0.875 5.75 0.875 8 2 C8 2.66 8 3.32 8 4 C2.25 3.125 2.25 3.125 0 2 C0 1.34 0 0.68 0 0 Z " fill="#D1D0CA" transform="translate(353,34)"/>
<path d="M0 0 C5.75 1.875 5.75 1.875 8 3 C8 3.66 8 4.32 8 5 C4.62537285 4.45276317 2.91765 3.9451 0 2 C0 1.34 0 0.68 0 0 Z " fill="#D8D7D1" transform="translate(382,27)"/>
<path d="M0 0 C2.31 0.33 4.62 0.66 7 1 C6.01 1.495 6.01 1.495 5 2 C5 2.66 5 3.32 5 4 C2.69 3.67 0.38 3.34 -2 3 C-1.34 2.67 -0.68 2.34 0 2 C0 1.34 0 0.68 0 0 Z " fill="#B4B3AE" transform="translate(323,24)"/>
<path d="M0 0 C0.33 0.66 0.66 1.32 1 2 C-0.98 2.33 -2.96 2.66 -5 3 C-5 2.34 -5 1.68 -5 1 C-5.66 0.67 -6.32 0.34 -7 0 C-3.98968256 -0.93423645 -3.13349732 -1.04449911 0 0 Z " fill="#B1B1AC" transform="translate(330,444)"/>
<path d="M0 0 C-0.33 0.99 -0.66 1.98 -1 3 C-2.98 3.33 -4.96 3.66 -7 4 C-6.67 3.01 -6.34 2.02 -6 1 C-3 0 -3 0 0 0 Z " fill="#D0CFC9" transform="translate(335,402)"/>
<path d="M0 0 C0.99 0 1.98 0 3 0 C2.34 1.98 1.68 3.96 1 6 C0.01 6 -0.98 6 -2 6 C-1.34 4.02 -0.68 2.04 0 0 Z " fill="#B2B2AD" transform="translate(463,344)"/>
<path d="M0 0 C0.66 0 1.32 0 2 0 C0.25 5.75 0.25 5.75 -2 8 C-3 5 -3 5 -1.6875 2.3125 C-1.130625 1.549375 -0.57375 0.78625 0 0 Z " fill="#D6D5CE" transform="translate(448,342)"/>
<path d="M0 0 C0.33 0 0.66 0 1 0 C1.125 5.75 1.125 5.75 0 8 C-0.66 8 -1.32 8 -2 8 C-1.125 1.125 -1.125 1.125 0 0 Z " fill="#D3D2CC" transform="translate(498,304)"/>
<path d="M0 0 C0.99 0 1.98 0 3 0 C3 1.98 3 3.96 3 6 C2.01 6 1.02 6 0 6 C0 4.02 0 2.04 0 0 Z " fill="#B5B5B0" transform="translate(55,258)"/>
<path d="M0 0 C0.33 0 0.66 0 1 0 C1.125 5.75 1.125 5.75 0 8 C-0.66 8 -1.32 8 -2 8 C-1.125 1.125 -1.125 1.125 0 0 Z " fill="#D4D3CC" transform="translate(96,204)"/>
<path d="M0 0 C0.33 0 0.66 0 1 0 C1.125 5.75 1.125 5.75 0 8 C-0.66 8 -1.32 8 -2 8 C-1.125 1.125 -1.125 1.125 0 0 Z " fill="#D0CFC8" transform="translate(27,190)"/>
<path d="M0 0 C0.66 0 1.32 0 2 0 C1.49396008 2.16874252 1.00016187 3.99967627 0 6 C-0.99 6 -1.98 6 -3 6 C-1.125 1.125 -1.125 1.125 0 0 Z " fill="#B5B5B0" transform="translate(92,132)"/>
<path d="M0 0 C0.33 0.99 0.66 1.98 1 3 C-0.98 3.66 -2.96 4.32 -5 5 C-5.33 4.01 -5.66 3.02 -6 2 C-2.25 0 -2.25 0 0 0 Z " fill="#BCBCB6" transform="translate(218,117)"/>
<path d="M0 0 C0.66 0 1.32 0 2 0 C1.75 1.875 1.75 1.875 1 4 C-1.0625 5.25 -1.0625 5.25 -3 6 C-2.42655063 3.13275314 -2.1385485 2.1385485 0 0 Z " fill="#B9B9B3" transform="translate(116,102)"/>
<path d="M0 0 C-0.33 1.32 -0.66 2.64 -1 4 C-2.65 4.33 -4.3 4.66 -6 5 C-4.87312259 1.61936778 -3.78825335 0 0 0 Z " fill="#B9B9B3" transform="translate(162,67)"/>
<path d="M0 0 C-3.18762365 2.12508244 -5.26512223 2.5020163 -9 3 C-7 0 -7 0 -5.0625 -0.75 C-3 -1 -3 -1 0 0 Z " fill="#D6D5CF" transform="translate(346,475)"/>
<path d="M0 0 C1.65 0 3.3 0 5 0 C5 0.99 5 1.98 5 3 C3.02 3 1.04 3 -1 3 C-0.67 2.01 -0.34 1.02 0 0 Z " fill="#BCBBB6" transform="translate(281,466)"/>
<path d="M0 0 C1.98 0 3.96 0 6 0 C6 0.99 6 1.98 6 3 C4.35 3 2.7 3 1 3 C0.67 2.01 0.34 1.02 0 0 Z " fill="#C5C5BF" transform="translate(242,465)"/>
<path d="M0 0 C1.32 0 2.64 0 4 0 C4 0.99 4 1.98 4 3 C1.03 3 -1.94 3 -5 3 C-5 2.67 -5 2.34 -5 2 C-3.35 2 -1.7 2 0 2 C0 1.34 0 0.68 0 0 Z " fill="#A9A9A4" transform="translate(252,451)"/>
<path d="M0 0 C2.16874252 0.50603992 3.99967627 0.99983813 6 2 C5.67 2.99 5.34 3.98 5 5 C2.5 3.625 2.5 3.625 0 2 C0 1.34 0 0.68 0 0 Z " fill="#BEBDB8" transform="translate(138,422)"/>
<path d="M0 0 C-0.33 0.99 -0.66 1.98 -1 3 C-2.98 3.33 -4.96 3.66 -7 4 C-6.67 3.01 -6.34 2.02 -6 1 C-3 0 -3 0 0 0 Z " fill="#CFCEC8" transform="translate(345,417)"/>
<path d="M0 0 C1.32 0.33 2.64 0.66 4 1 C4 1.66 4 2.32 4 3 C0.37 3 -3.26 3 -7 3 C-7 2.67 -7 2.34 -7 2 C-4.69 2 -2.38 2 0 2 C0 1.34 0 0.68 0 0 Z " fill="#AEAEA9" transform="translate(258,414)"/>
<path d="M0 0 C2 1.3125 2 1.3125 4 3 C4 3.99 4 4.98 4 6 C2.68 5.34 1.36 4.68 0 4 C0 2.68 0 1.36 0 0 Z " fill="#C3C2BC" transform="translate(99,381)"/>
<path d="M0 0 C0.99 0 1.98 0 3 0 C2.34 1.65 1.68 3.3 1 5 C0.01 5 -0.98 5 -2 5 C-1.34 3.35 -0.68 1.7 0 0 Z " fill="#BEBDB8" transform="translate(454,361)"/>
<path d="M0 0 C1.89213369 2.38573379 3.02391783 4.07175348 4 7 C2.68 6.67 1.36 6.34 0 6 C-1.125 2.25 -1.125 2.25 0 0 Z " fill="#C9C8C2" transform="translate(97,349)"/>
<path d="M0 0 C0.99 0 1.98 0 3 0 C3.33 1.98 3.66 3.96 4 6 C3.34 6 2.68 6 2 6 C0 3 0 3 0 0 Z " fill="#BBBBB5" transform="translate(70,332)"/>
<path d="M0 0 C0.99 0 1.98 0 3 0 C3 1.65 3 3.3 3 5 C2.01 5.33 1.02 5.66 0 6 C0 4.02 0 2.04 0 0 Z " fill="#BEBEB8" transform="translate(480,290)"/>
<path d="M0 0 C0.66 0 1.32 0 2 0 C2.33 2.31 2.66 4.62 3 7 C2.34 7 1.68 7 1 7 C0.67 4.69 0.34 2.38 0 0 Z " fill="#CFCEC8" transform="translate(92,287)"/>
<path d="M0 0 C0.66 0 1.32 0 2 0 C2 1.98 2 3.96 2 6 C1.01 6 0.02 6 -1 6 C-1.042721 4.33388095 -1.04063832 2.66617115 -1 1 C-0.67 0.67 -0.34 0.34 0 0 Z " fill="#BCBBB6" transform="translate(56,239)"/>
<path d="M0 0 C0.33 0.66 0.66 1.32 1 2 C1.66 2 2.32 2 3 2 C2.67 3.98 2.34 5.96 2 8 C1.01 7.67 0.02 7.34 -1 7 C-0.67 4.69 -0.34 2.38 0 0 Z " fill="#B4B4AF" transform="translate(27,184)"/>
<path d="M0 0 C2 1.75 2 1.75 4 4 C4 5.32 4 6.64 4 8 C3.34 8 2.68 8 2 8 C0.74335022 5.09399739 0 3.20395416 0 0 Z " fill="#D2D1CB" transform="translate(484,160)"/>
<path d="M0 0 C2.475 0.99 2.475 0.99 5 2 C4.67 2.99 4.34 3.98 4 5 C2.02 4.01 0.04 3.02 -2 2 C-1.34 1.34 -0.68 0.68 0 0 Z " fill="#C7C6C0" transform="translate(340,125)"/>
<path d="M0 0 C1.98 0 3.96 0 6 0 C6 0.99 6 1.98 6 3 C4.35 3 2.7 3 1 3 C0.67 2.01 0.34 1.02 0 0 Z " fill="#B7B7B2" transform="translate(302,40)"/>
<path d="M0 0 C-0.33 0.99 -0.66 1.98 -1 3 C-4.0625 4.1875 -4.0625 4.1875 -7 5 C-5.64703851 0.94111554 -4.27479763 0 0 0 Z " fill="#D4D3CD" transform="translate(155,29)"/>
</svg>
