<?xml version="1.0" encoding="UTF-8"?>
<svg version="1.1" xmlns="http://www.w3.org/2000/svg" width="500" height="500">
<path d="M0 0 C0.8350708 0.59506348 0.8350708 0.59506348 1.68701172 1.20214844 C12.30287991 8.829207 22.31871552 17.22708296 32 26 C36.18423892 22.49102731 40.19588166 18.91939465 44 15 C44.99 15.33 45.98 15.66 47 16 C45.43717018 19.76603869 43.0936525 22.13639151 40.2109375 24.984375 C39.74765045 25.44483215 39.2843634 25.90528931 38.80703735 26.37969971 C37.33434102 27.84125078 35.85482597 29.29567168 34.375 30.75 C33.37193678 31.74302611 32.36932743 32.73651089 31.3671875 33.73046875 C28.91669165 36.15897941 26.4600333 38.58114675 24 41 C27.18910435 45.35417446 30.37315821 49.54588371 34.125 53.4375 C68.28810626 90.98820839 84.17975074 142.09185848 86 192 C86.04253906 193.08667969 86.08507812 194.17335937 86.12890625 195.29296875 C86.61906072 220.55226263 81.60509669 246.31996966 73 270 C72.75056641 270.68900391 72.50113281 271.37800781 72.24414062 272.08789062 C61.93877347 299.9309263 46.04547078 324.43246154 25.65234375 345.90625 C23.69024909 347.94796199 23.69024909 347.94796199 24 351 C25.94572527 353.35171344 25.94572527 353.35171344 28.5 355.75 C29.41007812 356.63429688 30.32015625 357.51859375 31.2578125 358.4296875 C34.76139639 361.71367354 38.36304349 364.86584854 42 368 C44.5 370.25 44.5 370.25 46 372 C46 372.99 46 373.98 46 375 C42.31930113 373.46356148 40.01224796 371.21849055 37.25 368.375 C36.45078125 367.55773437 35.6515625 366.74046875 34.828125 365.8984375 C34.22484375 365.27195312 33.6215625 364.64546875 33 364 C28.40641933 367.23788208 24.20574721 370.696197 20.125 374.5625 C3.9769232 389.41336288 -15.19291301 400.76064898 -35 410 C-35.71075684 410.33386719 -36.42151367 410.66773438 -37.15380859 411.01171875 C-66.45433033 424.58002423 -99.72856894 431.39516038 -132 431 C-132 436.61 -132 442.22 -132 448 C-132.66 448 -133.32 448 -134 448 C-134 442.39 -134 436.78 -134 431 C-135.4540625 430.97421875 -136.908125 430.9484375 -138.40625 430.921875 C-183.67559592 429.78139769 -228.94191923 416.51006282 -266 390 C-267.06863281 389.24203125 -268.13726562 388.4840625 -269.23828125 387.703125 C-272.21138184 385.52824986 -275.11521224 383.29051361 -278 381 C-278.97582031 380.22914063 -279.95164062 379.45828125 -280.95703125 378.6640625 C-295.36192244 367.01136258 -308.90776038 353.64649058 -319.80566406 338.63867188 C-321.00233421 336.99679738 -322.22858707 335.38083212 -323.4609375 333.765625 C-352.77881235 294.75412315 -368.69512249 244.69515949 -368 196 C-373.61 196 -379.22 196 -385 196 C-385 195.34 -385 194.68 -385 194 C-379.39 194 -373.78 194 -368 194 C-368.061875 192.040625 -368.12375 190.08125 -368.1875 188.0625 C-368.72884477 127.2791993 -340.00480285 69.84004686 -298.29589844 27.12768555 C-292.19764016 20.95903533 -285.84817075 15.33598678 -279 10 C-278.05253906 9.22398438 -277.10507812 8.44796875 -276.12890625 7.6484375 C-199.12945214 -54.14730274 -80.17365319 -57.46783161 0 0 Z M-174 -34 C-174.89219238 -33.83371094 -175.78438477 -33.66742188 -176.70361328 -33.49609375 C-213.08770141 -26.48792268 -247.06000974 -11.20049498 -276 12 C-276.98484375 12.78117187 -277.9696875 13.56234375 -278.984375 14.3671875 C-292.5637345 25.37188678 -305.53509933 37.97852277 -316 52 C-316.72364746 52.94963623 -316.72364746 52.94963623 -317.46191406 53.91845703 C-325.70359636 64.76475113 -332.79663008 75.87602772 -339 88 C-339.41878418 88.80775879 -339.83756836 89.61551758 -340.26904297 90.44775391 C-356.79678737 122.60832886 -365 157.87413386 -365 194 C-350.15 194 -335.3 194 -320 194 C-319.62875 189.565625 -319.2575 185.13125 -318.875 180.5625 C-315.55779092 145.66995197 -304.28174001 112.15737909 -283 84 C-282.60409668 83.45891602 -282.20819336 82.91783203 -281.80029297 82.36035156 C-270.95865591 67.54955835 -258.01795004 54.56286438 -243 44 C-242.41927734 43.58556641 -241.83855469 43.17113281 -241.24023438 42.74414062 C-220.20670927 27.81056373 -196.03308037 17.97248222 -171 12 C-170.24976563 11.82065918 -169.49953125 11.64131836 -168.7265625 11.45654297 C-132.24203105 3.28485187 -91.62009729 9.28110862 -57.625 23.75 C-56.95855469 24.03141846 -56.29210937 24.31283691 -55.60546875 24.6027832 C-53.7890625 25.421875 -53.7890625 25.421875 -51 27 C-50.67 27.99 -50.34 28.98 -50 30 C-50.53141602 29.75878418 -51.06283203 29.51756836 -51.61035156 29.26904297 C-98.00029944 8.37866601 -148.40094346 3.74376948 -196.61279297 21.98876953 C-221.10202852 31.60585434 -242.07520834 44.7378411 -261 63 C-261.89976562 63.83660156 -262.79953125 64.67320313 -263.7265625 65.53515625 C-275.99748845 77.25795727 -285.88758984 91.13564598 -294 106 C-294.34369629 106.62696777 -294.68739258 107.25393555 -295.04150391 107.89990234 C-309.35324248 134.36755215 -317 163.91359197 -317 194 C-306.44 194 -295.88 194 -285 194 C-284.773125 190.65875 -284.54625 187.3175 -284.3125 183.875 C-281.22621459 146.2061453 -265.90829967 114.21960931 -240 87 C-239.40703125 86.35417969 -238.8140625 85.70835937 -238.203125 85.04296875 C-212.55558982 57.93530162 -173.32610799 44.31011727 -136.8203125 42.875 C-98.66811951 42.1701096 -60.48064184 54.77588246 -32.5 81.125 C-31.33984375 82.27355469 -31.33984375 82.27355469 -30.15625 83.4453125 C-28.18847654 85.21908811 -28.18847654 85.21908811 -26.13458252 84.8452301 C-23.33397128 83.73627278 -21.81070964 82.17044497 -19.69042969 80.03100586 C-18.84986023 79.19020981 -18.00929077 78.34941376 -17.14324951 77.48313904 C-16.24519592 76.56960159 -15.34714233 75.65606415 -14.421875 74.71484375 C-13.03201385 73.31861534 -13.03201385 73.31861534 -11.61407471 71.8941803 C-9.15460013 69.42326879 -6.70426899 66.94348031 -4.2557373 64.46173096 C-1.75407949 61.92934747 0.75612622 59.4054687 3.265625 56.88085938 C8.18548013 51.92886047 13.09572753 46.96743051 18 42 C17.06101837 40.88721031 16.11952502 39.77653977 15.17700195 38.66674805 C14.39097343 37.73864571 14.39097343 37.73864571 13.58906555 36.79179382 C0.39910777 21.91910033 -18.55921977 11.03701238 -36 2 C-37.16144531 1.38640625 -38.32289063 0.7728125 -39.51953125 0.140625 C-64.93785366 -12.52496194 -93.69485783 -19.37173195 -122 -20.5625 C-122.96550781 -20.60568359 -123.93101562 -20.64886719 -124.92578125 -20.69335938 C-127.28374425 -20.79841713 -129.64179416 -20.90056914 -132 -21 C-132.33 -21.99 -132.66 -22.98 -133 -24 C-108.44187768 -22.11686667 -84.31529042 -19.45789222 -61 -11 C-60.25927246 -10.73380859 -59.51854492 -10.46761719 -58.75537109 -10.19335938 C-28.6341012 0.809504 -3.53076073 17.40886814 20 39 C21.10865985 38.08877273 22.21172219 37.17073341 23.3125 36.25 C24.23482422 35.48429687 24.23482422 35.48429687 25.17578125 34.703125 C27.05932329 32.94461466 28.51573656 31.10080364 30 29 C-6.98692706 -6.56161195 -53.96185094 -29.73729793 -105 -36 C-106.0686731 -36.14139404 -106.0686731 -36.14139404 -107.15893555 -36.28564453 C-115.47293439 -37.26810418 -123.82746453 -37.24362819 -132.1875 -37.25 C-132.98512756 -37.25067474 -133.78275513 -37.25134949 -134.60455322 -37.25204468 C-147.93482279 -37.23419715 -160.87540177 -36.49105022 -174 -34 Z M20 44 C5.81 58.19 -8.38 72.38 -23 87 C-21.18239365 91.54401588 -20.24345128 93.07362995 -17 96.375 C8.43425539 123.97300424 19.87302154 163.77470121 19.24609375 200.7265625 C17.37851589 239.91782321 1.65977428 274.51248706 -25 303 C-21.31864988 311.58335844 -10.48774458 321.1214942 -2 325 C12.02603549 311.90903355 23.29566797 295.01944596 32 278 C32.66 278.33 33.32 278.66 34 279 C24.67081867 296.8327714 13.2754356 311.93567591 0 327 C3.27507173 334.4598856 11.42566382 341.33528253 18 346 C21.00494859 346.3093443 21.00494859 346.3093443 22.875 344.5234375 C54.84141282 312.20445395 74.67675882 268.72444506 81 224 C81.1016748 223.3409668 81.20334961 222.68193359 81.30810547 222.00292969 C82.41166726 213.85506349 82.24396228 205.58220255 82.25 197.375 C82.25067474 196.55153076 82.25134949 195.72806152 82.25204468 194.87963867 C82.1835478 142.1357614 63.9632757 94.44686965 30.25 54 C29.57795532 53.18909912 29.57795532 53.18909912 28.89233398 52.36181641 C26.0975255 49.06702639 23.44628533 46.75702826 20 44 Z M-241.04907227 91.6484375 C-250.85608529 101.86716487 -258.45396604 112.7445898 -265.07177734 125.2578125 C-265.83220185 126.6850585 -266.62461664 128.09521822 -267.42578125 129.5 C-284.69587797 161.00245655 -286.44500522 201.74630861 -276.94873047 235.79003906 C-265.37234315 275.10074751 -239.25777845 307.83205455 -203.40209961 327.78540039 C-181.98508999 339.14916157 -158.19896875 345 -134 345 C-134 336.42 -134 327.84 -134 319 C-133.34 319 -132.68 319 -132 319 C-132 327.58 -132 336.16 -132 345 C-93.28935219 343.75126943 -58.54947968 330.39427387 -30 304 C-29.18015625 303.25105469 -28.3603125 302.50210937 -27.515625 301.73046875 C-0.32256297 275.74277295 16.10541373 237.24074915 17.03125 199.78125 C17.15847711 162.18563856 5.36711811 126.76363177 -19 98 C-20.07894531 96.69289063 -20.07894531 96.69289063 -21.1796875 95.359375 C-23.48719935 92.58235061 -23.48719935 92.58235061 -26 90 C-26.66 90 -27.32 90 -28 90 C-28.22300781 89.43539062 -28.44601562 88.87078125 -28.67578125 88.2890625 C-40.1021993 68.53720122 -74.4630685 55.63261945 -95 50 C-148.14143654 36.21363907 -202.85358885 52.80528222 -241.04907227 91.6484375 Z M-365 196 C-364.32923283 213.73520681 -364.32923283 213.73520681 -362.25 231.1875 C-362.0744458 232.27498535 -361.8988916 233.3624707 -361.71801758 234.48291016 C-360.08763384 244.17959071 -357.90051624 253.60746958 -355 263 C-354.64711914 264.16112305 -354.64711914 264.16112305 -354.28710938 265.34570312 C-343.58015655 299.89610762 -324.29106811 332.96754685 -298 358 C-293 363 -293 363 -291.18359375 364.921875 C-280.52250595 375.99527006 -267.98737824 384.86467403 -255 393 C-254.29278809 393.4434375 -253.58557617 393.886875 -252.85693359 394.34375 C-227.34901606 410.14104399 -199.55964967 420.10635629 -170 425 C-169.30890137 425.11714355 -168.61780273 425.23428711 -167.90576172 425.35498047 C-156.45808244 427.2327012 -145.77236659 427 -134 427 C-134 412.48 -134 397.96 -134 383 C-140.06375 382.38125 -140.06375 382.38125 -146.25 381.75 C-197.27762814 376.17508888 -243.62746804 354.51578464 -276.91015625 314.5859375 C-304.69273274 279.95429293 -316.87785215 239.71006996 -320 196 C-334.85 196 -349.7 196 -365 196 Z M-317 196 C-316.02216996 223.77037312 -310.66074814 248.66706657 -299 274 C-298.68305176 274.69963867 -298.36610352 275.39927734 -298.03955078 276.12011719 C-289.18108358 295.49026475 -276.32660567 312.27652464 -261 327 C-259.824375 328.2065625 -259.824375 328.2065625 -258.625 329.4375 C-257.75875 330.283125 -256.8925 331.12875 -256 332 C-255.37480469 332.62132812 -254.74960938 333.24265625 -254.10546875 333.8828125 C-246.19039879 341.40684834 -237.19673305 347.17325282 -228 353 C-227.11900635 353.57065186 -227.11900635 353.57065186 -226.22021484 354.15283203 C-206.28546635 366.97448611 -182.53730441 374.26446151 -159.25 377.8125 C-158.44723633 377.93681396 -157.64447266 378.06112793 -156.81738281 378.18920898 C-149.0615934 379.24490145 -142.03961202 379 -134 379 C-134 368.77 -134 358.54 -134 348 C-138.7953125 347.6596875 -138.7953125 347.6596875 -143.6875 347.3125 C-179.55111119 344.28491275 -212.01902598 329.91792271 -238 305 C-238.88042969 304.18273437 -239.76085937 303.36546875 -240.66796875 302.5234375 C-270.29953898 274.18746484 -282.28970765 235.91521461 -285 196 C-295.56 196 -306.12 196 -317 196 Z M-28 306 C-30.04922093 307.5369157 -31.87172295 309.08563335 -33.75 310.8125 C-61.73997344 335.3125496 -95.48204046 345.39157432 -132 348 C-132 358.23 -132 368.46 -132 379 C-87.37517959 380.57963966 -41.85659722 362.01645068 -9 332 C-7.65185522 330.34529121 -6.31649717 328.67999725 -5 327 C-7.78694182 324.1635971 -10.58042817 321.33382309 -13.38012695 318.51000977 C-14.33149157 317.54859153 -15.28105291 316.58538536 -16.22875977 315.62036133 C-17.59175121 314.2330945 -18.96180411 312.85277672 -20.33203125 311.47265625 C-21.15421143 310.64000244 -21.9763916 309.80734863 -22.82348633 308.94946289 C-24.93059619 306.80236105 -24.93059619 306.80236105 -28 306 Z M-7.1875 333.8125 C-42.40738626 366.04679245 -85.57381809 378.2626345 -132 383 C-132 392.24 -132 401.48 -132 411 C-108.96995943 410.35580306 -86.9068901 407.3022967 -65 400 C-64.15018555 399.71672852 -63.30037109 399.43345703 -62.42480469 399.14160156 C-31.88809013 388.71695929 -6.51217367 371.78400616 17 350 C15.59155282 346.78475695 13.89655214 344.67816132 11.375 342.25 C10.74335938 341.63640625 10.11171875 341.0228125 9.4609375 340.390625 C8.73777344 339.70226562 8.73777344 339.70226562 8 339 C5.525 339.99 5.525 339.99 3 341 C3 340.01 3 339.02 3 338 C3.66 338 4.32 338 5 338 C3.55922954 334.63820226 1.75249979 332.40843732 -1 330 C-4.03022152 330 -5.02349991 331.74274447 -7.1875 333.8125 Z M13.5625 356.8125 C7.39569999 362.73988642 0.9291104 367.99066897 -6 373 C-6.55993652 373.40573242 -7.11987305 373.81146484 -7.69677734 374.22949219 C-44.6175327 400.64485248 -87.34745627 411.15541213 -132 414 C-132 418.29 -132 422.58 -132 427 C-80.02982365 429.13332537 -26.61738054 409.39703863 13 376 C13.62583984 375.47954102 14.25167969 374.95908203 14.89648438 374.42285156 C16.83355722 372.81055163 18.76258167 371.18928618 20.6875 369.5625 C21.276521 369.06613037 21.86554199 368.56976074 22.47241211 368.05834961 C25.35732164 365.58055215 27.88016769 363.16851261 30 360 C28.92643323 358.84501103 27.84070212 357.70132133 26.75 356.5625 C26.14671875 355.92441406 25.5434375 355.28632813 24.921875 354.62890625 C19.92012385 350.38961716 17.68336934 352.64544324 13.5625 356.8125 Z " fill="#0B0C0C" transform="translate(396,46)"/>
<path d="M0 0 C12.21 0 24.42 0 37 0 C37 6.9595202 36.97607967 13.18154748 35.875 19.9375 C35.68357422 21.12980225 35.68357422 21.12980225 35.48828125 22.34619141 C34.39658052 28.64437026 32.82184789 34.75090957 31 40.875 C30.7510498 41.71281006 30.50209961 42.55062012 30.24560547 43.41381836 C28.92819107 47.63825818 27.51251231 51.30600869 25 55 C20.15947461 54.20951097 15.63093326 52.62995062 11 51.0625 C10.2059375 50.79759766 9.411875 50.53269531 8.59375 50.25976562 C4.68083138 48.94567712 0.8114624 47.5906708 -3 46 C-2.91697632 45.13556274 -2.91697632 45.13556274 -2.83227539 44.25366211 C-1.43467076 29.50246155 -0.55184898 14.80794774 0 0 Z " fill="#1E1F21" transform="translate(301,244)"/>
<path d="M0 0 C12.21 0 24.42 0 37 0 C37.43014303 5.4075124 37.85835042 10.8151087 38.28173828 16.22314453 C38.42612725 18.06014688 38.57161764 19.89706302 38.71826172 21.73388672 C38.92970732 24.384868 39.13709704 27.03614132 39.34375 29.6875 C39.40937134 30.49928711 39.47499268 31.31107422 39.54260254 32.14746094 C39.92502852 37.11515128 40.05979047 42.01746122 40 47 C39.03320312 47.24234375 38.06640625 47.4846875 37.0703125 47.734375 C30.1524171 49.5050215 23.55425838 51.34180396 17.05078125 54.36328125 C14.53001196 55.1459201 13.43828878 54.97987306 11 54 C9.95092773 52.21264648 9.95092773 52.21264648 9.18359375 49.87109375 C8.75167725 48.57800293 8.75167725 48.57800293 8.31103516 47.25878906 C8.02276855 46.32776367 7.73450195 45.39673828 7.4375 44.4375 C7.13376465 43.48456055 6.8300293 42.53162109 6.51708984 41.54980469 C2.20898898 27.66426726 0.86684708 14.73640029 0 0 Z " fill="#1E1F21" transform="translate(189,244)"/>
<path d="M0 0 C3.49586205 8.94023738 5.71897035 17.78860112 7.3125 27.25 C7.48362305 28.24257812 7.65474609 29.23515625 7.83105469 30.2578125 C8.88804951 36.88545571 9.19960655 43.29387698 9 50 C3.89136104 50.0246501 -1.21724359 50.04283607 -6.32592773 50.05493164 C-8.06519168 50.05997204 -9.80445136 50.0668043 -11.54370117 50.07543945 C-14.03825937 50.08751792 -16.53276173 50.09323108 -19.02734375 50.09765625 C-19.80963852 50.10281754 -20.59193329 50.10797882 -21.39793396 50.11329651 C-23.26567114 50.11349226 -25.13329204 50.06199694 -27 50 C-28.92357131 48.07642869 -28.3889455 44.56209162 -28.53515625 41.9296875 C-28.57813339 41.21523468 -28.62111053 40.50078186 -28.66539001 39.76467896 C-28.75577461 38.24656923 -28.84388686 36.72832282 -28.92993164 35.20996094 C-29.06078168 32.90526521 -29.19869882 30.60108035 -29.33789062 28.296875 C-29.42490206 26.82033736 -29.5115032 25.34377547 -29.59765625 23.8671875 C-29.63826675 23.18461884 -29.67887726 22.50205017 -29.72071838 21.79879761 C-29.96009271 17.52725426 -30.03575795 13.27776226 -30 9 C-29.46632813 8.83395264 -28.93265625 8.66790527 -28.3828125 8.49682617 C-25.92113123 7.72941407 -23.46056681 6.9584776 -21 6.1875 C-20.16082031 5.92646484 -19.32164062 5.66542969 -18.45703125 5.39648438 C-14.44337127 4.13638182 -10.4832798 2.82762339 -6.5625 1.30078125 C-3 0 -3 0 0 0 Z " fill="#1E1F21" transform="translate(329,186)"/>
<path d="M0 0 C3.71926764 0.54344899 7.18360898 1.65009287 10.73828125 2.84765625 C11.80498047 3.20537109 12.87167969 3.56308594 13.97070312 3.93164062 C15.07349609 4.30482422 16.17628906 4.67800781 17.3125 5.0625 C18.43462891 5.43955078 19.55675781 5.81660156 20.71289062 6.20507812 C23.47618351 7.13401488 26.23850178 8.06574442 29 9 C29.13697767 17.74944841 28.5964118 26.4006367 28 35.125 C27.67 40.03375 27.34 44.9425 27 50 C14.79 50 2.58 50 -10 50 C-8.83812656 30.24815146 -8.83812656 30.24815146 -7.1875 22.6875 C-7.01371826 21.85500732 -6.83993652 21.02251465 -6.66088867 20.16479492 C-2.93895808 2.93895808 -2.93895808 2.93895808 0 0 Z " fill="#1E1F21" transform="translate(199,186)"/>
<path d="M0 0 C8.58 0 17.16 0 26 0 C24.9899398 24.24144472 17.02769273 49.09909226 0 67 C-1.98283479 65.88147781 -3.96117623 64.75498675 -5.9375 63.625 C-7.03964844 62.99851562 -8.14179688 62.37203125 -9.27734375 61.7265625 C-12 60 -12 60 -13 58 C-12.18356065 55.73177188 -11.30373461 53.5344404 -10.375 51.3125 C-3.89431477 34.88096191 -1.49211104 17.49839306 0 0 Z " fill="#1E1F21" transform="translate(346,244)"/>
<path d="M0 0 C8.58 0 17.16 0 26 0 C26.268125 2.289375 26.53625 4.57875 26.8125 6.9375 C29.04786068 24.9694095 33.06158832 41.80986092 39 59 C37.3990869 60.15037471 35.79414775 61.29514816 34.1875 62.4375 C32.84751953 63.39462891 32.84751953 63.39462891 31.48046875 64.37109375 C29 66 29 66 26 67 C10.62499341 48.13563021 0 24.76181092 0 0 Z " fill="#1E1F21" transform="translate(155,244)"/>
<path d="M0 0 C0.66 0 1.32 0 2 0 C15.71388154 18.12690249 24 40.21686851 24 63 C15.42 63 6.84 63 -2 63 C-2.4125 59.225625 -2.825 55.45125 -3.25 51.5625 C-4.67051184 39.3053981 -6.64293534 27.40193412 -10.8125 15.75 C-12.01959088 11.93813407 -12.31500629 10.66116289 -11 7 C-8.75 5.234375 -8.75 5.234375 -6 3.75 C-5.0925 3.24984375 -4.185 2.7496875 -3.25 2.234375 C-2.5075 1.82703125 -1.765 1.4196875 -1 1 C-0.67 0.67 -0.34 0.34 0 0 Z " fill="#1E1F21" transform="translate(348,173)"/>
<path d="M0 0 C4.71048959 2.59641365 9.41303332 5.18863332 14 8 C13.76216797 8.84304687 13.76216797 8.84304687 13.51953125 9.703125 C12.66062953 12.79706931 11.83205026 15.89872177 11 19 C10.80712402 19.69206543 10.61424805 20.38413086 10.41552734 21.09716797 C6.55683145 34.99755248 4.58490255 48.65246116 3 63 C-5.58 63 -14.16 63 -23 63 C-21.99159629 50.53246318 -20.26944477 39.72465261 -16 28 C-15.53787109 26.63488281 -15.53787109 26.63488281 -15.06640625 25.2421875 C-11.73495892 16.03258644 -6.22251308 7.51424012 0 0 Z " fill="#1F2022" transform="translate(178,173)"/>
<path d="M0 0 C2 1 2 1 2.60253906 2.72607422 C3.05088271 5.29110662 3.23070614 7.78148315 3.359375 10.3828125 C6.56778562 67.09744326 28.29457759 123.28581792 70 163 C75 168 75 168 76.59375 169.69921875 C86.93116289 180.49655891 99.37789598 189.09348271 112 197 C112.70721191 197.4434375 113.41442383 197.886875 114.14306641 198.34375 C144.43506626 217.10387131 177.71364787 227.25452128 213 231 C212.01 231.66 211.02 232.32 210 233 C211.65 233.33 213.3 233.66 215 234 C215 234.33 215 234.66 215 235 C174.65879022 232.95489564 133.84559496 218.4965969 101 195 C99.39705078 193.86304688 99.39705078 193.86304688 97.76171875 192.703125 C94.78861816 190.52824986 91.88478776 188.29051361 89 186 C88.02417969 185.22914063 87.04835938 184.45828125 86.04296875 183.6640625 C71.63807756 172.01136258 58.09223962 158.64649058 47.19433594 143.63867188 C45.99766579 141.99679738 44.77141293 140.38083212 43.5390625 138.765625 C15.54953985 101.52168013 -4.04746793 49.07297218 -1 2 C-0.67 1.34 -0.34 0.68 0 0 Z " fill="#0A0B0B" transform="translate(29,241)"/>
<path d="M0 0 C8.58 0 17.16 0 26 0 C26 14.19 26 28.38 26 43 C14.615 43.99 14.615 43.99 3 45 C0.72144963 29.80966419 -0.10957804 15.34092507 0 0 Z " fill="#1E1F21" transform="translate(234,244)"/>
<path d="M0 0 C8.58 0 17.16 0 26 0 C25.17639572 23.74725685 25.17639572 23.74725685 24 34.875 C23.9170166 35.67010986 23.8340332 36.46521973 23.74853516 37.28442383 C23.13565675 42.72868649 23.13565675 42.72868649 22 45 C14.74 44.34 7.48 43.68 0 43 C0 28.81 0 14.62 0 0 Z " fill="#1E1F21" transform="translate(268,244)"/>
<path d="M0 0 C-0.50827652 4.81367765 -1.46102865 8.40402626 -3.6875 12.6875 C-20.57794862 48.13308088 -19.79493302 89.4716265 -7 126 C0.02514062 145.7008311 14.15988659 171.10659106 32 183 C33.06246527 184.96752828 34.07137808 186.96587579 35 189 C31.61046907 188.41362741 29.93436296 187.32692896 27.49609375 184.9296875 C26.84334473 184.28854004 26.1905957 183.64739258 25.51806641 182.98681641 C24.83147949 182.28991699 24.14489258 181.59301758 23.4375 180.875 C22.72513184 180.1536084 22.01276367 179.4322168 21.27880859 178.68896484 C-5.8782555 150.65013812 -20.45523949 112.84710314 -20 74 C-24.66308199 73.97531354 -29.32612608 73.95714651 -33.98925781 73.94506836 C-35.57617861 73.94003412 -37.16309477 73.93320631 -38.75 73.92456055 C-41.02865749 73.91245518 -43.30725376 73.90676267 -45.5859375 73.90234375 C-46.29744965 73.89718246 -47.00896179 73.89202118 -47.74203491 73.88670349 C-51.49593556 73.82685242 -51.49593556 73.82685242 -55 75 C-56.47157917 75.05634712 -57.94590947 75.0478321 -59.41796875 75.00585938 C-60.33231689 74.9825354 -61.24666504 74.95921143 -62.1887207 74.93518066 C-63.17831787 74.90500854 -64.16791504 74.87483643 -65.1875 74.84375 C-66.20094482 74.81776733 -67.21438965 74.79178467 -68.25854492 74.76501465 C-72.60780672 74.65334487 -76.95670163 74.52943427 -81.30566406 74.40673828 C-84.47451365 74.31905698 -87.64348001 74.23749723 -90.8125 74.15625 C-91.80209717 74.12607788 -92.79169434 74.09590576 -93.8112793 74.06481934 C-94.72562744 74.04149536 -95.63997559 74.01817139 -96.58203125 73.99414062 C-97.38874268 73.97113892 -98.1954541 73.94813721 -99.02661133 73.92443848 C-101.07801411 73.86706399 -101.07801411 73.86706399 -103 75 C-105.88912732 74.91061582 -108.74393255 74.765952 -111.625 74.5625 C-112.42679688 74.51029297 -113.22859375 74.45808594 -114.0546875 74.40429688 C-116.03679103 74.27451629 -118.01844499 74.13790265 -120 74 C-120 73.34 -120 72.68 -120 72 C-114.39 72 -108.78 72 -103 72 C-103.061875 70.040625 -103.12375 68.08125 -103.1875 66.0625 C-103.36849744 49.66903381 -100.65640388 32.94814459 -97 17 C-96.34 17 -95.68 17 -95 17 C-94.67 16.34 -94.34 15.68 -94 15 C-93.78624082 21.94717343 -94.5969237 28.24609308 -95.875 35.0625 C-98.06681826 47.35523734 -99.11038098 59.54533365 -100 72 C-85.15 72 -70.3 72 -55 72 C-54.505 70.515 -54.505 70.515 -54 69 C-53.34 69.33 -52.68 69.66 -52 70 C-52 70.66 -52 71.32 -52 72 C-41.44 72 -30.88 72 -20 72 C-20 66.72 -20 61.44 -20 56 C-19.56961337 52.27842149 -19.09972172 48.77435486 -18.375 45.125 C-18.19751221 44.19937256 -18.02002441 43.27374512 -17.8371582 42.32006836 C-14.9354336 27.96164069 -10.09354358 13.85247716 -3 1 C-1 0 -1 0 0 0 Z " fill="#0C0C0C" transform="translate(131,168)"/>
<path d="M0 0 C0.495 0.99 0.495 0.99 1 2 C0.03859867 4.15317039 -0.98227662 6.21977199 -2.0625 8.3125 C-8.91697619 22.28375861 -12.32770666 37.73979858 -15 53 C-21.26475826 52.77625863 -26.5453345 51.29206907 -32.375 49.125 C-33.4278418 48.73997314 -33.4278418 48.73997314 -34.50195312 48.34716797 C-37.91230553 47.03657119 -40.70708469 45.92302944 -43 43 C-37.90198102 34.1492726 -32.77909687 25.69709957 -26 18 C-25.484375 17.39027344 -24.96875 16.78054687 -24.4375 16.15234375 C-18.11433237 9.21266727 -8.81137294 3.14216884 0 0 Z " fill="#1E1F20" transform="translate(245,134)"/>
<path d="M0 0 C17.85912304 4.69976922 31.10022759 20.81889721 40.3359375 35.88671875 C41.93675279 38.8816713 43.03544211 41.7507065 44 45 C41.00546371 46.16047323 38.00355624 47.30059834 35 48.4375 C34.16082031 48.76298828 33.32164062 49.08847656 32.45703125 49.42382812 C27.24777185 51.38234813 22.55041246 52.54388972 17 53 C15.23525548 48.19689818 14.12144504 43.32255722 12.99536133 38.34277344 C8.98668395 20.62156196 8.98668395 20.62156196 1.32421875 4.234375 C0 2 0 2 0 0 Z " fill="#1E1F21" transform="translate(281,134)"/>
<path d="M0 0 C7.92 0.66 15.84 1.32 24 2 C24 14.21 24 26.42 24 39 C15.42 39 6.84 39 -2 39 C-2.18811393 25.73796825 -1.59571227 13.16462619 0 0 Z " fill="#1E1E20" transform="translate(236,197)"/>
<path d="M0 0 C1.61844989 8.92504406 2.3016207 17.76077824 2.6875 26.8125 C2.75988892 28.43285156 2.75988892 28.43285156 2.83374023 30.0859375 C2.8909021 31.59994141 2.8909021 31.59994141 2.94921875 33.14453125 C2.98362061 34.05565674 3.01802246 34.96678223 3.0534668 35.90551758 C3 38 3 38 2 39 C0.14630389 39.08737645 -1.71067541 39.10698153 -3.56640625 39.09765625 C-4.57904541 39.09515869 -5.59168457 39.09266113 -6.63500977 39.09008789 C-7.93108154 39.08098389 -9.22715332 39.07187988 -10.5625 39.0625 C-14.666875 39.041875 -18.77125 39.02125 -23 39 C-23 26.79 -23 14.58 -23 2 C-19.9475 1.67 -16.895 1.34 -13.75 1 C-12.79448242 0.89558594 -11.83896484 0.79117188 -10.85449219 0.68359375 C-9.71222168 0.56177734 -9.71222168 0.56177734 -8.546875 0.4375 C-7.77182617 0.35371094 -6.99677734 0.26992187 -6.19824219 0.18359375 C-4.13842677 0.01156119 -2.06698688 0 0 0 Z " fill="#1E1F21" transform="translate(291,197)"/>
<path d="M0 0 C0 19.14 0 38.28 0 58 C-15.08928571 58 -15.08928571 58 -23 56 C-13.86524823 0 -13.86524823 0 0 0 Z " fill="#1E1F21" transform="translate(260,133)"/>
<path d="M0 0 C5.42241034 1.80747011 7.60386649 7.50388251 10.2890625 12.3046875 C16.91671173 25.68826304 20.55681879 41.19495139 22 56 C14.39939159 57.8833366 8.06719401 58 0 58 C0 38.86 0 19.72 0 0 Z " fill="#1D1E20" transform="translate(268,133)"/>
<path d="M0 0 C0.22550537 0.96486328 0.22550537 0.96486328 0.45556641 1.94921875 C5.51477944 24.2950558 5.51477944 24.2950558 15 45 C15 45.66 15 46.32 15 47 C0.14563481 44.51564624 -11.42973911 31.5317123 -20 20 C-26 11.05389222 -26 11.05389222 -26 8 C-23.50206261 7.03599018 -21.00186341 6.07872453 -18.5 5.125 C-17.80390625 4.85558594 -17.1078125 4.58617187 -16.390625 4.30859375 C-5.04115854 0 -5.04115854 0 0 0 Z " fill="#1D1D1F" transform="translate(231,298)"/>
<path d="M0 0 C2.34918832 0.49408735 4.62582961 1.05214656 6.9375 1.6875 C7.61176025 1.86958008 8.28602051 2.05166016 8.98071289 2.23925781 C14.4892539 3.7687158 19.7691732 5.68612838 25 8 C22.46892657 21.33443562 8.2834778 34.03777058 -2.41796875 41.37109375 C-5.89115489 43.56219605 -9.19524525 45.43733287 -13 47 C-13.99 46.67 -14.98 46.34 -16 46 C-15.56429688 45.14921875 -15.12859375 44.2984375 -14.6796875 43.421875 C-11.00185658 36.02155156 -8.04716264 28.61274264 -5.6875 20.6875 C-5.44563965 19.87700195 -5.2037793 19.06650391 -4.95458984 18.23144531 C-3.49977333 13.1770088 -2.37565574 8.1204267 -1.44067383 2.94458008 C-1 1 -1 1 0 0 Z " fill="#1D1E20" transform="translate(297,298)"/>
<path d="M0 0 C0 17.16 0 34.32 0 52 C-8.9727612 47.5136194 -12.91439095 36.09975662 -16 27 C-17.04598707 23.52088188 -17.98251939 20.02139363 -18.875 16.5 C-19.090354 15.65139404 -19.30570801 14.80278809 -19.52758789 13.9284668 C-20.58222848 9.52867222 -21.25166989 5.55966619 -21 1 C-19.37565503 0.82706593 -17.7504623 0.66209596 -16.125 0.5 C-15.22007812 0.4071875 -14.31515625 0.314375 -13.3828125 0.21875 C-8.93057808 -0.0691543 -4.46153339 0 0 0 Z " fill="#1F2022" transform="translate(260,295)"/>
<path d="M0 0 C11.25 0 11.25 0 15.625 0.5 C16.88183594 0.63921875 16.88183594 0.63921875 18.1640625 0.78125 C18.76992188 0.8534375 19.37578125 0.925625 20 1 C23.57433181 11.72299544 14.63884941 30.78876717 9.80859375 40.75 C7.4251395 45.03301066 4.73296783 48.79428752 1 52 C0.67 52 0.34 52 0 52 C0 34.84 0 17.68 0 0 Z " fill="#1E1F21" transform="translate(268,295)"/>
<path d="M0 0 C0.33 0 0.66 0 1 0 C1.21375918 6.94717343 0.4030763 13.24609308 -0.875 20.0625 C-3.06681826 32.35523734 -4.11038098 44.54533365 -5 57 C9.85 57 24.7 57 40 57 C40.33 56.01 40.66 55.02 41 54 C41.66 54.33 42.32 54.66 43 55 C43 55.66 43 56.32 43 57 C52.9 57 62.8 57 73 57 C72.505 57.99 72.505 57.99 72 59 C70.65252686 58.99214478 70.65252686 58.99214478 69.27783203 58.98413086 C65.94937501 58.96710275 62.62096419 58.95455663 59.29248047 58.94506836 C57.8510668 58.94003526 56.40965824 58.93320827 54.96826172 58.92456055 C52.89809915 58.91245017 50.82800399 58.90676153 48.7578125 58.90234375 C47.5114502 58.89710693 46.26508789 58.89187012 44.98095703 58.88647461 C42.07228894 58.79183413 42.07228894 58.79183413 40 60 C38.52842083 60.05634712 37.05409053 60.0478321 35.58203125 60.00585938 C34.66768311 59.9825354 33.75333496 59.95921143 32.8112793 59.93518066 C31.82168213 59.90500854 30.83208496 59.87483643 29.8125 59.84375 C28.79905518 59.81776733 27.78561035 59.79178467 26.74145508 59.76501465 C22.39219328 59.65334487 18.04329837 59.52943427 13.69433594 59.40673828 C10.52548635 59.31905698 7.35651999 59.23749723 4.1875 59.15625 C3.19790283 59.12607788 2.20830566 59.09590576 1.1887207 59.06481934 C0.27437256 59.04149536 -0.63997559 59.01817139 -1.58203125 58.99414062 C-2.38874268 58.97113892 -3.1954541 58.94813721 -4.02661133 58.92443848 C-6.07801411 58.86706399 -6.07801411 58.86706399 -8 60 C-10.88912732 59.91061582 -13.74393255 59.765952 -16.625 59.5625 C-17.42679688 59.51029297 -18.22859375 59.45808594 -19.0546875 59.40429688 C-21.03679103 59.27451629 -23.01844499 59.13790265 -25 59 C-25 58.34 -25 57.68 -25 57 C-19.39 57 -13.78 57 -8 57 C-8.061875 55.040625 -8.12375 53.08125 -8.1875 51.0625 C-8.36849744 34.66903381 -5.65640388 17.94814459 -2 2 C-1.34 2 -0.68 2 0 2 C0 1.34 0 0.68 0 0 Z " fill="#0B0D0C" transform="translate(36,183)"/>
<path d="M0 0 C13.62845883 6.17060655 24.7871117 13.95403622 35 25 C31.93325757 28.24198486 29.1309195 31.19934278 25 33 C22.22757318 32.12133717 21.18304114 31.28770974 19.61328125 28.8203125 C19.18402344 27.93085938 18.75476563 27.04140625 18.3125 26.125 C14.15692371 18.11894037 8.92346854 10.67696943 2.4375 4.375 C1.633125 3.59125 0.82875 2.8075 0 2 C0 1.34 0 0.68 0 0 Z " fill="#202121" transform="translate(309,141)"/>
<path d="M0 0 C0.66 0.33 1.32 0.66 2 1 C1.05125 1.86625 0.1025 2.7325 -0.875 3.625 C-9.26902275 12.03604916 -15.6962309 22.43558188 -21 33 C-24.21852831 32.36934243 -26.50801069 31.21979305 -29.25 29.4375 C-29.95640625 28.98246094 -30.6628125 28.52742188 -31.390625 28.05859375 C-31.92171875 27.70925781 -32.4528125 27.35992187 -33 27 C-32.33795753 20.94301569 -26.30617029 17.15044399 -21.90185547 13.47998047 C-16.30735463 9.12646775 -10.14969258 5.50805305 -4 2 C-3.2265625 1.55785156 -2.453125 1.11570313 -1.65625 0.66015625 C-1.1096875 0.44230469 -0.563125 0.22445312 0 0 Z " fill="#191A1A" transform="translate(217,141)"/>
<path d="M0 0 C2.77306065 2.77306065 4.54026221 5.27238913 6.625 8.5625 C10.05828145 13.80143318 13.82564653 18.38818595 18.1171875 22.94140625 C20 25 20 25 22 28 C9.74734544 26.2177957 -2.72946142 15.59307173 -10 6 C-6.7 4.02 -3.4 2.04 0 0 Z " fill="#1F2022" transform="translate(197,310)"/>
<path d="M0 0 C3.3 1.65 6.6 3.3 10 5 C10 6.32 10 7.64 10 9 C7.99850794 10.95890713 6.10029317 12.58190806 3.875 14.25 C3.25206055 14.72727539 2.62912109 15.20455078 1.98730469 15.69628906 C-2.42480688 19.00260826 -6.98028218 21.9868012 -11.75 24.75 C-12.64356201 25.27062012 -12.64356201 25.27062012 -13.55517578 25.80175781 C-15.00017018 26.60429904 -16.4970042 27.31218836 -18 28 C-18.66 27.67 -19.32 27.34 -20 27 C-19.39414062 26.3915625 -18.78828125 25.783125 -18.1640625 25.15625 C-10.82271611 17.47607224 -5.38607206 9.13340304 0 0 Z " fill="#202022" transform="translate(329,310)"/>
<path d="M0 0 C-0.41579686 4.37093775 -3.30202031 6.38326509 -6.4375 9.0625 C-14.93097002 16.59516449 -22.43320173 24.57137277 -28.52734375 34.19921875 C-29.01332031 34.79347656 -29.49929687 35.38773438 -30 36 C-30.99 36 -31.98 36 -33 36 C-32.48547417 31.52201739 -30.89537315 29.21556879 -28 25.8125 C-27.18273437 24.85085937 -26.36546875 23.88921875 -25.5234375 22.8984375 C-24.27433594 21.46371094 -24.27433594 21.46371094 -23 20 C-21.90558594 18.71996094 -21.90558594 18.71996094 -20.7890625 17.4140625 C-5.57235804 0 -5.57235804 0 0 0 Z " fill="#09090A" transform="translate(157,110)"/>
<path d="M0 0 C0.99 0 1.98 0 3 0 C2.58762199 5.05163063 1.5855442 9.62603416 0.1875 14.5 C-2.7663529 25.15767439 -4.31278604 36.08329168 -6 47 C-6.99 47 -7.98 47 -9 47 C-8.55245425 30.7764665 -5.71129763 15.22000061 0 0 Z " fill="#0C0C0C" transform="translate(103,183)"/>
<path d="M0 0 C3.00828582 1.31773204 4.73996372 2.60401219 6.75 5.1875 C11.93778599 11.4437382 18.29226017 16.29294571 24.6875 21.25 C25.23414307 21.67450439 25.78078613 22.09900879 26.34399414 22.53637695 C28.77502037 24.39800693 31.16736033 26.09510684 33.83203125 27.609375 C36 29 36 29 37 32 C36.01 32.33 35.02 32.66 34 33 C31.708791 31.66981741 29.67871765 30.32249709 27.5625 28.75 C26.94286377 28.29761963 26.32322754 27.84523926 25.68481445 27.37915039 C15.98162828 20.15970225 7.44192208 11.63378394 -1 3 C-0.67 2.01 -0.34 1.02 0 0 Z " fill="#0B0B0B" transform="translate(137,351)"/>
<path d="M0 0 C0.99 0 1.98 0 3 0 C3.13986328 0.59723877 3.27972656 1.19447754 3.42382812 1.80981445 C6.44948665 14.52901161 10.06655746 26.44152807 15.4609375 38.359375 C17 42 17 42 17 45 C16.01 45 15.02 45 14 45 C7.00877643 31.16234151 1.2389303 16.4237421 -1 1 C-0.67 0.67 -0.34 0.34 0 0 Z " fill="#0C0C0D" transform="translate(97,272)"/>
<path d="M0 0 C5.70293792 0.62577486 11.16325361 1.65640228 16.75 2.9375 C26.76404432 5.1550459 36.78845484 6.18221556 47 7 C47 8.32 47 9.64 47 11 C31.03666697 10.74176961 15.26787616 7.60391778 0 3 C0 2.01 0 1.02 0 0 Z " fill="#0A0B0A" transform="translate(211,400)"/>
<path d="M0 0 C0 0.99 0 1.98 0 3 C-0.76965088 3.18062988 -1.53930176 3.36125977 -2.33227539 3.54736328 C-21.75543317 8.04686182 -21.75543317 8.04686182 -40.41015625 14.93359375 C-43 16 -43 16 -46 16 C-45.76733398 14.125 -45.76733398 14.125 -45 12 C-43.15258789 10.875 -43.15258789 10.875 -40.72265625 10 C-39.82474365 9.67193359 -38.92683105 9.34386719 -38.00170898 9.00585938 C-37.03177002 8.67392578 -36.06183105 8.34199219 -35.0625 8 C-34.07644775 7.65259766 -33.09039551 7.30519531 -32.07446289 6.94726562 C-10.3990267 -0.48650417 -10.3990267 -0.48650417 0 0 Z " fill="#0B0B0B" transform="translate(238,73)"/>
<path d="M0 0 C0 0.99 0 1.98 0 3 C-9.38124503 7.68022202 -18.7301065 12.17242858 -28.6875 15.5 C-29.40405762 15.74250488 -30.12061523 15.98500977 -30.85888672 16.23486328 C-35.56717669 17.74710311 -40.07871697 18.51394735 -45 19 C-45 18.01 -45 17.02 -45 16 C-44.26064209 15.764021 -43.52128418 15.52804199 -42.75952148 15.28491211 C-23.79429193 9.24812444 -23.79429193 9.24812444 -5.625 1.21484375 C-3 0 -3 0 0 0 Z " fill="#090909" transform="translate(345,387)"/>
<path d="M0 0 C1.01441735 3.12128415 1.40042468 5.16627996 -0.046875 8.1796875 C-1.30705561 10.16907375 -2.60733218 12.1013456 -4 14 C-8.55737263 13.56179109 -11.57653445 13.14958831 -15 10 C-14.24626403 6.01472936 -12.70404986 3.97648867 -9.83203125 1.1953125 C-6.58781758 -0.92138128 -3.76260086 -0.38923457 0 0 Z " fill="#1C1D1D" transform="translate(199,158)"/>
<path d="M0 0 C13.62845883 6.17060655 24.7871117 13.95403622 35 25 C31.93325757 28.24198486 29.1309195 31.19934278 25 33 C22.22757318 32.12133717 21.18304114 31.28770974 19.61328125 28.8203125 C19.18402344 27.93085938 18.75476563 27.04140625 18.3125 26.125 C14.15692371 18.11894037 8.92346854 10.67696943 2.4375 4.375 C1.633125 3.59125 0.82875 2.8075 0 2 C0 1.34 0 0.68 0 0 Z M8 6 C9.34758028 10.31225691 11.68960208 13.36014547 14.41015625 16.87890625 C17.7362262 21.31639024 20.57435815 26.01640857 23 31 C24.11375 30.5875 25.2275 30.175 26.375 29.75 C27.00148438 29.51796875 27.62796875 29.2859375 28.2734375 29.046875 C30.46790368 27.71629369 31.04362922 26.33779524 32 24 C25.06405095 16.65065001 17.69220092 9.37120032 8 6 Z " fill="#0D0E0F" transform="translate(309,141)"/>
<path d="M0 0 C0.66 0.33 1.32 0.66 2 1 C2 1.66 2 2.32 2 3 C11.9 3 21.8 3 32 3 C31.67 3.66 31.34 4.32 31 5 C29.65252686 4.99214478 29.65252686 4.99214478 28.27783203 4.98413086 C24.94937501 4.96710275 21.62096419 4.95455663 18.29248047 4.94506836 C16.8510668 4.94003526 15.40965824 4.93320827 13.96826172 4.92456055 C11.89809915 4.91245017 9.82800399 4.90676153 7.7578125 4.90234375 C5.88826904 4.89448853 5.88826904 4.89448853 3.98095703 4.88647461 C1.07228894 4.79183413 1.07228894 4.79183413 -1 6 C-3.70150557 6.01662063 -6.37221408 5.9727682 -9.0703125 5.87890625 C-9.86654022 5.85529526 -10.66276794 5.83168427 -11.48312378 5.80735779 C-14.03059529 5.73067789 -16.5777661 5.64667239 -19.125 5.5625 C-20.85024562 5.50928363 -22.57550598 5.4565432 -24.30078125 5.40429688 C-28.53404522 5.27505693 -32.76705382 5.13924581 -37 5 C-36.67 4.34 -36.34 3.68 -36 3 C-24.45 3 -12.9 3 -1 3 C-0.67 2.01 -0.34 1.02 0 0 Z " fill="#494A4C" transform="translate(77,237)"/>
<path d="M0 0 C2.475 0.495 2.475 0.495 5 1 C5.13697767 9.74944841 4.5964118 18.4006367 4 27.125 C3.67 32.03375 3.34 36.9425 3 42 C-9.21 42 -21.42 42 -34 42 C-34 34 -34 34 -32 30 C-32 32.97 -32 35.94 -32 39 C-20.78 39.33 -9.56 39.66 2 40 C1.95875 37.4425 1.9175 34.885 1.875 32.25 C1.79694206 22.08152556 2.82052627 12.08871276 4 2 C2.68 1.67 1.36 1.34 0 1 C0 0.67 0 0.34 0 0 Z " fill="#131314" transform="translate(223,194)"/>
<path d="M0 0 C1.2923571 3.87707129 0.24916347 6.52058899 -0.8125 10.3125 C-2.81934175 17.83556596 -4.08092775 25.26044418 -5 33 C-4.40985107 32.96447021 -3.81970215 32.92894043 -3.21166992 32.89233398 C-0.53726172 32.73470626 2.1375704 32.58600534 4.8125 32.4375 C6.2056543 32.35338867 6.2056543 32.35338867 7.62695312 32.26757812 C8.51962891 32.21923828 9.41230469 32.17089844 10.33203125 32.12109375 C11.15421143 32.0739624 11.9763916 32.02683105 12.82348633 31.97827148 C15 32 15 32 18 33 C17.98839844 32.39414063 17.97679687 31.78828125 17.96484375 31.1640625 C17.8309898 18.73476703 17.8309898 18.73476703 19 13 C19.66 12.34 20.32 11.68 21 11 C20.8583467 13.87526069 20.71181468 16.75013536 20.5625 19.625 C20.52318359 20.43324219 20.48386719 21.24148437 20.44335938 22.07421875 C20.40146484 22.86699219 20.35957031 23.65976563 20.31640625 24.4765625 C20.27974854 25.19924316 20.24309082 25.92192383 20.20532227 26.66650391 C19.95931043 29.4624387 19.46142474 32.23145157 19 35 C10.42 35 1.84 35 -7 35 C-5.99361816 22.55746089 -4.23577044 11.72112048 0 0 Z " fill="#151516" transform="translate(162,201)"/>
<path d="M0 0 C0.99 0.33 1.98 0.66 3 1 C2.45642559 4.91022879 0.72972748 6.50252154 -2.125 9.125 C-7.56100786 14.37057446 -11.92111267 20.14382557 -15.5078125 26.796875 C-16.24644531 27.88742188 -16.24644531 27.88742188 -17 29 C-17.99 29 -18.98 29 -20 29 C-18.36105499 17.7643408 -7.25293649 8.2652511 0 0 Z " fill="#090909" transform="translate(168,143)"/>
<path d="M0 0 C24.17177914 11.25766871 24.17177914 11.25766871 30 20 C29.01 20.33 28.02 20.66 27 21 C24.59758655 19.57902362 22.38708174 18.11988903 20.125 16.5 C13.31942993 11.77838038 6.37993434 7.75841513 -1 4 C-0.67 2.68 -0.34 1.36 0 0 Z " fill="#0B0B0B" transform="translate(320,117)"/>
<path d="M0 0 C3.02240067 0.30632439 3.97025952 0.9680793 6.078125 3.23046875 C10.20613052 8.85079281 14.06593362 14.52434515 17.5625 20.5625 C17.90893555 21.15764404 18.25537109 21.75278809 18.61230469 22.3659668 C20.16778836 25.13821443 21 26.76654134 21 30 C19.12988281 29.70288086 19.12988281 29.70288086 17 29 C15.42168124 26.53461862 14.07217567 24.15916056 12.75 21.5625 C9.50633074 15.45280705 6.03505363 10.12936873 1.43359375 4.91796875 C0 3 0 3 0 0 Z " fill="#0C0C0C" transform="translate(365,154)"/>
<path d="M0 0 C0 17.16 0 34.32 0 52 C-3.74392306 50.12803847 -4.60045413 49.59931881 -6.75 46.375 C-7.17796875 45.74335938 -7.6059375 45.11171875 -8.046875 44.4609375 C-8.51867187 43.73777344 -8.51867187 43.73777344 -9 43 C-8.01 42.505 -8.01 42.505 -7 42 C-5.35 44.31 -3.7 46.62 -2 49 C-1.67 33.16 -1.34 17.32 -1 1 C-1.99 1.33 -2.98 1.66 -4 2 C-6.56634861 2.22718496 -9.11678107 2.41608184 -11.6875 2.5625 C-12.38939453 2.60568359 -13.09128906 2.64886719 -13.81445312 2.69335938 C-15.54275206 2.7991736 -17.2713511 2.90006581 -19 3 C-18.67 7.29 -18.34 11.58 -18 16 C-19.8844171 12.2311658 -20.33429462 10.31987525 -20.625 6.25 C-20.69976562 5.26515625 -20.77453125 4.2803125 -20.8515625 3.265625 C-20.90054688 2.51796875 -20.94953125 1.7703125 -21 1 C-19.37565503 0.82706593 -17.7504623 0.66209596 -16.125 0.5 C-15.22007812 0.4071875 -14.31515625 0.314375 -13.3828125 0.21875 C-8.93057808 -0.0691543 -4.46153339 0 0 0 Z " fill="#0D0E0F" transform="translate(260,295)"/>
<path d="M0 0 C0.99 0 1.98 0 3 0 C0.16537999 11.70721112 -4.45596641 22.3365822 -10 33 C-10.99 33 -11.98 33 -13 33 C-12.45063571 28.15094452 -10.98758975 24.65996378 -8.6875 20.375 C-5.76692633 14.80377767 -3.56021676 9.26558298 -1.7265625 3.23046875 C-1 1 -1 1 0 0 Z " fill="#0D0D0D" transform="translate(391,277)"/>
<path d="M0 0 C0 0.99 0 1.98 0 3 C-23.45449601 9.44216824 -23.45449601 9.44216824 -35 9 C-34.67 8.01 -34.34 7.02 -34 6 C-33.37544922 5.88930176 -32.75089844 5.77860352 -32.10742188 5.66455078 C-29.23776272 5.15423575 -26.36888522 4.63964735 -23.5 4.125 C-22.51773437 3.95097656 -21.53546875 3.77695312 -20.5234375 3.59765625 C-16.15255659 2.81089769 -11.82766202 1.99708806 -7.53125 0.8671875 C-4 0 -4 0 0 0 Z " fill="#0B0C0C" transform="translate(306,367)"/>
<path d="M0 0 C0.99 0 1.98 0 3 0 C5.86416408 11.76253791 6.12450493 22.95068948 6 35 C4.515 35.495 4.515 35.495 3 36 C2.94465088 35.30028076 2.88930176 34.60056152 2.83227539 33.87963867 C2.57633892 30.64887349 2.31942433 27.41818677 2.0625 24.1875 C1.97548828 23.08728516 1.88847656 21.98707031 1.79882812 20.85351562 C1.24483527 13.89782755 0.64873602 6.94750004 0 0 Z " fill="#0B0B0D" transform="translate(393,212)"/>
<path d="M0 0 C0 0.99 0 1.98 0 3 C-1.61455078 3.52787109 -1.61455078 3.52787109 -3.26171875 4.06640625 C-11.85448124 6.94744508 -19.69224363 10.13118467 -27.55859375 14.6796875 C-30 16 -30 16 -32 16 C-32 14.68 -32 13.36 -32 12 C-29.00262913 10.55697227 -26.00164264 9.12161815 -23 7.6875 C-22.16082031 7.28337891 -21.32164062 6.87925781 -20.45703125 6.46289062 C-5.76671975 -0.54062998 -5.76671975 -0.54062998 0 0 Z " fill="#0C0C0D" transform="translate(226,111)"/>
<path d="M0 0 C1.72283203 0.59748047 1.72283203 0.59748047 3.48046875 1.20703125 C12.58338136 4.32516687 21.55448936 7.09754733 31 9 C31 10.32 31 11.64 31 13 C19.82220567 11.1451695 9.58286903 8.00257837 -1 4 C-0.67 2.68 -0.34 1.36 0 0 Z " fill="#090909" transform="translate(210,362)"/>
<path d="M0 0 C11.25 0 11.25 0 15.625 0.5 C16.88183594 0.63921875 16.88183594 0.63921875 18.1640625 0.78125 C18.76992188 0.8534375 19.37578125 0.925625 20 1 C21.26977059 4.80931176 20.52074507 6.81618993 19.5625 10.6875 C19.13130859 12.45673828 19.13130859 12.45673828 18.69140625 14.26171875 C18.46324219 15.16535156 18.23507812 16.06898438 18 17 C17.67 17 17.34 17 17 17 C17.14183696 15.24967156 17.28863429 13.49974466 17.4375 11.75 C17.51871094 10.77546875 17.59992188 9.8009375 17.68359375 8.796875 C18 6 18 6 19 2 C13.06 2 7.12 2 1 2 C1 17.18 1 32.36 1 48 C2.65 47.01 4.3 46.02 6 45 C4.46126823 48.71860179 3.52488612 49.35633541 0 52 C0 34.84 0 17.68 0 0 Z " fill="#101113" transform="translate(268,295)"/>
<path d="M0 0 C-0.56415739 3.55496439 -1.69180062 4.97388703 -4.4375 7.25 C-5.15550781 7.84941406 -5.87351562 8.44882812 -6.61328125 9.06640625 C-7.79470703 10.02353516 -7.79470703 10.02353516 -9 11 C-9.83917969 11.68964844 -10.67835938 12.37929688 -11.54296875 13.08984375 C-23.74150372 23 -23.74150372 23 -28 23 C-28 22.01 -28 21.02 -28 20 C-25.92886345 18.35216143 -23.88891091 16.89147097 -21.6875 15.4375 C-15.67760131 11.34092238 -10.41153144 6.90778926 -5.20703125 1.8359375 C-3 0 -3 0 0 0 Z " fill="#0A0A0A" transform="translate(361,333)"/>
<path d="M0 0 C11.55463979 -0.20923895 22.59838312 -0.1142071 34 2 C34 3.32 34 4.64 34 6 C33.22140625 5.86722656 32.4428125 5.73445313 31.640625 5.59765625 C21.11155812 3.93581044 10.64070621 3.40678756 0 3 C0 2.01 0 1.02 0 0 Z " fill="#101111" transform="translate(256,105)"/>
<path d="M0 0 C0 19.14 0 38.28 0 58 C-4.29 58 -8.58 58 -13 58 C-12.67 57.34 -12.34 56.68 -12 56 C-10.741875 55.979375 -9.48375 55.95875 -8.1875 55.9375 C-7.12595703 55.92009766 -7.12595703 55.92009766 -6.04296875 55.90234375 C-4 56 -4 56 -1 57 C-1.1173994 49.77331301 -1.24223413 42.54678229 -1.37231445 35.3203125 C-1.41570779 32.86038141 -1.45737956 30.40041935 -1.49731445 27.94042969 C-1.55491057 24.41071216 -1.61863557 20.88115124 -1.68359375 17.3515625 C-1.70030624 16.24632233 -1.71701874 15.14108215 -1.73423767 14.00234985 C-1.75418289 12.98144257 -1.77412811 11.96053528 -1.79467773 10.90869141 C-1.81022202 10.00712311 -1.8257663 9.10555481 -1.84178162 8.17666626 C-1.86435092 5.95363699 -1.86435092 5.95363699 -3 4 C-4.65 5.65 -6.3 7.3 -8 9 C-6.68994234 5.06982701 -4.75047804 0 0 0 Z " fill="#101213" transform="translate(260,133)"/>
<path d="M0 0 C2.31834798 3.47752197 2.90012961 6.66003136 3.625 10.6875 C3.7590625 11.37005859 3.893125 12.05261719 4.03125 12.75585938 C4.15757812 13.43841797 4.28390625 14.12097656 4.4140625 14.82421875 C4.5270166 15.43354248 4.6399707 16.04286621 4.75634766 16.6706543 C5.11464699 20.096039 5 23.55592701 5 27 C-3.58 27 -12.16 27 -21 27 C-21 24.03 -21 21.06 -21 18 C-20.67 18 -20.34 18 -20 18 C-20 20.31 -20 22.62 -20 25 C-12.41 25 -4.82 25 3 25 C2.690625 22.545625 2.38125 20.09125 2.0625 17.5625 C1.32825883 11.71290683 0.62808336 5.86211136 0 0 Z " fill="#111212" transform="translate(367,209)"/>
<path d="M0 0 C0.33 0 0.66 0 1 0 C1 3.63 1 7.26 1 11 C-10.88 11 -22.76 11 -35 11 C-35.33 9.68 -35.66 8.36 -36 7 C-35.01 7.495 -35.01 7.495 -34 8 C-31.44893971 8.15644172 -28.92081337 8.25821389 -26.3671875 8.31640625 C-25.61535187 8.33718735 -24.86351624 8.35796844 -24.08889771 8.37937927 C-21.68435915 8.44482705 -19.27971033 8.50373738 -16.875 8.5625 C-15.24608229 8.60568977 -13.61717578 8.64930421 -11.98828125 8.69335938 C-7.99230085 8.80050351 -3.99620941 8.90178433 0 9 C-0.185625 7.700625 -0.37125 6.40125 -0.5625 5.0625 C-0.87890625 2.84765625 -0.87890625 2.84765625 -1 1 C-0.67 0.67 -0.34 0.34 0 0 Z " fill="#121212" transform="translate(337,225)"/>
<path d="M0 0 C8.1184065 2.13642276 15.46275174 6.72445197 21 13 C17.9168649 11.80100302 14.93720508 10.52299523 12 9 C12 8.34 12 7.68 12 7 C10.35 7.66 8.7 8.32 7 9 C7 9.99 7 10.98 7 12 C7.66 12.33 8.32 12.66 9 13 C9 14.98 9 16.96 9 19 C6.57377534 16.57377534 5.78499587 14.36473063 4.5 11.1875 C4.0771875 10.14980469 3.654375 9.11210937 3.21875 8.04296875 C2.8165625 7.03878906 2.414375 6.03460938 2 5 C1.6184375 4.04738281 1.236875 3.09476563 0.84375 2.11328125 C0.5653125 1.41589844 0.286875 0.71851563 0 0 Z " fill="#111113" transform="translate(281,134)"/>
<path d="M0 0 C4.71048959 2.59641365 9.41303332 5.18863332 14 8 C13.76216797 8.84304687 13.76216797 8.84304687 13.51953125 9.703125 C10.82207094 19.41994337 8.42358925 29.21215144 6 39 C5.67 39 5.34 39 5 39 C4.52240125 32.15441792 5.93923525 25.52260402 8 19 C8.66 18.67 9.32 18.34 10 18 C10.46651207 15.87423218 10.46651207 15.87423218 10.625 13.4375 C10.69976562 12.61121094 10.77453125 11.78492188 10.8515625 10.93359375 C10.90054688 10.29550781 10.94953125 9.65742188 11 9 C9.7636832 8.10577086 8.51028438 7.23512109 7.25 6.375 C6.55390625 5.88773438 5.8578125 5.40046875 5.140625 4.8984375 C3.02764571 3.71933774 3.02764571 3.71933774 0.984375 4.7890625 C0.32953125 5.18867188 -0.3253125 5.58828125 -1 6 C-2.32 6.33 -3.64 6.66 -5 7 C-3.35 4.69 -1.7 2.38 0 0 Z " fill="#101012" transform="translate(178,173)"/>
<path d="M0 0 C2 2 2 2 2.22705078 4.24658203 C2.21657715 5.15778809 2.20610352 6.06899414 2.1953125 7.0078125 C2.18886719 7.99394531 2.18242188 8.98007813 2.17578125 9.99609375 C2.15902344 11.02863281 2.14226562 12.06117188 2.125 13.125 C2.11597656 14.16527344 2.10695313 15.20554688 2.09765625 16.27734375 C2.07403747 18.85179092 2.04110149 21.42578212 2 24 C1.01 24 0.02 24 -1 24 C-1 20.7 -1 17.4 -1 14 C-1.99 13.67 -2.98 13.34 -4 13 C-3.01 12.67 -2.02 12.34 -1 12 C-1.020625 10.948125 -1.04125 9.89625 -1.0625 8.8125 C-1.01103198 5.67295096 -0.73482813 3.03116604 0 0 Z " fill="#121312" transform="translate(112,228)"/>
<path d="M0 0 C3.68754757 0.49831724 5.60490662 1.10067643 8 4 C5.18134715 8.31606218 5.18134715 8.31606218 3 10 C0.05171839 10.24523599 -2.07230735 9.69470673 -5 9 C-4.34 8.34 -3.68 7.68 -3 7 C-1.96157435 4.68351201 -0.9578025 2.35096976 0 0 Z " fill="#1F2022" transform="translate(329,313)"/>
<path d="M0 0 C2.71191737 2.62309911 5.09942405 5.30510736 7.375 8.3125 C10.45618616 12.33201715 13.67100333 16.18383308 17 20 C12.93774452 19.42176904 10.15237654 18.10882263 6.6875 15.9375 C5.80449219 15.38964844 4.92148438 14.84179688 4.01171875 14.27734375 C3.34785156 13.85582031 2.68398437 13.43429687 2 13 C2.99 12.67 3.98 12.34 5 12 C5.66 12.33 6.32 12.66 7 13 C6.34 11.35 5.68 9.7 5 8 C4.34 8 3.68 8 3 8 C0.95830515 5.09451118 0 3.59857954 0 0 Z " fill="#0C0D0E" transform="translate(202,318)"/>
<path d="M0 0 C0.98291016 0.00966797 1.96582031 0.01933594 2.97851562 0.02929688 C4.00267578 0.05443359 5.02683594 0.07957031 6.08203125 0.10546875 C7.11779297 0.11900391 8.15355469 0.13253906 9.22070312 0.14648438 C11.77916824 0.18185486 14.33658905 0.23121331 16.89453125 0.29296875 C14.5814764 2.6060236 12.97535461 3.23659378 9.71801758 3.40649414 C8.8958374 3.40125732 8.07365723 3.39602051 7.2265625 3.390625 C6.33388672 3.38740234 5.44121094 3.38417969 4.52148438 3.38085938 C3.12833008 3.36829102 3.12833008 3.36829102 1.70703125 3.35546875 C0.76666016 3.35095703 -0.17371094 3.34644531 -1.14257812 3.34179688 C-3.46360587 3.33001501 -5.78450519 3.31356433 -8.10546875 3.29296875 C-5.60795648 0.15933179 -3.93251113 -0.06819383 0 0 Z " fill="#101212" transform="translate(277.10546875,455.70703125)"/>
<path d="M0 0 C2.27057377 -0.05398987 4.54151288 -0.09278742 6.8125 -0.125 C8.07707031 -0.14820312 9.34164063 -0.17140625 10.64453125 -0.1953125 C14 0 14 0 17 2 C17 2.66 17 3.32 17 4 C11.39 4 5.78 4 0 4 C0 2.68 0 1.36 0 0 Z " fill="#070707" transform="translate(256,88)"/>
<path d="M0 0 C3.3 1.65 6.6 3.3 10 5 C10 9 10 9 8.71484375 10.46386719 C8.12832031 10.90375977 7.54179687 11.34365234 6.9375 11.796875 C6.30585938 12.28027344 5.67421875 12.76367188 5.0234375 13.26171875 C4.02183594 13.99841797 4.02183594 13.99841797 3 14.75 C1.99839844 15.50990234 1.99839844 15.50990234 0.9765625 16.28515625 C-0.67380781 17.53472235 -2.33583876 18.7688603 -4 20 C-4.66 19.67 -5.32 19.34 -6 19 C-4.71034824 17.62437146 -3.37310707 16.29233607 -2 15 C-1.34 15 -0.68 15 0 15 C0.33 14.01 0.66 13.02 1 12 C1.99 11.67 2.98 11.34 4 11 C5.69882448 8.50240018 5.69882448 8.50240018 7 6 C3.77208445 3.8480563 2.71599191 3.79913557 -1 4 C-0.67 2.68 -0.34 1.36 0 0 Z " fill="#0C0D0E" transform="translate(329,310)"/>
<path d="M0 0 C2.83328987 2.83328987 3.7191375 4.35446828 5 8 C4.443125 7.319375 3.88625 6.63875 3.3125 5.9375 C1.16532835 3.682489 1.16532835 3.682489 -1.625 4.1875 C-3.97842556 4.93353681 -3.97842556 4.93353681 -6 6 C-4.5954202 9.37681361 -3.06113674 10.9450683 -0.0625 13 C2.91895324 15.050794 4.94475384 17.01055104 7 20 C0.30708501 16.9121324 -5.78217388 12.05166356 -10 6 C-6.7 4.02 -3.4 2.04 0 0 Z " fill="#0A0A0C" transform="translate(197,310)"/>
<path d="M0 0 C-0.33 0.66 -0.66 1.32 -1 2 C-1.69867188 1.98839844 -2.39734375 1.97679687 -3.1171875 1.96484375 C-4.02726562 1.95582031 -4.93734375 1.94679687 -5.875 1.9375 C-6.77992187 1.92589844 -7.68484375 1.91429687 -8.6171875 1.90234375 C-11.0168585 1.83750743 -11.0168585 1.83750743 -13 3 C-15.88912732 2.91061582 -18.74393255 2.765952 -21.625 2.5625 C-22.42679688 2.51029297 -23.22859375 2.45808594 -24.0546875 2.40429688 C-26.03679103 2.27451629 -28.01844499 2.13790265 -30 2 C-30 1.34 -30 0.68 -30 0 C-9.46808511 -1.38297872 -9.46808511 -1.38297872 0 0 Z " fill="#262728" transform="translate(41,240)"/>
<path d="M0 0 C1.33833505 4.01500515 0.19202317 6.99092756 -0.875 10.9375 C-1.06191406 11.65357422 -1.24882812 12.36964844 -1.44140625 13.10742188 C-2.13628208 15.76618437 -2.84471233 18.42126237 -3.55688477 21.07543945 C-4.11652162 23.50608259 -4.09527492 25.75910604 -4.0625 28.25 C-4.04896484 29.58804688 -4.04896484 29.58804688 -4.03515625 30.953125 C-4.02355469 31.62859375 -4.01195312 32.3040625 -4 33 C-1.03 33.33 1.94 33.66 5 34 C5 34.33 5 34.66 5 35 C1.04 35 -2.92 35 -7 35 C-6.1031494 22.68503653 -4.20111934 11.62523481 0 0 Z " fill="#111112" transform="translate(162,201)"/>
<path d="M0 0 C6.93 0 13.86 0 21 0 C20.51879078 8.18055666 19.89330905 16.02236769 18 24 C17.67 24 17.34 24 17 24 C17.33 16.74 17.66 9.48 18 2 C12.06 1.67 6.12 1.34 0 1 C0 0.67 0 0.34 0 0 Z " fill="#0F1011" transform="translate(351,244)"/>
<path d="M0 0 C1.30710937 -0.00257813 2.61421875 -0.00515625 3.9609375 -0.0078125 C7.00515313 0.1025322 9.67705898 0.40793326 12.625 1.125 C12.625 1.455 12.625 1.785 12.625 2.125 C8.00040756 3.30200048 3.54633538 3.23908412 -1.1875 3.1875 C-2.36989258 3.18073242 -2.36989258 3.18073242 -3.57617188 3.17382812 C-5.50914761 3.16211312 -7.44208393 3.14417998 -9.375 3.125 C-9.705 2.465 -10.035 1.805 -10.375 1.125 C-6.767112 -0.07762933 -3.80281238 -0.00747114 0 0 Z " fill="#141414" transform="translate(264.375,5.875)"/>
<path d="M0 0 C1.0625 1.75 1.0625 1.75 2 4 C1.67 5.32 1.34 6.64 1 8 C-6.26 8 -13.52 8 -21 8 C-20.67 7.34 -20.34 6.68 -20 6 C-13.73 5.67 -7.46 5.34 -1 5 C-0.67 3.35 -0.34 1.7 0 0 Z " fill="#151515" transform="translate(292,228)"/>
<path d="M0 0 C0.33 0 0.66 0 1 0 C1.900064 7.86947852 2.12532365 14.38837576 0 22 C-0.74534299 25.45712282 -1.48211388 28.916013 -2.21875 32.375 C-2.4765625 33.24125 -2.734375 34.1075 -3 35 C-3.99 35.495 -3.99 35.495 -5 36 C-4.82609741 34.89712646 -4.82609741 34.89712646 -4.64868164 33.77197266 C-4.11709136 30.39009144 -3.58977026 27.00755733 -3.0625 23.625 C-2.88009766 22.46871094 -2.69769531 21.31242187 -2.50976562 20.12109375 C-1.46951522 13.42566386 -0.57792228 6.75175314 0 0 Z " fill="#131415" transform="translate(346,244)"/>
<path d="M0 0 C0.66 0.33 1.32 0.66 2 1 C1.56429687 1.4125 1.12859375 1.825 0.6796875 2.25 C-3.72116319 6.51749158 -7.45604196 11.00211045 -11 16 C-11.33 15.01 -11.66 14.02 -12 13 C-10.59554165 10.7363436 -8.8032087 8.9791315 -7 7 C-8.65 7.33 -10.3 7.66 -12 8 C-8.71268307 4.16479692 -4.74852829 1.67534656 0 0 Z " fill="#0E0E10" transform="translate(217,141)"/>
<path d="M0 0 C0.33 0 0.66 0 1 0 C1.33 2.64 1.66 5.28 2 8 C2.66 7.34 3.32 6.68 4 6 C4 10.29 4 14.58 4 19 C3.34 18.01 2.68 17.02 2 16 C1.67 19.3 1.34 22.6 1 26 C0.67 26 0.34 26 0 26 C0 17.42 0 8.84 0 0 Z " fill="#040404" transform="translate(478,232)"/>
<path d="M0 0 C6.64615385 3.32307692 6.64615385 3.32307692 8.4375 6.75 C8.623125 7.4925 8.80875 8.235 9 9 C8.01 9 7.02 9 6 9 C5.175 9.680625 4.35 10.36125 3.5 11.0625 C2.675 11.701875 1.85 12.34125 1 13 C0.01 12.67 -0.98 12.34 -2 12 C-0.625 10 -0.625 10 1 8 C1.66 8 2.32 8 3 8 C2.505 7.236875 2.01 6.47375 1.5 5.6875 C0 3 0 3 0 0 Z " fill="#121214" transform="translate(412,81)"/>
<path d="M0 0 C1.67542976 0.28604898 3.34385343 0.61781233 5 1 C3.68 1.33 2.36 1.66 1 2 C0.81824219 2.88300781 0.63648438 3.76601563 0.44921875 4.67578125 C-1.12589018 12.19591668 -2.8752198 19.61601205 -5 27 C-5.66 27 -6.32 27 -7 27 C-6.60167969 25.44152344 -6.60167969 25.44152344 -6.1953125 23.8515625 C-4.41515074 16.83612595 -2.66808583 9.85218143 -1.39453125 2.72265625 C-1 1 -1 1 0 0 Z " fill="#0F1011" transform="translate(297,298)"/>
<path d="M0 0 C5.61 0 11.22 0 17 0 C17 0.33 17 0.66 17 1 C12.05 1.33 7.1 1.66 2 2 C2.33 6.29 2.66 10.58 3 15 C0.41294392 9.82588785 0.41112891 5.7558047 0 0 Z " fill="#131315" transform="translate(239,296)"/>
<path d="M0 0 C3.05928361 2.36847763 3.93459418 3.63372741 4.625 7.5 C4.67785156 8.180625 4.73070312 8.86125 4.78515625 9.5625 C5.05068376 12.57503035 5.55285358 15.51944712 6.0625 18.5 C6.23910156 19.5415625 6.41570312 20.583125 6.59765625 21.65625 C6.73042969 22.4296875 6.86320312 23.203125 7 24 C6.34 24 5.68 24 5 24 C4.1631665 20.37579876 3.33112766 16.75051363 2.5 13.125 C2.26152344 12.09246094 2.02304687 11.05992187 1.77734375 9.99609375 C1.55175781 9.00996094 1.32617188 8.02382812 1.09375 7.0078125 C0.88427734 6.09660645 0.67480469 5.18540039 0.45898438 4.24658203 C0 2 0 2 0 0 Z " fill="#121314" transform="translate(291,157)"/>
<path d="M0 0 C0.66 0.99 1.32 1.98 2 3 C1.360625 3.721875 0.72125 4.44375 0.0625 5.1875 C-1.98673535 7.98191184 -2.61332946 9.61663274 -3 13 C-1.02 13.66 0.96 14.32 3 15 C3 15.66 3 16.32 3 17 C0.03 16.01 -2.94 15.02 -6 14 C-6 10.27792613 -4.82035432 8.53604411 -3 5.3125 C-2.443125 4.31863281 -1.88625 3.32476562 -1.3125 2.30078125 C-0.879375 1.54152344 -0.44625 0.78226563 0 0 Z " fill="#111212" transform="translate(209,165)"/>
<path d="M0 0 C7.26 0 14.52 0 22 0 C22 0.33 22 0.66 22 1 C12.595 1.495 12.595 1.495 3 2 C3 4.97 3 7.94 3 11 C2.01 11.495 2.01 11.495 1 12 C0.67 8.04 0.34 4.08 0 0 Z " fill="#101113" transform="translate(155,244)"/>
<path d="M0 0 C0.66 0.33 1.32 0.66 2 1 C1.625 2.9375 1.625 2.9375 1 5 C-1.81081473 6.40540737 -3.94771718 5.93623713 -7.0625 5.6875 C-8.14660156 5.60886719 -9.23070313 5.53023437 -10.34765625 5.44921875 C-11.66056641 5.22685547 -11.66056641 5.22685547 -13 5 C-13.33 4.34 -13.66 3.68 -14 3 C-9.71 3 -5.42 3 -1 3 C-0.67 2.01 -0.34 1.02 0 0 Z " fill="#3E3F42" transform="translate(77,237)"/>
<path d="M0 0 C6.93 0 13.86 0 21 0 C21 0.33 21 0.66 21 1 C13.74 1.99 6.48 2.98 -1 4 C-0.67 2.68 -0.34 1.36 0 0 Z " fill="#131514" transform="translate(263,391)"/>
<path d="M0 0 C3.3 0.33 6.6 0.66 10 1 C10 2.32 10 3.64 10 5 C6.37 4.34 2.74 3.68 -1 3 C-0.67 2.01 -0.34 1.02 0 0 Z " fill="#080909" transform="translate(280,106)"/>
<path d="M0 0 C4.97209562 1.76429199 9.43438061 4.3939166 14 7 C14.66 6.34 15.32 5.68 16 5 C16.66 6.65 17.32 8.3 18 10 C11.00974805 8.87810771 4.61986288 5.42331729 0 0 Z " fill="#0C0C0E" transform="translate(228,335)"/>
<path d="M0 0 C0.33 0.66 0.66 1.32 1 2 C0.0625 4.625 0.0625 4.625 -1 7 C-1.66 7 -2.32 7 -3 7 C-3.2475 7.721875 -3.495 8.44375 -3.75 9.1875 C-5.12269592 12.27606582 -6.72353296 14.51011418 -9 17 C-9.66 17 -10.32 17 -11 17 C-9.4785708 13.72132006 -7.5944185 10.87944802 -5.5 7.9375 C-3.63418777 5.30876031 -1.78832004 2.68248007 0 0 Z " fill="#0E0F11" transform="translate(327,314)"/>
<path d="M0 0 C1.98 0.66 3.96 1.32 6 2 C6.33 1.34 6.66 0.68 7 0 C11.8 2.46153846 11.8 2.46153846 12.8125 5.1875 C12.874375 5.785625 12.93625 6.38375 13 7 C8.52761347 5.58192622 4.28853694 3.88695626 0 2 C0 1.34 0 0.68 0 0 Z " fill="#0B0B0B" transform="translate(354,26)"/>
<path d="M0 0 C1.3805087 3.76668598 0.59568159 6.44789173 -0.4375 10.25 C-0.72496094 11.32765625 -1.01242187 12.4053125 -1.30859375 13.515625 C-1.53675781 14.33546875 -1.76492188 15.1553125 -2 16 C-2.99 15.34 -3.98 14.68 -5 14 C-4.74438677 11.6568787 -4.40729228 9.32156597 -4 7 C-3.34 6.67 -2.68 6.34 -2 6 C-1.27306096 4.02111039 -0.60183749 2.02045442 0 0 Z " fill="#0A0A0A" transform="translate(476,285)"/>
<path d="M0 0 C0.33 0.66 0.66 1.32 1 2 C0.00390625 4.3828125 0.00390625 4.3828125 -1.4375 7.125 C-1.91058594 8.03507813 -2.38367188 8.94515625 -2.87109375 9.8828125 C-3.24363281 10.58148438 -3.61617187 11.28015625 -4 12 C-5.2077558 8.37673261 -4.54311128 7.35853631 -3 4 C-5.31 4.66 -7.62 5.32 -10 6 C-7.27521226 2.63408573 -3.93143208 1.55773724 0 0 Z " fill="#0E0E0F" transform="translate(245,134)"/>
<path d="M0 0 C0.66 0.33 1.32 0.66 2 1 C1.01 3.31 0.02 5.62 -1 8 C0.65 7.67 2.3 7.34 4 7 C2.02579865 9.52259061 1.03254358 9.9929808 -2.1875 10.6875 C-3.5796875 10.8421875 -3.5796875 10.8421875 -5 11 C-3.35 7.37 -1.7 3.74 0 0 Z " fill="#090909" transform="translate(286,334)"/>
<path d="M0 0 C-1.57934639 0.98558449 -3.16365173 1.96322541 -4.75 2.9375 C-6.07257813 3.75541016 -6.07257813 3.75541016 -7.421875 4.58984375 C-9.68399917 5.82715712 -11.48566325 6.53590513 -14 7 C-9.09374189 0.33653596 -9.09374189 0.33653596 -4.75 -1 C-2 -1 -2 -1 0 0 Z " fill="#0A0A0C" transform="translate(323,331)"/>
<path d="M0 0 C2.75637873 2.75637873 2.81877678 5.1996133 3.5625 9 C4.3732783 13.6372916 4.3732783 13.6372916 6 18 C5.34 18.66 4.68 19.32 4 20 C3.32331051 17.79471728 2.65906502 15.58561391 2 13.375 C1.62875 12.14523437 1.2575 10.91546875 0.875 9.6484375 C0.06272281 6.26153174 -0.17041013 3.46145571 0 0 Z " fill="#131314" transform="translate(157,256)"/>
<path d="M0 0 C2 0 2 0 4.125 1.875 C6 4 6 4 6 6 C6.598125 5.649375 7.19625 5.29875 7.8125 4.9375 C10 4 10 4 13 5 C10.69 6.32 8.38 7.64 6 9 C4.99712471 7.68969568 3.99777175 6.37669473 3 5.0625 C2.443125 4.33160156 1.88625 3.60070312 1.3125 2.84765625 C0 1 0 1 0 0 Z " fill="#101011" transform="translate(175,302)"/>
<path d="M0 0 C0.66 0.33 1.32 0.66 2 1 C1.67 2.32 1.34 3.64 1 5 C-2.3 5 -5.6 5 -9 5 C-8 3 -8 3 -5.0625 1.9375 C-3.5465625 1.4734375 -3.5465625 1.4734375 -2 1 C-1.34 0.67 -0.68 0.34 0 0 Z " fill="#191B1C" transform="translate(277,282)"/>
<path d="M0 0 C1.5078125 1.96875 1.5078125 1.96875 3.125 4.5 C3.66382813 5.3353125 4.20265625 6.170625 4.7578125 7.03125 C5.16773438 7.6809375 5.57765625 8.330625 6 9 C5.01 9.495 5.01 9.495 4 10 C2.68 8.02 1.36 6.04 0 4 C-2.31 4.33 -4.62 4.66 -7 5 C-2.25 0 -2.25 0 0 0 Z " fill="#0B0C0D" transform="translate(350,173)"/>
<path d="M0 0 C0.33 0.66 0.66 1.32 1 2 C-0.45398729 3.81598825 -1.91332325 5.62769519 -3.375 7.4375 C-4.59316406 8.95150391 -4.59316406 8.95150391 -5.8359375 10.49609375 C-8 13 -8 13 -10 14 C-8.51872621 10.74715253 -6.65319465 8.11102873 -4.4375 5.3125 C-3.81746094 4.52488281 -3.19742188 3.73726562 -2.55859375 2.92578125 C-1 1 -1 1 0 0 Z " fill="#0F0F11" transform="translate(220,151)"/>
<path d="M0 0 C4.36380715 3.49104572 5.15085602 6.6503929 6 12 C5.01 13.485 5.01 13.485 4 15 C3.3299166 12.87607494 2.66403203 10.75082476 2 8.625 C1.62875 7.44164062 1.2575 6.25828125 0.875 5.0390625 C0 2 0 2 0 0 Z " fill="#151617" transform="translate(337,186)"/>
<path d="M0 0 C5.61 0 11.22 0 17 0 C15.68 0.33 14.36 0.66 13 1 C13 1.66 13 2.32 13 3 C11.02013918 2.88652381 9.04108402 2.7589065 7.0625 2.625 C5.96035156 2.55539062 4.85820312 2.48578125 3.72265625 2.4140625 C2.82417969 2.27742188 1.92570312 2.14078125 1 2 C0.67 1.34 0.34 0.68 0 0 Z " fill="#161817" transform="translate(257,474)"/>
<path d="M0 0 C2.28814723 2.28814723 2.75451161 3.80751622 3.6875 6.875 C3.95949219 7.73867188 4.23148438 8.60234375 4.51171875 9.4921875 C5.01692938 12.08694932 4.85561171 13.530785 4 16 C3.32586789 14.08594633 2.6609668 12.16863974 2 10.25 C1.62875 9.18265625 1.2575 8.1153125 0.875 7.015625 C0 4 0 4 0 0 Z " fill="#131314" transform="translate(242,311)"/>
<path d="M0 0 C5.445 1.485 5.445 1.485 11 3 C11 3.99 11 4.98 11 6 C7.61121488 6 6.60242783 5.35638802 3.8125 3.5625 C2.73935547 2.88380859 2.73935547 2.88380859 1.64453125 2.19140625 C1.10183594 1.79824219 0.55914062 1.40507812 0 1 C0 0.67 0 0.34 0 0 Z " fill="#0E0E0E" transform="translate(336,304)"/>
<path d="M0 0 C0.33 0 0.66 0 1 0 C1 2.97 1 5.94 1 9 C0.01 9.33 -0.98 9.66 -2 10 C-1.85950482 8.52031676 -1.71245174 7.04125484 -1.5625 5.5625 C-1.48128906 4.73878906 -1.40007813 3.91507813 -1.31640625 3.06640625 C-1 1 -1 1 0 0 Z " fill="#131416" transform="translate(30,230)"/>
<path d="M0 0 C2.41346327 4.1373656 4.5081809 9.45467653 3.55078125 14.25 C3.36902344 14.8275 3.18726563 15.405 3 16 C0.54970669 10.28264895 -0.33266291 6.20970773 0 0 Z " fill="#111113" transform="translate(331,194)"/>
<path d="M0 0 C2.97 0.495 2.97 0.495 6 1 C6 2.32 6 3.64 6 5 C4.02 4.34 2.04 3.68 0 3 C0 2.01 0 1.02 0 0 Z " fill="#040404" transform="translate(185,424)"/>
<path d="M0 0 C1.32 0 2.64 0 4 0 C3.67 1.32 3.34 2.64 3 4 C1.35 4.33 -0.3 4.66 -2 5 C-1.125 1.125 -1.125 1.125 0 0 Z " fill="#030303" transform="translate(373,405)"/>
<path d="M0 0 C1.875 0.25 1.875 0.25 4 1 C5.25 3.0625 5.25 3.0625 6 5 C4.68 5 3.36 5 2 5 C1.34 4.34 0.68 3.68 0 3 C0 2.01 0 1.02 0 0 Z " fill="#020202" transform="translate(126,386)"/>
<path d="M0 0 C0.66 0 1.32 0 2 0 C2.36923077 5.53846154 2.36923077 5.53846154 0.5 7.875 C-0.2425 8.431875 -0.2425 8.431875 -1 9 C-2.0326802 6.21176345 -2.04509293 5.1322726 -1.0625 2.25 C-0.711875 1.5075 -0.36125 0.765 0 0 Z " fill="#151515" transform="translate(386,290)"/>
<path d="M0 0 C0.66 0 1.32 0 2 0 C2.33 1.98 2.66 3.96 3 6 C1.68 6 0.36 6 -1 6 C-1.042721 4.33388095 -1.04063832 2.66617115 -1 1 C-0.67 0.67 -0.34 0.34 0 0 Z " fill="#0F100F" transform="translate(63,245)"/>
<path d="M0 0 C2.31 0.66 4.62 1.32 7 2 C7 2.66 7 3.32 7 4 C7.66 4.33 8.32 4.66 9 5 C6.125 5.125 6.125 5.125 3 5 C1.66666667 3.66666667 0.33333333 2.33333333 -1 1 C-0.67 0.67 -0.34 0.34 0 0 Z " fill="#0E1110" transform="translate(308,95)"/>
<path d="M0 0 C-0.33 1.32 -0.66 2.64 -1 4 C-2.65 4.33 -4.3 4.66 -6 5 C-5.625 3.0625 -5.625 3.0625 -5 1 C-3 0 -3 0 0 0 Z " fill="#040404" transform="translate(362,414)"/>
<path d="M0 0 C0.33 0 0.66 0 1 0 C1 2.31 1 4.62 1 7 C2.65 6.01 4.3 5.02 6 4 C4.46126823 7.71860179 3.52488612 8.35633541 0 11 C0 7.37 0 3.74 0 0 Z " fill="#08080A" transform="translate(268,336)"/>
<path d="M0 0 C0.99 0 1.98 0 3 0 C2.67 1.65 2.34 3.3 2 5 C0.68 5.33 -0.64 5.66 -2 6 C-1.125 1.125 -1.125 1.125 0 0 Z " fill="#0B0B0B" transform="translate(442,325)"/>
<path d="M0 0 C0.99 0.33 1.98 0.66 3 1 C3 2.98 3 4.96 3 7 C2.01 7 1.02 7 0 7 C-0.38133299 5.0085944 -0.71325582 3.00720923 -1 1 C-0.67 0.67 -0.34 0.34 0 0 Z " fill="#0B0B0B" transform="translate(67,280)"/>
<path d="M0 0 C0.99 0.33 1.98 0.66 3 1 C3 2.98 3 4.96 3 7 C1.68 6.67 0.36 6.34 -1 6 C-0.67 4.02 -0.34 2.04 0 0 Z " fill="#0B0B0C" transform="translate(63,227)"/>
<path d="M0 0 C2.45823172 3.68734758 3.01242616 6.69699971 4 11 C2.0625 10.5 2.0625 10.5 0 9 C-0.76128 6.26734566 -0.86331619 3.87035995 -1 1 C-0.67 0.67 -0.34 0.34 0 0 Z M-2 5 C0 6 0 6 0 6 Z " fill="#171718" transform="translate(282,157)"/>
<path d="M0 0 C0.99 0 1.98 0 3 0 C2.67 1.98 2.34 3.96 2 6 C0.68 6 -0.64 6 -2 6 C-1.34 4.02 -0.68 2.04 0 0 Z " fill="#050505" transform="translate(87,143)"/>
<path d="M0 0 C0.99 0 1.98 0 3 0 C2.75 1.875 2.75 1.875 2 4 C-0.0625 5.25 -0.0625 5.25 -2 6 C-2.33 5.34 -2.66 4.68 -3 4 C-1.6875 2 -1.6875 2 0 0 Z " fill="#080808" transform="translate(107,114)"/>
<path d="M0 0 C1.65 0 3.3 0 5 0 C5 0.99 5 1.98 5 3 C3.02 3.33 1.04 3.66 -1 4 C-0.67 2.68 -0.34 1.36 0 0 Z " fill="#0C0C0C" transform="translate(290,437)"/>
<path d="M0 0 C-0.33 0.99 -0.66 1.98 -1 3 C-2.98 3 -4.96 3 -7 3 C-6.67 2.01 -6.34 1.02 -6 0 C-3 -1 -3 -1 0 0 Z " fill="#060606" transform="translate(313,434)"/>
<path d="M0 0 C-0.33 0.99 -0.66 1.98 -1 3 C-2.65 3.33 -4.3 3.66 -6 4 C-6 2.68 -6 1.36 -6 0 C-2.25 -1.125 -2.25 -1.125 0 0 Z " fill="#030303" transform="translate(330,429)"/>
<path d="M0 0 C-0.33 1.32 -0.66 2.64 -1 4 C-2.32 4.33 -3.64 4.66 -5 5 C-5.33 3.68 -5.66 2.36 -6 1 C-3 0 -3 0 0 0 Z " fill="#050505" transform="translate(346,422)"/>
<path d="M0 0 C2.475 0.495 2.475 0.495 5 1 C5.33 2.32 5.66 3.64 6 5 C4.125 4.75 4.125 4.75 2 4 C0.75 1.9375 0.75 1.9375 0 0 Z " fill="#050505" transform="translate(154,408)"/>
<path d="M0 0 C0.99 0 1.98 0 3 0 C2.67 1.32 2.34 2.64 2 4 C0.35 4.33 -1.3 4.66 -3 5 C-1.125 1.125 -1.125 1.125 0 0 Z " fill="#050505" transform="translate(388,394)"/>
<path d="M0 0 C2.64 0.99 5.28 1.98 8 3 C5.42786866 4.61949011 4.32330841 5.04408751 1.25 4.625 C0.5075 4.41875 -0.235 4.2125 -1 4 C-0.67 2.68 -0.34 1.36 0 0 Z " fill="#040404" transform="translate(210,362)"/>
<path d="M0 0 C1.32 0.66 2.64 1.32 4 2 C4 3.32 4 4.64 4 6 C2.0625 5.1875 2.0625 5.1875 0 4 C-0.33 3.01 -0.66 2.02 -1 1 C-0.67 0.67 -0.34 0.34 0 0 Z " fill="#050505" transform="translate(103,360)"/>
<path d="M0 0 C1.32 0 2.64 0 4 0 C3.1875 2.4375 3.1875 2.4375 2 5 C1.01 5.33 0.02 5.66 -1 6 C-0.67 4.02 -0.34 2.04 0 0 Z " fill="#070707" transform="translate(433,341)"/>
<path d="M0 0 C0.99 0 1.98 0 3 0 C2.67 1.65 2.34 3.3 2 5 C0.68 5.33 -0.64 5.66 -2 6 C-1.34 4.02 -0.68 2.04 0 0 Z " fill="#060606" transform="translate(449,309)"/>
<path d="M0 0 C0.66 0.66 1.32 1.32 2 2 C2.66 2 3.32 2 4 2 C4.33 3.65 4.66 5.3 5 7 C4.34 7 3.68 7 3 7 C2.67 7.99 2.34 8.98 2 10 C0.68373308 6.38026598 0 3.90432869 0 0 Z " fill="#050706" transform="translate(38,307)"/>
<path d="M0 0 C0.99 0.33 1.98 0.66 3 1 C3.33 2.65 3.66 4.3 4 6 C3.01 6.33 2.02 6.66 1 7 C0.67 4.69 0.34 2.38 0 0 Z " fill="#080808" transform="translate(71,297)"/>
<path d="M0 0 C0.99 0 1.98 0 3 0 C3 2.31 3 4.62 3 7 C2.01 7 1.02 7 0 7 C0 4.69 0 2.38 0 0 Z " fill="#080808" transform="translate(461,239)"/>
<path d="M0 0 C0.23460937 0.64453125 0.46921875 1.2890625 0.7109375 1.953125 C1.81161073 4.2077908 1.81161073 4.2077908 4.1640625 4.609375 C4.97617188 4.65578125 5.78828125 4.7021875 6.625 4.75 C7.85089844 4.83507812 7.85089844 4.83507812 9.1015625 4.921875 C9.72804687 4.94765625 10.35453125 4.9734375 11 5 C11 5.33 11 5.66 11 6 C7.04 6 3.08 6 -1 6 C-0.67 4.02 -0.34 2.04 0 0 Z " fill="#0A0A0B" transform="translate(156,230)"/>
<path d="M0 0 C0.33 0 0.66 0 1 0 C1 2.64 1 5.28 1 8 C0.01 8.495 0.01 8.495 -1 9 C-1 8.34 -1 7.68 -1 7 C-1.99 6.67 -2.98 6.34 -4 6 C-3.01 5.67 -2.02 5.34 -1 5 C-0.67 3.35 -0.34 1.7 0 0 Z " fill="#232425" transform="translate(112,235)"/>
<path d="M0 0 C0.66 0 1.32 0 2 0 C2.33 1.98 2.66 3.96 3 6 C1.68 6 0.36 6 -1 6 C-1.042721 4.33388095 -1.04063832 2.66617115 -1 1 C-0.67 0.67 -0.34 0.34 0 0 Z " fill="#050505" transform="translate(461,221)"/>
<path d="M0 0 C0.99 0.33 1.98 0.66 3 1 C2.34 2.98 1.68 4.96 1 7 C0.34 7 -0.32 7 -1 7 C-1.04254356 5.00045254 -1.04080783 2.99958364 -1 1 C-0.67 0.67 -0.34 0.34 0 0 Z " fill="#0A0A0A" transform="translate(65,210)"/>
<path d="M0 0 C0.99 0 1.98 0 3 0 C3.33 1.98 3.66 3.96 4 6 C3.01 6 2.02 6 1 6 C0.34 4.35 -0.32 2.7 -1 1 C-0.67 0.67 -0.34 0.34 0 0 Z " fill="#050505" transform="translate(442,154)"/>
<path d="M0 0 C0.66 0.33 1.32 0.66 2 1 C-1.32307692 5.8 -1.32307692 5.8 -4.75 6.8125 C-5.4925 6.874375 -6.235 6.93625 -7 7 C-4.78071806 4.09197539 -3.07030857 2.04687238 0 0 Z " fill="#111114" transform="translate(200,151)"/>
<path d="M0 0 C3.91211733 1.15585285 6.8745041 2.35534962 10 5 C9.071875 4.835 8.14375 4.67 7.1875 4.5 C4.04378647 3.92251612 4.04378647 3.92251612 1 4 C0.67 2.68 0.34 1.36 0 0 Z " fill="#0B0B0C" transform="translate(281,134)"/>
<path d="M0 0 C0.66 0 1.32 0 2 0 C1.67 1.65 1.34 3.3 1 5 C-0.32 5.33 -1.64 5.66 -3 6 C-2.42655063 3.13275314 -2.1385485 2.1385485 0 0 Z " fill="#050505" transform="translate(97,128)"/>
<path d="M0 0 C1.9375 0.75 1.9375 0.75 4 2 C4.75 4.125 4.75 4.125 5 6 C3.68 5.67 2.36 5.34 1 5 C0.67 3.35 0.34 1.7 0 0 Z " fill="#050505" transform="translate(424,123)"/>
<path d="M0 0 C1.9375 0.75 1.9375 0.75 4 2 C4.75 4.125 4.75 4.125 5 6 C3.68 5.67 2.36 5.34 1 5 C0.67 3.35 0.34 1.7 0 0 Z " fill="#080808" transform="translate(413,109)"/>
<path d="M0 0 C2.475 0.99 2.475 0.99 5 2 C5 2.99 5 3.98 5 5 C2.83125748 4.49396008 1.00032373 4.00016187 -1 3 C-0.67 2.01 -0.34 1.02 0 0 Z " fill="#030303" transform="translate(374,74)"/>
<path d="M0 0 C0 0.99 0 1.98 0 3 C-3 5 -3 5 -6 5 C-5.625 3.0625 -5.625 3.0625 -5 1 C-3 0 -3 0 0 0 Z " fill="#060606" transform="translate(163,68)"/>
<path d="M0 0 C2.16874252 0.50603992 3.99967627 0.99983813 6 2 C5.67 2.99 5.34 3.98 5 5 C2.525 4.01 2.525 4.01 0 3 C0 2.01 0 1.02 0 0 Z " fill="#070707" transform="translate(359,65)"/>
<path d="M0 0 C2.475 0.495 2.475 0.495 5 1 C5 2.32 5 3.64 5 5 C2.525 4.01 2.525 4.01 0 3 C0 2.01 0 1.02 0 0 Z " fill="#070707" transform="translate(343,57)"/>
<path d="M0 0 C-0.33 0.99 -0.66 1.98 -1 3 C-2.65 3.33 -4.3 3.66 -6 4 C-6.33 3.01 -6.66 2.02 -7 1 C-4.53721199 -0.231394 -2.7204945 -0.07159196 0 0 Z " fill="#050505" transform="translate(195,53)"/>
<path d="M0 0 C-0.33 1.32 -0.66 2.64 -1 4 C-2.65 4 -4.3 4 -6 4 C-6 3.01 -6 2.02 -6 1 C-4 0 -4 0 0 0 Z " fill="#0A0A0A" transform="translate(228,43)"/>
<path d="M0 0 C2.97 0.495 2.97 0.495 6 1 C6 1.99 6 2.98 6 4 C3.03 3.505 3.03 3.505 0 3 C0 2.01 0 1.02 0 0 Z " fill="#070707" transform="translate(292,42)"/>
<path d="M0 0 C1.98 0 3.96 0 6 0 C6.33 0.99 6.66 1.98 7 3 C4.69 3 2.38 3 0 3 C0 2.01 0 1.02 0 0 Z " fill="#0A0A0A" transform="translate(236,438)"/>
<path d="M0 0 C0.99 0.33 1.98 0.66 3 1 C3.33 2.65 3.66 4.3 4 6 C3.01 6 2.02 6 1 6 C0.34 4.35 -0.32 2.7 -1 1 C-0.67 0.67 -0.34 0.34 0 0 Z " fill="#050505" transform="translate(93,345)"/>
<path d="M0 0 C0.99 0.33 1.98 0.66 3 1 C3.33 2.65 3.66 4.3 4 6 C2.68 5.67 1.36 5.34 0 5 C-0.5625 3.0625 -0.5625 3.0625 -1 1 C-0.67 0.67 -0.34 0.34 0 0 Z " fill="#080808" transform="translate(77,314)"/>
<path d="M0 0 C0.33 0.66 0.66 1.32 1 2 C-0.65 4.31 -2.3 6.62 -4 9 C-4 6.16032769 -3.59732819 3.76264289 -3 1 C-2.01 0.67 -1.02 0.34 0 0 Z " fill="#131315" transform="translate(319,310)"/>
<path d="M0 0 C0.99 0 1.98 0 3 0 C2.67 1.98 2.34 3.96 2 6 C1.01 6 0.02 6 -1 6 C-0.67 4.02 -0.34 2.04 0 0 Z " fill="#060606" transform="translate(454,292)"/>
<path d="M0 0 C0.99 0 1.98 0 3 0 C3 1.65 3 3.3 3 5 C1.68 5.33 0.36 5.66 -1 6 C-0.67 4.02 -0.34 2.04 0 0 Z " fill="#060606" transform="translate(458,275)"/>
<path d="M0 0 C0.66 0 1.32 0 2 0 C2 2.31 2 4.62 2 7 C1.01 7 0.02 7 -1 7 C-1.04254356 5.00045254 -1.04080783 2.99958364 -1 1 C-0.67 0.67 -0.34 0.34 0 0 Z " fill="#060606" transform="translate(461,257)"/>
<path d="M0 0 C0.99 0 1.98 0 3 0 C2.67 1.98 2.34 3.96 2 6 C1.01 6 0.02 6 -1 6 C-0.67 4.02 -0.34 2.04 0 0 Z " fill="#070707" transform="translate(68,193)"/>
<path d="M0 0 C0.8353125 0.7734375 0.8353125 0.7734375 1.6875 1.5625 C3.94085007 3.29476698 3.94085007 3.29476698 6.75 2.6875 C7.4925 2.460625 8.235 2.23375 9 2 C9 2.66 9 3.32 9 4 C6.36 4.33 3.72 4.66 1 5 C0.67 3.35 0.34 1.7 0 0 Z " fill="#131314" transform="translate(297,182)"/>
<path d="M0 0 C0.99 0 1.98 0 3 0 C2.67 1.98 2.34 3.96 2 6 C1.01 6 0.02 6 -1 6 C-1.042721 4.33388095 -1.04063832 2.66617115 -1 1 C-0.67 0.67 -0.34 0.34 0 0 Z " fill="#090909" transform="translate(73,176)"/>
<path d="M0 0 C0.99 0.33 1.98 0.66 3 1 C3.33 2.65 3.66 4.3 4 6 C2.68 5.67 1.36 5.34 0 5 C-0.5625 3.0625 -0.5625 3.0625 -1 1 C-0.67 0.67 -0.34 0.34 0 0 Z " fill="#060606" transform="translate(449,170)"/>
<path d="M0 0 C0.99 0 1.98 0 3 0 C2.67 1.98 2.34 3.96 2 6 C1.01 6 0.02 6 -1 6 C-0.67 4.02 -0.34 2.04 0 0 Z " fill="#040404" transform="translate(79,159)"/>
<path d="M0 0 C0.99 0 1.98 0 3 0 C2.67 1.32 2.34 2.64 2 4 C0.68 4.33 -0.64 4.66 -2 5 C-2 2 -2 2 0 0 Z " fill="#060606" transform="translate(131,89)"/>
<path d="M0 0 C2.0625 0.4375 2.0625 0.4375 4 1 C4.33 2.32 4.66 3.64 5 5 C3.125 4.6875 3.125 4.6875 1 4 C0.34 3.01 -0.32 2.02 -1 1 C-0.67 0.67 -0.34 0.34 0 0 Z " fill="#070707" transform="translate(388,85)"/>
<path d="M0 0 C0 0.99 0 1.98 0 3 C-1.98 3.33 -3.96 3.66 -6 4 C-6 3.01 -6 2.02 -6 1 C-4 0 -4 0 0 0 Z " fill="#080808" transform="translate(178,60)"/>
<path d="M0 0 C2.31 0.33 4.62 0.66 7 1 C6.67 1.99 6.34 2.98 6 4 C4.02 3.34 2.04 2.68 0 2 C0 1.34 0 0.68 0 0 Z " fill="#050505" transform="translate(309,46)"/>
<path d="M0 0 C1.98 0 3.96 0 6 0 C6 0.99 6 1.98 6 3 C4.02 3 2.04 3 0 3 C0 2.01 0 1.02 0 0 Z " fill="#0B0B0B" transform="translate(272,439)"/>
<path d="M0 0 C2.97 0.495 2.97 0.495 6 1 C6 1.99 6 2.98 6 4 C3.03 3.505 3.03 3.505 0 3 C0 2.01 0 1.02 0 0 Z " fill="#050505" transform="translate(202,430)"/>
<path d="M0 0 C2.475 0.495 2.475 0.495 5 1 C5.33 1.99 5.66 2.98 6 4 C2 4 2 4 0 3 C0 2.01 0 1.02 0 0 Z " fill="#040404" transform="translate(140,398)"/>
<path d="M0 0 C1.32 0.33 2.64 0.66 4 1 C4.33 2.32 4.66 3.64 5 5 C3.68 4.67 2.36 4.34 1 4 C0.67 2.68 0.34 1.36 0 0 Z " fill="#040404" transform="translate(114,374)"/>
<path d="M0 0 C0.99 0 1.98 0 3 0 C2.67 1.32 2.34 2.64 2 4 C0.68 4.33 -0.64 4.66 -2 5 C-1.125 1.125 -1.125 1.125 0 0 Z " fill="#040404" transform="translate(424,356)"/>
<path d="M0 0 C2.31 1.98 4.62 3.96 7 6 C6.01 6.33 5.02 6.66 4 7 C1.8125 5.8125 1.8125 5.8125 0 4 C0 2.68 0 1.36 0 0 Z " fill="#040506" transform="translate(212,331)"/>
<path d="M0 0 C0.99 0 1.98 0 3 0 C3.66 1.65 4.32 3.3 5 5 C3.68 5 2.36 5 1 5 C0.67 3.35 0.34 1.7 0 0 Z " fill="#090909" transform="translate(84,330)"/>
<path d="M0 0 C0.99 0.33 1.98 0.66 3 1 C3 2.98 3 4.96 3 7 C2.01 6.67 1.02 6.34 0 6 C0 4.02 0 2.04 0 0 Z " fill="#0A0A0A" transform="translate(458,204)"/>
<path d="M0 0 C0.99 0 1.98 0 3 0 C3.33 1.98 3.66 3.96 4 6 C3.01 6 2.02 6 1 6 C0.67 4.02 0.34 2.04 0 0 Z " fill="#060606" transform="translate(454,187)"/>
<path d="M0 0 C0.99 0.33 1.98 0.66 3 1 C3.33 2.65 3.66 4.3 4 6 C3.01 6 2.02 6 1 6 C0.34 4.35 -0.32 2.7 -1 1 C-0.67 0.67 -0.34 0.34 0 0 Z " fill="#040404" transform="translate(434,138)"/>
<path d="M0 0 C2.4375 0.8125 2.4375 0.8125 5 2 C5.33 2.99 5.66 3.98 6 5 C5.01 5.33 4.02 5.66 3 6 C2.67 5.01 2.34 4.02 2 3 C1.34 2.67 0.68 2.34 0 2 C0 1.34 0 0.68 0 0 Z " fill="#212123" transform="translate(284,137)"/>
<path d="M0 0 C0.99 0 1.98 0 3 0 C2.67 1.32 2.34 2.64 2 4 C0.68 4.33 -0.64 4.66 -2 5 C-1.125 1.125 -1.125 1.125 0 0 Z " fill="#080808" transform="translate(118,101)"/>
<path d="M0 0 C-0.66 1.32 -1.32 2.64 -2 4 C-3.32 4 -4.64 4 -6 4 C-5.67 3.01 -5.34 2.02 -5 1 C-3 0 -3 0 0 0 Z " fill="#09090A" transform="translate(148,78)"/>
<path d="M0 0 C3.465 1.485 3.465 1.485 7 3 C6.01 3.495 6.01 3.495 5 4 C4.67 4.99 4.34 5.98 4 7 C2.35 5.35 0.7 3.7 -1 2 C-0.67 1.34 -0.34 0.68 0 0 Z " fill="#121215" transform="translate(424,70)"/>
<path d="M0 0 C-1.39332574 3.36720387 -2.9789286 4.9859524 -6 7 C-6 4 -6 4 -4.125 1.8125 C-2 0 -2 0 0 0 Z " fill="#101010" transform="translate(108,65)"/>
<path d="M0 0 C2.97 0.495 2.97 0.495 6 1 C6 1.99 6 2.98 6 4 C4.35 3.67 2.7 3.34 1 3 C0.67 2.01 0.34 1.02 0 0 Z " fill="#030303" transform="translate(326,51)"/>
<path d="M0 0 C1.98 0 3.96 0 6 0 C5.67 0.99 5.34 1.98 5 3 C3.02 3 1.04 3 -1 3 C-0.67 2.01 -0.34 1.02 0 0 Z " fill="#0B0B0B" transform="translate(240,41)"/>
<path d="M0 0 C2.97 0.495 2.97 0.495 6 1 C6 1.99 6 2.98 6 4 C3.03 3.505 3.03 3.505 0 3 C0 2.01 0 1.02 0 0 Z " fill="#030303" transform="translate(275,40)"/>
<path d="M0 0 C1.98 0 3.96 0 6 0 C6 0.99 6 1.98 6 3 C4.02 3 2.04 3 0 3 C0 2.01 0 1.02 0 0 Z " fill="#090909" transform="translate(254,439)"/>
<path d="M0 0 C1.98 0 3.96 0 6 0 C6 0.99 6 1.98 6 3 C4.02 3 2.04 3 0 3 C0 2.01 0 1.02 0 0 Z " fill="#060606" transform="translate(219,435)"/>
<path d="M0 0 C2.97 0.495 2.97 0.495 6 1 C6 1.99 6 2.98 6 4 C4.35 3.67 2.7 3.34 1 3 C0.67 2.01 0.34 1.02 0 0 Z " fill="#030303" transform="translate(169,417)"/>
<path d="M0 0 C0.66 0.33 1.32 0.66 2 1 C2 1.99 2 2.98 2 4 C-0.31 4.33 -2.62 4.66 -5 5 C-4.1875 3.0625 -4.1875 3.0625 -3 1 C-2.01 0.67 -1.02 0.34 0 0 Z " fill="#070707" transform="translate(302,385)"/>
<path d="M0 0 C0.66 0.33 1.32 0.66 2 1 C1.34 2.65 0.68 4.3 0 6 C-0.99 6 -1.98 6 -3 6 C-2.42655063 3.13275314 -2.1385485 2.1385485 0 0 Z " fill="#080808" transform="translate(414,369)"/>
<path d="M0 0 C0.99 0 1.98 0 3 0 C3 1.98 3 3.96 3 6 C2.01 6 1.02 6 0 6 C0 4.02 0 2.04 0 0 Z " fill="#0E1010" transform="translate(64,263)"/>
<path d="M0 0 C0.66 0.33 1.32 0.66 2 1 C2 3.64 2 6.28 2 9 C-0.37783838 6.62216162 -0.59009208 5.27926335 -1 2 C-0.67 1.34 -0.34 0.68 0 0 Z " fill="#0E1212" transform="translate(29,241)"/>
<path d="M0 0 C0 0.99 0 1.98 0 3 C-1.98 3.33 -3.96 3.66 -6 4 C-6 3.01 -6 2.02 -6 1 C-3.92446352 0.4465236 -2.15634036 0 0 0 Z " fill="#070707" transform="translate(211,47)"/>
<path d="M0 0 C1.98 0 3.96 0 6 0 C6 0.99 6 1.98 6 3 C4.02 3 2.04 3 0 3 C0 2.01 0 1.02 0 0 Z " fill="#070707" transform="translate(257,40)"/>
<path d="M0 0 C-0.33 0.99 -0.66 1.98 -1 3 C-3.375 3.625 -3.375 3.625 -6 4 C-6.66 3.34 -7.32 2.68 -8 2 C-4.91190305 0.23537317 -3.76687864 0 0 0 Z " fill="#0D100D" transform="translate(343,461)"/>
<path d="M0 0 C1.11375 0.3403125 1.11375 0.3403125 2.25 0.6875 C-1.1852048 2.97763653 -2.735331 2.86592973 -6.75 2.6875 C-4.29511132 0.41445492 -3.41240272 -0.38777304 0 0 Z " fill="#101211" transform="translate(302.75,421.3125)"/>
<path d="M0 0 C0.66 0.66 1.32 1.32 2 2 C1.34 3.32 0.68 4.64 0 6 C-0.99 6 -1.98 6 -3 6 C-2.42655063 3.13275314 -2.1385485 2.1385485 0 0 Z " fill="#101010" transform="translate(404,359)"/>
<path d="M0 0 C0.99 0 1.98 0 3 0 C3.33 1.65 3.66 3.3 4 5 C3.01 5.33 2.02 5.66 1 6 C0 5 0 5 -0.0625 2.4375 C-0.041875 1.633125 -0.02125 0.82875 0 0 Z " fill="#060606" transform="translate(111,252)"/>
<path d="M0 0 C0.66 0.33 1.32 0.66 2 1 C0.25 3 0.25 3 -2 5 C-3.32 5 -4.64 5 -6 5 C-6 4.34 -6 3.68 -6 3 C-4.03533587 1.93224776 -2.03144641 0.93446535 0 0 Z " fill="#060607" transform="translate(217,141)"/>
<path d="M0 0 C1.65 0 3.3 0 5 0 C5.66 1.98 6.32 3.96 7 6 C1.125 2.25 1.125 2.25 0 0 Z " fill="#07070A" transform="translate(419,69)"/>
</svg>
